<svg width="954" height="135" viewBox="0 0 954 135" fill="none" xmlns="http://www.w3.org/2000/svg">
<path opacity="0.3" d="M89.4103 44.4062C88.5155 41.2955 87.2584 38.5469 85.639 36.1605C84.0197 33.7315 82.0382 31.6861 79.6944 30.0241C77.3933 28.3196 74.7512 27.0199 71.7683 26.125C68.8279 25.2301 65.568 24.7827 61.9885 24.7827C55.2981 24.7827 49.4174 26.4446 44.3464 29.7685C39.318 33.0923 35.3976 37.929 32.5851 44.2784C29.7726 50.5852 28.3663 58.2983 28.3663 67.4176C28.3663 76.5369 29.7512 84.2926 32.5211 90.6847C35.291 97.0767 39.2115 101.956 44.2825 105.322C49.3535 108.646 55.3407 110.308 62.2441 110.308C68.5083 110.308 73.8564 109.2 78.2882 106.984C82.7626 104.726 86.1717 101.551 88.5155 97.4602C90.9018 93.3693 92.095 88.5327 92.095 82.9503L97.72 83.7812H63.97V62.9432H118.75V79.4347C118.75 90.9403 116.321 100.827 111.463 109.094C106.605 117.318 99.9146 123.668 91.3919 128.142C82.8691 132.574 73.1106 134.79 62.1163 134.79C49.8436 134.79 39.0623 132.084 29.7726 126.672C20.4828 121.217 13.2385 113.483 8.0396 103.469C2.88335 93.4119 0.30522 81.4801 0.30522 67.6733C0.30522 57.0625 1.83931 47.6023 4.90749 39.2926C8.01829 30.9403 12.3649 23.8665 17.9473 18.071C23.5297 12.2756 30.0282 7.86505 37.443 4.83948C44.8578 1.81392 52.8904 0.301131 61.541 0.301131C68.9558 0.301131 75.8592 1.38778 82.2512 3.56108C88.6433 5.69176 94.3109 8.71733 99.2541 12.6378C104.24 16.5582 108.309 21.2244 111.463 26.6364C114.616 32.0057 116.64 37.929 117.535 44.4062H89.4103ZM183.773 134.918C173.673 134.918 164.98 132.872 157.693 128.781C150.449 124.648 144.867 118.81 140.946 111.267C137.026 103.682 135.066 94.7116 135.066 84.3565C135.066 74.2571 137.026 65.3935 140.946 57.7656C144.867 50.1378 150.385 44.1932 157.502 39.9318C164.661 35.6705 173.056 33.5398 182.686 33.5398C189.164 33.5398 195.193 34.5838 200.776 36.6719C206.401 38.7173 211.301 41.8068 215.477 45.9403C219.696 50.0739 222.977 55.2727 225.321 61.5369C227.665 67.7585 228.837 75.0455 228.837 83.3977V90.8764H145.932V74.0014H203.205C203.205 70.081 202.352 66.608 200.648 63.5824C198.943 60.5568 196.578 58.1918 193.553 56.4872C190.57 54.7401 187.097 53.8665 183.134 53.8665C179 53.8665 175.335 54.8253 172.139 56.7429C168.986 58.6179 166.514 61.1534 164.725 64.3494C162.935 67.5028 162.019 71.0185 161.976 74.8963V90.9403C161.976 95.7983 162.871 99.9957 164.661 103.533C166.493 107.07 169.071 109.797 172.395 111.714C175.719 113.632 179.661 114.591 184.22 114.591C187.246 114.591 190.016 114.165 192.53 113.312C195.044 112.46 197.196 111.182 198.986 109.477C200.776 107.773 202.139 105.685 203.077 103.213L228.262 104.875C226.983 110.926 224.362 116.21 220.399 120.727C216.479 125.202 211.408 128.696 205.186 131.21C199.007 133.682 191.869 134.918 183.773 134.918ZM298.83 34.8182V55.2727H239.703V34.8182H298.83ZM253.127 11.2955H280.357V102.83C280.357 105.344 280.74 107.304 281.507 108.71C282.274 110.074 283.34 111.033 284.703 111.587C286.11 112.141 287.729 112.418 289.561 112.418C290.84 112.418 292.118 112.311 293.396 112.098C294.675 111.842 295.655 111.651 296.337 111.523L300.619 131.786C299.256 132.212 297.338 132.702 294.867 133.256C292.395 133.852 289.391 134.214 285.854 134.342C279.291 134.598 273.539 133.724 268.595 131.722C263.695 129.719 259.881 126.608 257.154 122.389C254.426 118.17 253.084 112.844 253.127 106.409V11.2955ZM386.417 2.09091V133H358.739V2.09091H386.417ZM435.907 76.2386V133H408.677V34.8182H434.629V52.1406H435.779C437.953 46.4304 441.596 41.9133 446.71 38.5895C451.823 35.223 458.024 33.5398 465.311 33.5398C472.129 33.5398 478.073 35.0312 483.144 38.0142C488.215 40.9972 492.157 45.2585 494.97 50.7983C497.782 56.2955 499.188 62.858 499.188 70.4858V133H471.958V75.3438C472.001 69.3352 470.467 64.6477 467.356 61.2812C464.245 57.8722 459.963 56.1676 454.508 56.1676C450.843 56.1676 447.605 56.956 444.792 58.5327C442.022 60.1094 439.849 62.4105 438.272 65.4361C436.738 68.419 435.95 72.0199 435.907 76.2386ZM557.835 24.9105V2.09091H665.35V24.9105H625.271V133H597.914V24.9105H557.835ZM712.667 134.918C702.738 134.918 694.151 132.808 686.907 128.589C679.705 124.328 674.144 118.405 670.224 110.82C666.303 103.192 664.343 94.3494 664.343 84.2926C664.343 74.1506 666.303 65.2869 670.224 57.7017C674.144 50.0739 679.705 44.1506 686.907 39.9318C694.151 35.6705 702.738 33.5398 712.667 33.5398C722.596 33.5398 731.161 35.6705 738.363 39.9318C745.607 44.1506 751.189 50.0739 755.11 57.7017C759.03 65.2869 760.991 74.1506 760.991 84.2926C760.991 94.3494 759.03 103.192 755.11 110.82C751.189 118.405 745.607 124.328 738.363 128.589C731.161 132.808 722.596 134.918 712.667 134.918ZM712.795 113.824C717.312 113.824 721.083 112.545 724.108 109.989C727.134 107.389 729.414 103.852 730.948 99.3778C732.525 94.9034 733.313 89.8111 733.313 84.1009C733.313 78.3906 732.525 73.2983 730.948 68.8239C729.414 64.3494 727.134 60.8125 724.108 58.2131C721.083 55.6136 717.312 54.3139 712.795 54.3139C708.235 54.3139 704.4 55.6136 701.289 58.2131C698.221 60.8125 695.898 64.3494 694.322 68.8239C692.787 73.2983 692.02 78.3906 692.02 84.1009C692.02 89.8111 692.787 94.9034 694.322 99.3778C695.898 103.852 698.221 107.389 701.289 109.989C704.4 112.545 708.235 113.824 712.795 113.824ZM841.658 91.196V34.8182H868.888V133H842.745V115.166H841.722C839.506 120.919 835.82 125.543 830.664 129.037C825.55 132.531 819.307 134.278 811.935 134.278C805.373 134.278 799.599 132.787 794.613 129.804C789.627 126.821 785.728 122.581 782.915 117.084C780.145 111.587 778.739 105.003 778.697 97.3324V34.8182H805.927V92.4744C805.969 98.2699 807.525 102.851 810.593 106.217C813.661 109.584 817.773 111.267 822.93 111.267C826.211 111.267 829.279 110.521 832.134 109.03C834.989 107.496 837.29 105.237 839.037 102.254C840.827 99.2713 841.701 95.5852 841.658 91.196ZM935.03 134.918C924.973 134.918 916.323 132.787 909.078 128.526C901.877 124.222 896.337 118.256 892.459 110.628C888.624 103 886.706 94.2216 886.706 84.2926C886.706 74.2358 888.645 65.4148 892.523 57.8295C896.443 50.2017 902.004 44.2571 909.206 39.9957C916.408 35.6918 924.973 33.5398 934.902 33.5398C943.468 33.5398 950.968 35.0952 957.402 38.206C963.837 41.3168 968.929 45.6847 972.679 51.3097C976.429 56.9347 978.496 63.5398 978.879 71.125H953.183C952.459 66.2244 950.541 62.2827 947.431 59.2997C944.362 56.2741 940.335 54.7614 935.35 54.7614C931.131 54.7614 927.445 55.9119 924.291 58.2131C921.181 60.4716 918.752 63.7741 917.004 68.1207C915.257 72.4673 914.384 77.7301 914.384 83.9091C914.384 90.1733 915.236 95.5 916.941 99.8892C918.688 104.278 921.138 107.624 924.291 109.925C927.445 112.226 931.131 113.376 935.35 113.376C938.46 113.376 941.252 112.737 943.723 111.459C946.237 110.18 948.304 108.327 949.923 105.898C951.585 103.426 952.672 100.464 953.183 97.0128H978.879C978.453 104.513 976.408 111.118 972.743 116.828C969.121 122.496 964.114 126.928 957.722 130.124C951.33 133.32 943.766 134.918 935.03 134.918ZM1023.54 76.2386V133H996.314V2.09091H1022.78V52.1406H1023.93C1026.14 46.3452 1029.72 41.8068 1034.67 38.5256C1039.61 35.2017 1045.81 33.5398 1053.27 33.5398C1060.09 33.5398 1066.03 35.0312 1071.1 38.0142C1076.21 40.9545 1080.18 45.1946 1082.99 50.7344C1085.84 56.2315 1087.25 62.8153 1087.21 70.4858V133H1059.98V75.3438C1060.02 69.2926 1058.49 64.5838 1055.38 61.2173C1052.31 57.8509 1048 56.1676 1042.46 56.1676C1038.76 56.1676 1035.48 56.956 1032.62 58.5327C1029.81 60.1094 1027.59 62.4105 1025.97 65.4361C1024.4 68.419 1023.59 72.0199 1023.54 76.2386Z" fill="#0068FF" fill-opacity="0.58"/>
</svg>
