<svg width="883" height="135" viewBox="0 0 883 135" fill="none" xmlns="http://www.w3.org/2000/svg">
<path opacity="0.3" d="M77.2699 67.5455C77.2699 81.821 74.5639 93.9659 69.152 103.98C63.7827 113.994 56.4531 121.643 47.1634 126.928C37.9162 132.169 27.5185 134.79 15.9702 134.79C4.33665 134.79 -6.10369 132.148 -15.3509 126.864C-24.598 121.58 -31.9062 113.93 -37.2756 103.916C-42.6449 93.902 -45.3295 81.7784 -45.3295 67.5455C-45.3295 53.2699 -42.6449 41.125 -37.2756 31.1108C-31.9062 21.0966 -24.598 13.4687 -15.3509 8.22727C-6.10369 2.94318 4.33665 0.301131 15.9702 0.301131C27.5185 0.301131 37.9162 2.94318 47.1634 8.22727C56.4531 13.4687 63.7827 21.0966 69.152 31.1108C74.5639 41.125 77.2699 53.2699 77.2699 67.5455ZM49.2088 67.5455C49.2088 58.2983 47.8239 50.5 45.054 44.1506C42.3267 37.8011 38.4702 32.9858 33.4844 29.7045C28.4986 26.4233 22.6605 24.7827 15.9702 24.7827C9.27983 24.7827 3.44176 26.4233 -1.54403 29.7045C-6.52983 32.9858 -10.4077 37.8011 -13.1776 44.1506C-15.9048 50.5 -17.2685 58.2983 -17.2685 67.5455C-17.2685 76.7926 -15.9048 84.5909 -13.1776 90.9403C-10.4077 97.2898 -6.52983 102.105 -1.54403 105.386C3.44176 108.668 9.27983 110.308 15.9702 110.308C22.6605 110.308 28.4986 108.668 33.4844 105.386C38.4702 102.105 42.3267 97.2898 45.054 90.9403C47.8239 84.5909 49.2088 76.7926 49.2088 67.5455ZM160.223 91.196V34.8182H187.453V133H161.309V115.166H160.287C158.071 120.919 154.385 125.543 149.228 129.037C144.115 132.531 137.872 134.278 130.5 134.278C123.937 134.278 118.163 132.787 113.177 129.804C108.191 126.821 104.292 122.581 101.48 117.084C98.7099 111.587 97.3036 105.003 97.261 97.3324V34.8182H124.491V92.4744C124.534 98.2699 126.089 102.851 129.157 106.217C132.225 109.584 136.338 111.267 141.494 111.267C144.775 111.267 147.843 110.521 150.699 109.03C153.554 107.496 155.855 105.237 157.602 102.254C159.392 99.2713 160.265 95.5852 160.223 91.196ZM209.234 133V34.8182H235.633V51.9489H236.656C238.445 45.8551 241.45 41.2528 245.668 38.142C249.887 34.9886 254.745 33.4119 260.242 33.4119C261.606 33.4119 263.076 33.4972 264.653 33.6676C266.229 33.8381 267.614 34.0724 268.808 34.3707V58.5327C267.529 58.1491 265.761 57.8082 263.502 57.5099C261.244 57.2116 259.177 57.0625 257.302 57.0625C253.296 57.0625 249.717 57.9361 246.563 59.6832C243.452 61.3878 240.981 63.7741 239.148 66.8423C237.359 69.9105 236.464 73.4474 236.464 77.4531V133H209.234ZM325.058 133V2.09091H376.705C386.634 2.09091 395.093 3.98721 402.082 7.77983C409.07 11.5298 414.397 16.75 418.062 23.4403C421.769 30.0881 423.623 37.7585 423.623 46.4517C423.623 55.1449 421.748 62.8153 417.998 69.4631C414.248 76.1108 408.815 81.2883 401.698 84.9957C394.624 88.7031 386.059 90.5568 376.002 90.5568H343.083V68.3764H371.528C376.854 68.3764 381.244 67.4602 384.695 65.6278C388.19 63.7528 390.789 61.1747 392.494 57.8935C394.241 54.5696 395.114 50.7557 395.114 46.4517C395.114 42.1051 394.241 38.3125 392.494 35.0739C390.789 31.7926 388.19 29.2571 384.695 27.4673C381.201 25.6349 376.769 24.7188 371.4 24.7188H352.735V133H325.058ZM466.45 134.854C460.185 134.854 454.603 133.767 449.702 131.594C444.802 129.378 440.924 126.118 438.069 121.814C435.256 117.467 433.85 112.055 433.85 105.578C433.85 100.124 434.852 95.5426 436.854 91.8352C438.857 88.1278 441.585 85.1449 445.036 82.8864C448.488 80.6278 452.408 78.9233 456.798 77.7727C461.229 76.6222 465.874 75.8125 470.732 75.3438C476.442 74.7472 481.045 74.1932 484.539 73.6818C488.033 73.1278 490.569 72.3182 492.146 71.2528C493.722 70.1875 494.511 68.6108 494.511 66.5227V66.1392C494.511 62.0909 493.232 58.9588 490.675 56.7429C488.161 54.527 484.582 53.419 479.937 53.419C475.036 53.419 471.137 54.5057 468.239 56.679C465.342 58.8097 463.424 61.4943 462.487 64.733L437.302 62.6875C438.58 56.7216 441.094 51.5653 444.844 47.2188C448.594 42.8295 453.431 39.4631 459.354 37.1193C465.32 34.733 472.224 33.5398 480.065 33.5398C485.519 33.5398 490.739 34.179 495.725 35.4574C500.754 36.7358 505.207 38.7173 509.085 41.402C513.005 44.0866 516.094 47.5384 518.353 51.7571C520.612 55.9332 521.741 60.9403 521.741 66.7784V133H495.917V119.385H495.15C493.573 122.453 491.464 125.159 488.822 127.503C486.18 129.804 483.005 131.615 479.298 132.936C475.59 134.214 471.308 134.854 466.45 134.854ZM474.248 116.061C478.254 116.061 481.79 115.273 484.859 113.696C487.927 112.077 490.335 109.903 492.082 107.176C493.829 104.449 494.702 101.359 494.702 97.9077V87.4886C493.85 88.0426 492.678 88.554 491.187 89.0227C489.738 89.4489 488.097 89.8537 486.265 90.2372C484.433 90.5781 482.6 90.8977 480.768 91.196C478.935 91.4517 477.273 91.6861 475.782 91.8991C472.586 92.3679 469.795 93.1136 467.408 94.1364C465.022 95.1591 463.168 96.544 461.847 98.2912C460.526 99.9957 459.866 102.126 459.866 104.683C459.866 108.391 461.208 111.224 463.893 113.185C466.62 115.102 470.072 116.061 474.248 116.061ZM595.089 34.8182V55.2727H535.963V34.8182H595.089ZM549.386 11.2955H576.616V102.83C576.616 105.344 577 107.304 577.767 108.71C578.534 110.074 579.599 111.033 580.963 111.587C582.369 112.141 583.989 112.418 585.821 112.418C587.099 112.418 588.378 112.311 589.656 112.098C590.935 111.842 591.915 111.651 592.597 111.523L596.879 131.786C595.516 132.212 593.598 132.702 591.126 133.256C588.655 133.852 585.651 134.214 582.114 134.342C575.551 134.598 569.798 133.724 564.855 131.722C559.955 129.719 556.141 126.608 553.413 122.389C550.686 118.17 549.344 112.844 549.386 106.409V11.2955ZM612.827 133V34.8182H639.227V51.9489H640.249C642.039 45.8551 645.043 41.2528 649.262 38.142C653.481 34.9886 658.339 33.4119 663.836 33.4119C665.2 33.4119 666.67 33.4972 668.246 33.6676C669.823 33.8381 671.208 34.0724 672.401 34.3707V58.5327C671.123 58.1491 669.354 57.8082 667.096 57.5099C664.837 57.2116 662.771 57.0625 660.896 57.0625C656.89 57.0625 653.31 57.9361 650.157 59.6832C647.046 61.3878 644.575 63.7741 642.742 66.8423C640.952 69.9105 640.058 73.4474 640.058 77.4531V133H612.827ZM726.27 134.918C716.341 134.918 707.755 132.808 700.51 128.589C693.309 124.328 687.748 118.405 683.827 110.82C679.907 103.192 677.946 94.3494 677.946 84.2926C677.946 74.1506 679.907 65.2869 683.827 57.7017C687.748 50.0739 693.309 44.1506 700.51 39.9318C707.755 35.6705 716.341 33.5398 726.27 33.5398C736.199 33.5398 744.765 35.6705 751.966 39.9318C759.211 44.1506 764.793 50.0739 768.713 57.7017C772.634 65.2869 774.594 74.1506 774.594 84.2926C774.594 94.3494 772.634 103.192 768.713 110.82C764.793 118.405 759.211 124.328 751.966 128.589C744.765 132.808 736.199 134.918 726.27 134.918ZM726.398 113.824C730.915 113.824 734.686 112.545 737.712 109.989C740.738 107.389 743.017 103.852 744.551 99.3778C746.128 94.9034 746.917 89.8111 746.917 84.1009C746.917 78.3906 746.128 73.2983 744.551 68.8239C743.017 64.3494 740.738 60.8125 737.712 58.2131C734.686 55.6136 730.915 54.3139 726.398 54.3139C721.838 54.3139 718.003 55.6136 714.892 58.2131C711.824 60.8125 709.502 64.3494 707.925 68.8239C706.391 73.2983 705.624 78.3906 705.624 84.1009C705.624 89.8111 706.391 94.9034 707.925 99.3778C709.502 103.852 711.824 107.389 714.892 109.989C718.003 112.545 721.838 113.824 726.398 113.824ZM819.53 76.2386V133H792.3V34.8182H818.252V52.1406H819.402C821.576 46.4304 825.219 41.9133 830.333 38.5895C835.446 35.223 841.647 33.5398 848.934 33.5398C855.752 33.5398 861.696 35.0312 866.767 38.0142C871.838 40.9972 875.78 45.2585 878.593 50.7983C881.405 56.2955 882.811 62.858 882.811 70.4858V133H855.581V75.3438C855.624 69.3352 854.09 64.6477 850.979 61.2812C847.868 57.8722 843.586 56.1676 838.131 56.1676C834.466 56.1676 831.228 56.956 828.415 58.5327C825.645 60.1094 823.472 62.4105 821.895 65.4361C820.361 68.419 819.573 72.0199 819.53 76.2386Z" fill="#0068FF" fill-opacity="0.58"/>
</svg>
