<svg width="674" height="175" viewBox="0 0 674 175" fill="none" xmlns="http://www.w3.org/2000/svg">
<path opacity="0.3" d="M28.3143 100.67C23.158 100.67 18.4492 99.4134 14.1879 96.8991C9.92649 94.3423 6.5174 90.9332 3.96058 86.6719C1.44638 82.4105 0.189275 77.7017 0.189275 72.5455C0.189275 67.3466 1.44638 62.6378 3.96058 58.419C6.5174 54.1577 9.92649 50.7699 14.1879 48.2557C18.4492 45.6989 23.158 44.4205 28.3143 44.4205C33.5131 44.4205 38.2219 45.6989 42.4407 48.2557C46.7021 50.7699 50.0898 54.1577 52.6041 58.419C55.1609 62.6378 56.4393 67.3466 56.4393 72.5455C56.4393 77.7017 55.1609 82.4105 52.6041 86.6719C50.0898 90.9332 46.7021 94.3423 42.4407 96.8991C38.2219 99.4134 33.5131 100.67 28.3143 100.67ZM194.124 44.7401C193.613 39.5838 191.418 35.5781 187.54 32.723C183.662 29.8679 178.4 28.4403 171.752 28.4403C167.235 28.4403 163.421 29.0795 160.31 30.358C157.199 31.5938 154.813 33.3196 153.151 35.5355C151.532 37.7514 150.722 40.2656 150.722 43.0781C150.637 45.4219 151.127 47.4673 152.192 49.2145C153.3 50.9616 154.813 52.4744 156.73 53.7528C158.648 54.9886 160.864 56.0753 163.378 57.0128C165.892 57.9077 168.577 58.6747 171.432 59.3139L183.194 62.1264C188.904 63.4048 194.145 65.1094 198.918 67.2401C203.691 69.3707 207.824 71.9915 211.319 75.1023C214.813 78.2131 217.519 81.8778 219.436 86.0966C221.397 90.3153 222.398 95.152 222.441 100.607C222.398 108.618 220.353 115.564 216.304 121.445C212.299 127.283 206.503 131.821 198.918 135.06C191.375 138.256 182.277 139.854 171.624 139.854C161.056 139.854 151.851 138.234 144.01 134.996C136.212 131.757 130.118 126.963 125.729 120.614C121.382 114.222 119.103 106.317 118.89 96.8991H145.672C145.971 101.288 147.228 104.953 149.444 107.893C151.702 110.791 154.706 112.986 158.456 114.477C162.249 115.926 166.532 116.651 171.304 116.651C175.992 116.651 180.061 115.969 183.513 114.605C187.007 113.241 189.713 111.345 191.631 108.916C193.549 106.487 194.507 103.696 194.507 100.543C194.507 97.6023 193.634 95.1307 191.887 93.1278C190.182 91.125 187.668 89.4205 184.344 88.0142C181.063 86.608 177.036 85.3295 172.263 84.179L158.009 80.5994C146.972 77.9148 138.257 73.7173 131.865 68.0071C125.473 62.2969 122.299 54.6051 122.341 44.9318C122.299 37.0057 124.408 30.081 128.669 24.1577C132.973 18.2344 138.875 13.6108 146.375 10.2869C153.875 6.96306 162.398 5.30113 171.944 5.30113C181.659 5.30113 190.14 6.96306 197.384 10.2869C204.671 13.6108 210.338 18.2344 214.387 24.1577C218.435 30.081 220.523 36.9418 220.651 44.7401H194.124ZM268.543 139.854C262.279 139.854 256.697 138.767 251.796 136.594C246.896 134.378 243.018 131.118 240.163 126.814C237.35 122.467 235.944 117.055 235.944 110.578C235.944 105.124 236.945 100.543 238.948 96.8352C240.951 93.1278 243.678 90.1449 247.13 87.8864C250.582 85.6278 254.502 83.9233 258.891 82.7727C263.323 81.6222 267.968 80.8125 272.826 80.3438C278.536 79.7472 283.138 79.1932 286.633 78.6818C290.127 78.1278 292.663 77.3182 294.239 76.2528C295.816 75.1875 296.604 73.6108 296.604 71.5227V71.1392C296.604 67.0909 295.326 63.9588 292.769 61.7429C290.255 59.527 286.675 58.419 282.031 58.419C277.13 58.419 273.231 59.5057 270.333 61.679C267.435 63.8097 265.518 66.4943 264.58 69.733L239.396 67.6875C240.674 61.7216 243.188 56.5653 246.938 52.2188C250.688 47.8295 255.525 44.4631 261.448 42.1193C267.414 39.733 274.317 38.5398 282.158 38.5398C287.613 38.5398 292.833 39.179 297.819 40.4574C302.847 41.7358 307.3 43.7173 311.178 46.402C315.099 49.0866 318.188 52.5384 320.447 56.7571C322.705 60.9332 323.835 65.9403 323.835 71.7784V138H298.011V124.385H297.244C295.667 127.453 293.558 130.159 290.915 132.503C288.273 134.804 285.099 136.615 281.391 137.936C277.684 139.214 273.401 139.854 268.543 139.854ZM276.342 121.061C280.347 121.061 283.884 120.273 286.952 118.696C290.021 117.077 292.428 114.903 294.175 112.176C295.923 109.449 296.796 106.359 296.796 102.908V92.4886C295.944 93.0426 294.772 93.554 293.281 94.0227C291.832 94.4489 290.191 94.8537 288.359 95.2372C286.526 95.5781 284.694 95.8977 282.862 96.196C281.029 96.4517 279.367 96.6861 277.876 96.8991C274.68 97.3679 271.888 98.1136 269.502 99.1364C267.116 100.159 265.262 101.544 263.941 103.291C262.62 104.996 261.96 107.126 261.96 109.683C261.96 113.391 263.302 116.224 265.987 118.185C268.714 120.102 272.165 121.061 276.342 121.061ZM397.759 39.8182V60.2727H337.162V39.8182H397.759ZM351.033 138V32.723C351.033 25.6065 352.418 19.7045 355.188 15.017C358 10.3295 361.835 6.81391 366.693 4.47016C371.551 2.12641 377.07 0.954537 383.249 0.954537C387.425 0.954537 391.239 1.27414 394.69 1.91335C398.185 2.55255 400.784 3.12784 402.489 3.6392L397.631 24.0938C396.565 23.7528 395.244 23.4332 393.668 23.1349C392.134 22.8366 390.557 22.6875 388.938 22.6875C384.932 22.6875 382.141 23.625 380.564 25.5C378.987 27.3324 378.199 29.9105 378.199 33.2344V138H351.033ZM455.623 139.918C445.523 139.918 436.83 137.872 429.543 133.781C422.299 129.648 416.716 123.81 412.796 116.267C408.875 108.682 406.915 99.7116 406.915 89.3565C406.915 79.2571 408.875 70.3935 412.796 62.7656C416.716 55.1378 422.235 49.1932 429.351 44.9318C436.51 40.6705 444.905 38.5398 454.536 38.5398C461.013 38.5398 467.043 39.5838 472.625 41.6719C478.25 43.7173 483.151 46.8068 487.327 50.9403C491.546 55.0739 494.827 60.2727 497.171 66.5369C499.515 72.7585 500.686 80.0455 500.686 88.3977V95.8764H417.782V79.0014H475.054C475.054 75.081 474.202 71.608 472.498 68.5824C470.793 65.5568 468.428 63.1918 465.402 61.4872C462.419 59.7401 458.946 58.8665 454.983 58.8665C450.85 58.8665 447.185 59.8253 443.989 61.7429C440.836 63.6179 438.364 66.1534 436.574 69.3494C434.784 72.5028 433.868 76.0185 433.826 79.8963V95.9403C433.826 100.798 434.721 104.996 436.51 108.533C438.343 112.07 440.921 114.797 444.245 116.714C447.569 118.632 451.51 119.591 456.07 119.591C459.096 119.591 461.865 119.165 464.38 118.312C466.894 117.46 469.046 116.182 470.836 114.477C472.625 112.773 473.989 110.685 474.926 108.213L500.111 109.875C498.833 115.926 496.212 121.21 492.249 125.727C488.328 130.202 483.257 133.696 477.036 136.21C470.857 138.682 463.719 139.918 455.623 139.918ZM570.679 39.8182V60.2727H511.553V39.8182H570.679ZM524.976 16.2955H552.206V107.83C552.206 110.344 552.59 112.304 553.357 113.71C554.124 115.074 555.189 116.033 556.553 116.587C557.959 117.141 559.578 117.418 561.411 117.418C562.689 117.418 563.968 117.311 565.246 117.098C566.525 116.842 567.505 116.651 568.186 116.523L572.469 136.786C571.105 137.212 569.188 137.702 566.716 138.256C564.245 138.852 561.24 139.214 557.703 139.342C551.141 139.598 545.388 138.724 540.445 136.722C535.544 134.719 531.73 131.608 529.003 127.389C526.276 123.17 524.934 117.844 524.976 111.409V16.2955ZM605.228 174.818C601.777 174.818 598.538 174.541 595.512 173.987C592.529 173.476 590.058 172.815 588.098 172.006L594.234 151.679C597.43 152.659 600.306 153.192 602.863 153.277C605.463 153.362 607.7 152.766 609.575 151.487C611.493 150.209 613.048 148.036 614.241 144.967L615.839 140.812L580.619 39.8182H609.255L629.582 111.92H630.605L651.123 39.8182H679.951L641.791 148.611C639.958 153.895 637.466 158.497 634.312 162.418C631.201 166.381 627.26 169.428 622.487 171.558C617.714 173.732 611.961 174.818 605.228 174.818ZM736.058 138V7.09091H822.734V29.9105H763.735V61.1037H816.981V83.9233H763.735V138H736.058ZM878.376 139.918C868.277 139.918 859.584 137.872 852.297 133.781C845.053 129.648 839.47 123.81 835.55 116.267C831.629 108.682 829.669 99.7116 829.669 89.3565C829.669 79.2571 831.629 70.3935 835.55 62.7656C839.47 55.1378 844.989 49.1932 852.105 44.9318C859.264 40.6705 867.659 38.5398 877.29 38.5398C883.767 38.5398 889.797 39.5838 895.379 41.6719C901.004 43.7173 905.905 46.8068 910.081 50.9403C914.3 55.0739 917.581 60.2727 919.925 66.5369C922.268 72.7585 923.44 80.0455 923.44 88.3977V95.8764H840.536V79.0014H897.808C897.808 75.081 896.956 71.608 895.251 68.5824C893.547 65.5568 891.182 63.1918 888.156 61.4872C885.173 59.7401 881.7 58.8665 877.737 58.8665C873.604 58.8665 869.939 59.8253 866.743 61.7429C863.589 63.6179 861.118 66.1534 859.328 69.3494C857.538 72.5028 856.622 76.0185 856.58 79.8963V95.9403C856.58 100.798 857.474 104.996 859.264 108.533C861.097 112.07 863.675 114.797 866.999 116.714C870.322 118.632 874.264 119.591 878.824 119.591C881.849 119.591 884.619 119.165 887.134 118.312C889.648 117.46 891.8 116.182 893.589 114.477C895.379 112.773 896.743 110.685 897.68 108.213L922.865 109.875C921.587 115.926 918.966 121.21 915.003 125.727C911.082 130.202 906.011 133.696 899.79 136.21C893.611 138.682 886.473 139.918 878.376 139.918ZM969.207 139.854C962.943 139.854 957.361 138.767 952.46 136.594C947.56 134.378 943.682 131.118 940.827 126.814C938.014 122.467 936.608 117.055 936.608 110.578C936.608 105.124 937.609 100.543 939.612 96.8352C941.615 93.1278 944.342 90.1449 947.794 87.8864C951.246 85.6278 955.166 83.9233 959.555 82.7727C963.987 81.6222 968.632 80.8125 973.49 80.3438C979.2 79.7472 983.803 79.1932 987.297 78.6818C990.791 78.1278 993.327 77.3182 994.903 76.2528C996.48 75.1875 997.268 73.6108 997.268 71.5227V71.1392C997.268 67.0909 995.99 63.9588 993.433 61.7429C990.919 59.527 987.339 58.419 982.695 58.419C977.794 58.419 973.895 59.5057 970.997 61.679C968.099 63.8097 966.182 66.4943 965.244 69.733L940.06 67.6875C941.338 61.7216 943.852 56.5653 947.602 52.2188C951.352 47.8295 956.189 44.4631 962.112 42.1193C968.078 39.733 974.982 38.5398 982.822 38.5398C988.277 38.5398 993.497 39.179 998.483 40.4574C1003.51 41.7358 1007.96 43.7173 1011.84 46.402C1015.76 49.0866 1018.85 52.5384 1021.11 56.7571C1023.37 60.9332 1024.5 65.9403 1024.5 71.7784V138H998.675V124.385H997.908C996.331 127.453 994.222 130.159 991.58 132.503C988.938 134.804 985.763 136.615 982.055 137.936C978.348 139.214 974.065 139.854 969.207 139.854ZM977.006 121.061C981.011 121.061 984.548 120.273 987.616 118.696C990.685 117.077 993.092 114.903 994.839 112.176C996.587 109.449 997.46 106.359 997.46 102.908V92.4886C996.608 93.0426 995.436 93.554 993.945 94.0227C992.496 94.4489 990.855 94.8537 989.023 95.2372C987.19 95.5781 985.358 95.8977 983.526 96.196C981.693 96.4517 980.031 96.6861 978.54 96.8991C975.344 97.3679 972.553 98.1136 970.166 99.1364C967.78 100.159 965.926 101.544 964.605 103.291C963.284 104.996 962.624 107.126 962.624 109.683C962.624 113.391 963.966 116.224 966.651 118.185C969.378 120.102 972.83 121.061 977.006 121.061ZM1097.85 39.8182V60.2727H1038.72V39.8182H1097.85ZM1052.14 16.2955H1079.37V107.83C1079.37 110.344 1079.76 112.304 1080.52 113.71C1081.29 115.074 1082.36 116.033 1083.72 116.587C1085.13 117.141 1086.75 117.418 1088.58 117.418C1089.86 117.418 1091.14 117.311 1092.41 117.098C1093.69 116.842 1094.67 116.651 1095.35 116.523L1099.64 136.786C1098.27 137.212 1096.36 137.702 1093.88 138.256C1091.41 138.852 1088.41 139.214 1084.87 139.342C1078.31 139.598 1072.56 138.724 1067.61 136.722C1062.71 134.719 1058.9 131.608 1056.17 127.389C1053.44 123.17 1052.1 117.844 1052.14 111.409V16.2955ZM1178.55 96.196V39.8182H1205.78V138H1179.63V120.166H1178.61C1176.39 125.919 1172.71 130.543 1167.55 134.037C1162.44 137.531 1156.2 139.278 1148.82 139.278C1142.26 139.278 1136.49 137.787 1131.5 134.804C1126.52 131.821 1122.62 127.581 1119.8 122.084C1117.03 116.587 1115.63 110.003 1115.59 102.332V39.8182H1142.82V97.4744C1142.86 103.27 1144.41 107.851 1147.48 111.217C1150.55 114.584 1154.66 116.267 1159.82 116.267C1163.1 116.267 1166.17 115.521 1169.02 114.03C1171.88 112.496 1174.18 110.237 1175.93 107.254C1177.72 104.271 1178.59 100.585 1178.55 96.196ZM1227.56 138V39.8182H1253.96V56.9489H1254.98C1256.77 50.8551 1259.77 46.2528 1263.99 43.142C1268.21 39.9886 1273.07 38.4119 1278.57 38.4119C1279.93 38.4119 1281.4 38.4972 1282.98 38.6676C1284.55 38.8381 1285.94 39.0724 1287.13 39.3707V63.5327C1285.85 63.1491 1284.08 62.8082 1281.83 62.5099C1279.57 62.2116 1277.5 62.0625 1275.63 62.0625C1271.62 62.0625 1268.04 62.9361 1264.89 64.6832C1261.78 66.3878 1259.31 68.7741 1257.47 71.8423C1255.68 74.9105 1254.79 78.4474 1254.79 82.4531V138H1227.56ZM1341.38 139.918C1331.28 139.918 1322.59 137.872 1315.3 133.781C1308.06 129.648 1302.48 123.81 1298.56 116.267C1294.64 108.682 1292.68 99.7116 1292.68 89.3565C1292.68 79.2571 1294.64 70.3935 1298.56 62.7656C1302.48 55.1378 1308 49.1932 1315.11 44.9318C1322.27 40.6705 1330.67 38.5398 1340.3 38.5398C1346.77 38.5398 1352.8 39.5838 1358.39 41.6719C1364.01 43.7173 1368.91 46.8068 1373.09 50.9403C1377.31 55.0739 1380.59 60.2727 1382.93 66.5369C1385.28 72.7585 1386.45 80.0455 1386.45 88.3977V95.8764H1303.54V79.0014H1360.82C1360.82 75.081 1359.96 71.608 1358.26 68.5824C1356.55 65.5568 1354.19 63.1918 1351.16 61.4872C1348.18 59.7401 1344.71 58.8665 1340.75 58.8665C1336.61 58.8665 1332.95 59.8253 1329.75 61.7429C1326.6 63.6179 1324.13 66.1534 1322.34 69.3494C1320.55 72.5028 1319.63 76.0185 1319.59 79.8963V95.9403C1319.59 100.798 1320.48 104.996 1322.27 108.533C1324.1 112.07 1326.68 114.797 1330.01 116.714C1333.33 118.632 1337.27 119.591 1341.83 119.591C1344.86 119.591 1347.63 119.165 1350.14 118.312C1352.66 117.46 1354.81 116.182 1356.6 114.477C1358.39 112.773 1359.75 110.685 1360.69 108.213L1385.87 109.875C1384.59 115.926 1381.97 121.21 1378.01 125.727C1374.09 130.202 1369.02 133.696 1362.8 136.21C1356.62 138.682 1349.48 139.918 1341.38 139.918ZM1485.91 67.8153L1460.98 69.3494C1460.55 67.2187 1459.64 65.3011 1458.23 63.5966C1456.82 61.8494 1454.97 60.4645 1452.67 59.4418C1450.41 58.3764 1447.71 57.8438 1444.55 57.8438C1440.33 57.8438 1436.77 58.7386 1433.88 60.5284C1430.98 62.2756 1429.53 64.6193 1429.53 67.5597C1429.53 69.9034 1430.47 71.8849 1432.34 73.5043C1434.22 75.1236 1437.44 76.4233 1442 77.4034L1459.76 80.983C1469.31 82.9432 1476.43 86.0966 1481.11 90.4432C1485.8 94.7898 1488.15 100.5 1488.15 107.574C1488.15 114.009 1486.25 119.655 1482.46 124.513C1478.71 129.371 1473.55 133.163 1466.99 135.891C1460.47 138.575 1452.95 139.918 1444.42 139.918C1431.43 139.918 1421.07 137.212 1413.36 131.8C1405.69 126.345 1401.19 118.93 1399.87 109.555L1426.65 108.149C1427.46 112.112 1429.42 115.138 1432.53 117.226C1435.65 119.271 1439.63 120.294 1444.49 120.294C1449.26 120.294 1453.1 119.378 1455.99 117.545C1458.93 115.67 1460.43 113.263 1460.47 110.322C1460.43 107.851 1459.38 105.827 1457.34 104.25C1455.29 102.631 1452.14 101.395 1447.88 100.543L1430.87 97.1548C1421.28 95.2372 1414.15 91.9134 1409.46 87.1832C1404.81 82.4531 1402.49 76.4233 1402.49 69.0938C1402.49 62.7869 1404.2 57.3537 1407.61 52.794C1411.06 48.2344 1415.89 44.7188 1422.12 42.2472C1428.38 39.7756 1435.71 38.5398 1444.1 38.5398C1456.5 38.5398 1466.26 41.1605 1473.38 46.402C1480.54 51.6435 1484.72 58.7812 1485.91 67.8153Z" fill="#0068FF" fill-opacity="0.58"/>
</svg>
