<svg width="579" height="133" viewBox="0 0 579 133" fill="none" xmlns="http://www.w3.org/2000/svg">
<path opacity="0.3" d="M30.8253 0.0909052L62.4659 99.5511H63.6804L95.3849 0.0909052H126.067L80.9389 131H45.2713L0.0795457 0.0909052H30.8253ZM158.411 132.854C152.146 132.854 146.564 131.767 141.663 129.594C136.763 127.378 132.885 124.118 130.03 119.814C127.217 115.467 125.811 110.055 125.811 103.578C125.811 98.1236 126.813 93.5426 128.815 89.8352C130.818 86.1278 133.545 83.1449 136.997 80.8864C140.449 78.6278 144.369 76.9233 148.759 75.7727C153.19 74.6222 157.835 73.8125 162.693 73.3438C168.403 72.7472 173.006 72.1932 176.5 71.6818C179.994 71.1278 182.53 70.3182 184.107 69.2528C185.683 68.1875 186.472 66.6108 186.472 64.5227V64.1392C186.472 60.0909 185.193 56.9588 182.636 54.7429C180.122 52.527 176.543 51.419 171.898 51.419C166.997 51.419 163.098 52.5057 160.2 54.679C157.303 56.8097 155.385 59.4943 154.447 62.733L129.263 60.6875C130.541 54.7216 133.055 49.5653 136.805 45.2188C140.555 40.8295 145.392 37.4631 151.315 35.1193C157.281 32.733 164.185 31.5398 172.026 31.5398C177.48 31.5398 182.7 32.179 187.686 33.4574C192.714 34.7358 197.168 36.7173 201.045 39.402C204.966 42.0866 208.055 45.5384 210.314 49.7571C212.572 53.9332 213.702 58.9403 213.702 64.7784V131H187.878V117.385H187.111C185.534 120.453 183.425 123.159 180.783 125.503C178.141 127.804 174.966 129.615 171.259 130.936C167.551 132.214 163.268 132.854 158.411 132.854ZM166.209 114.061C170.214 114.061 173.751 113.273 176.82 111.696C179.888 110.077 182.295 107.903 184.043 105.176C185.79 102.449 186.663 99.3594 186.663 95.9077V85.4886C185.811 86.0426 184.639 86.554 183.148 87.0227C181.699 87.4489 180.058 87.8537 178.226 88.2372C176.393 88.5781 174.561 88.8977 172.729 89.196C170.896 89.4517 169.234 89.6861 167.743 89.8991C164.547 90.3679 161.756 91.1136 159.369 92.1364C156.983 93.1591 155.129 94.544 153.808 96.2912C152.487 97.9957 151.827 100.126 151.827 102.683C151.827 106.391 153.169 109.224 155.854 111.185C158.581 113.102 162.033 114.061 166.209 114.061ZM262.058 0.0909052V131H234.827V0.0909052H262.058ZM346.832 89.196V32.8182H374.062V131H347.919V113.166H346.896C344.68 118.919 340.994 123.543 335.838 127.037C330.724 130.531 324.481 132.278 317.109 132.278C310.547 132.278 304.772 130.787 299.787 127.804C294.801 124.821 290.902 120.581 288.089 115.084C285.319 109.587 283.913 103.003 283.87 95.3324V32.8182H311.1V90.4744C311.143 96.2699 312.699 100.851 315.767 104.217C318.835 107.584 322.947 109.267 328.103 109.267C331.385 109.267 334.453 108.521 337.308 107.03C340.163 105.496 342.464 103.237 344.211 100.254C346.001 97.2713 346.875 93.5852 346.832 89.196ZM440.587 132.918C430.488 132.918 421.795 130.872 414.508 126.781C407.263 122.648 401.681 116.81 397.761 109.267C393.84 101.682 391.88 92.7116 391.88 82.3565C391.88 72.2571 393.84 63.3935 397.761 55.7656C401.681 48.1378 407.2 42.1932 414.316 37.9318C421.475 33.6705 429.87 31.5398 439.501 31.5398C445.978 31.5398 452.008 32.5838 457.59 34.6719C463.215 36.7173 468.116 39.8068 472.292 43.9403C476.511 48.0739 479.792 53.2727 482.136 59.5369C484.479 65.7585 485.651 73.0455 485.651 81.3977V88.8764H402.746V72.0014H460.019C460.019 68.081 459.167 64.608 457.462 61.5824C455.758 58.5568 453.393 56.1918 450.367 54.4872C447.384 52.7401 443.911 51.8665 439.948 51.8665C435.815 51.8665 432.15 52.8253 428.954 54.7429C425.8 56.6179 423.329 59.1534 421.539 62.3494C419.749 65.5028 418.833 69.0185 418.79 72.8963V88.9403C418.79 93.7983 419.685 97.9957 421.475 101.533C423.308 105.07 425.886 107.797 429.21 109.714C432.533 111.632 436.475 112.591 441.035 112.591C444.06 112.591 446.83 112.165 449.344 111.312C451.859 110.46 454.011 109.182 455.8 107.477C457.59 105.773 458.954 103.685 459.891 101.213L485.076 102.875C483.798 108.926 481.177 114.21 477.214 118.727C473.293 123.202 468.222 126.696 462.001 129.21C455.822 131.682 448.684 132.918 440.587 132.918ZM575.955 93.6705C570.799 93.6705 566.09 92.4134 561.828 89.8991C557.567 87.3423 554.158 83.9332 551.601 79.6719C549.087 75.4105 547.83 70.7017 547.83 65.5455C547.83 60.3466 549.087 55.6378 551.601 51.419C554.158 47.1577 557.567 43.7699 561.828 41.2557C566.09 38.6989 570.799 37.4205 575.955 37.4205C581.154 37.4205 585.863 38.6989 590.081 41.2557C594.343 43.7699 597.73 47.1577 600.245 51.419C602.801 55.6378 604.08 60.3466 604.08 65.5455C604.08 70.7017 602.801 75.4105 600.245 79.6719C597.73 83.9332 594.343 87.3423 590.081 89.8991C585.863 92.4134 581.154 93.6705 575.955 93.6705ZM694.4 0.0909052L726.04 99.5511H727.255L758.959 0.0909052H789.641L744.513 131H708.846L663.654 0.0909052H694.4ZM821.985 132.854C815.721 132.854 810.138 131.767 805.238 129.594C800.337 127.378 796.459 124.118 793.604 119.814C790.792 115.467 789.385 110.055 789.385 103.578C789.385 98.1236 790.387 93.5426 792.39 89.8352C794.392 86.1278 797.12 83.1449 800.571 80.8864C804.023 78.6278 807.944 76.9233 812.333 75.7727C816.765 74.6222 821.409 73.8125 826.267 73.3438C831.978 72.7472 836.58 72.1932 840.074 71.6818C843.569 71.1278 846.104 70.3182 847.681 69.2528C849.257 68.1875 850.046 66.6108 850.046 64.5227V64.1392C850.046 60.0909 848.767 56.9588 846.211 54.7429C843.696 52.527 840.117 51.419 835.472 51.419C830.571 51.419 826.672 52.5057 823.775 54.679C820.877 56.8097 818.959 59.4943 818.022 62.733L792.837 60.6875C794.115 54.7216 796.63 49.5653 800.38 45.2188C804.13 40.8295 808.966 37.4631 814.89 35.1193C820.855 32.733 827.759 31.5398 835.6 31.5398C841.054 31.5398 846.275 32.179 851.26 33.4574C856.289 34.7358 860.742 36.7173 864.62 39.402C868.54 42.0866 871.63 45.5384 873.888 49.7571C876.147 53.9332 877.276 58.9403 877.276 64.7784V131H851.452V117.385H850.685C849.108 120.453 846.999 123.159 844.357 125.503C841.715 127.804 838.54 129.615 834.833 130.936C831.125 132.214 826.843 132.854 821.985 132.854ZM829.783 114.061C833.789 114.061 837.326 113.273 840.394 111.696C843.462 110.077 845.87 107.903 847.617 105.176C849.364 102.449 850.238 99.3594 850.238 95.9077V85.4886C849.385 86.0426 848.213 86.554 846.722 87.0227C845.273 87.4489 843.632 87.8537 841.8 88.2372C839.968 88.5781 838.135 88.8977 836.303 89.196C834.471 89.4517 832.809 89.6861 831.317 89.8991C828.121 90.3679 825.33 91.1136 822.944 92.1364C820.557 93.1591 818.703 94.544 817.382 96.2912C816.061 97.9957 815.401 100.126 815.401 102.683C815.401 106.391 816.743 109.224 819.428 111.185C822.155 113.102 825.607 114.061 829.783 114.061ZM925.632 0.0909052V131H898.402V0.0909052H925.632ZM1010.41 89.196V32.8182H1037.64V131H1011.49V113.166H1010.47C1008.25 118.919 1004.57 123.543 999.412 127.037C994.298 130.531 988.055 132.278 980.683 132.278C974.121 132.278 968.347 130.787 963.361 127.804C958.375 124.821 954.476 120.581 951.663 115.084C948.893 109.587 947.487 103.003 947.445 95.3324V32.8182H974.675V90.4744C974.717 96.2699 976.273 100.851 979.341 104.217C982.409 107.584 986.521 109.267 991.678 109.267C994.959 109.267 998.027 108.521 1000.88 107.03C1003.74 105.496 1006.04 103.237 1007.79 100.254C1009.58 97.2713 1010.45 93.5852 1010.41 89.196ZM1104.16 132.918C1094.06 132.918 1085.37 130.872 1078.08 126.781C1070.84 122.648 1065.26 116.81 1061.33 109.267C1057.41 101.682 1055.45 92.7116 1055.45 82.3565C1055.45 72.2571 1057.41 63.3935 1061.33 55.7656C1065.26 48.1378 1070.77 42.1932 1077.89 37.9318C1085.05 33.6705 1093.44 31.5398 1103.07 31.5398C1109.55 31.5398 1115.58 32.5838 1121.16 34.6719C1126.79 36.7173 1131.69 39.8068 1135.87 43.9403C1140.08 48.0739 1143.37 53.2727 1145.71 59.5369C1148.05 65.7585 1149.23 73.0455 1149.23 81.3977V88.8764H1066.32V72.0014H1123.59C1123.59 68.081 1122.74 64.608 1121.04 61.5824C1119.33 58.5568 1116.97 56.1918 1113.94 54.4872C1110.96 52.7401 1107.49 51.8665 1103.52 51.8665C1099.39 51.8665 1095.72 52.8253 1092.53 54.7429C1089.37 56.6179 1086.9 59.1534 1085.11 62.3494C1083.32 65.5028 1082.41 69.0185 1082.36 72.8963V88.9403C1082.36 93.7983 1083.26 97.9957 1085.05 101.533C1086.88 105.07 1089.46 107.797 1092.78 109.714C1096.11 111.632 1100.05 112.591 1104.61 112.591C1107.63 112.591 1110.4 112.165 1112.92 111.312C1115.43 110.46 1117.58 109.182 1119.37 107.477C1121.16 105.773 1122.53 103.685 1123.47 101.213L1148.65 102.875C1147.37 108.926 1144.75 114.21 1140.79 118.727C1136.87 123.202 1131.8 126.696 1125.57 129.21C1119.4 131.682 1112.26 132.918 1104.16 132.918ZM1248.69 60.8153L1223.76 62.3494C1223.33 60.2187 1222.41 58.3011 1221.01 56.5966C1219.6 54.8494 1217.75 53.4645 1215.45 52.4418C1213.19 51.3764 1210.48 50.8438 1207.33 50.8438C1203.11 50.8438 1199.55 51.7386 1196.65 53.5284C1193.76 55.2756 1192.31 57.6193 1192.31 60.5597C1192.31 62.9034 1193.25 64.8849 1195.12 66.5043C1197 68.1236 1200.21 69.4233 1204.77 70.4034L1222.54 73.983C1232.09 75.9432 1239.2 79.0966 1243.89 83.4432C1248.58 87.7898 1250.92 93.5 1250.92 100.574C1250.92 107.009 1249.03 112.655 1245.23 117.513C1241.48 122.371 1236.33 126.163 1229.77 128.891C1223.25 131.575 1215.72 132.918 1207.2 132.918C1194.2 132.918 1183.85 130.212 1176.14 124.8C1168.47 119.345 1163.97 111.93 1162.65 102.555L1189.43 101.149C1190.24 105.112 1192.2 108.138 1195.31 110.226C1198.42 112.271 1202.41 113.294 1207.27 113.294C1212.04 113.294 1215.87 112.378 1218.77 110.545C1221.71 108.67 1223.2 106.263 1223.25 103.322C1223.2 100.851 1222.16 98.8267 1220.11 97.25C1218.07 95.6307 1214.91 94.3949 1210.65 93.5426L1193.65 90.1548C1184.06 88.2372 1176.92 84.9134 1172.24 80.1832C1167.59 75.4531 1165.27 69.4233 1165.27 62.0938C1165.27 55.7869 1166.97 50.3537 1170.38 45.794C1173.83 41.2344 1178.67 37.7188 1184.89 35.2472C1191.16 32.7756 1198.49 31.5398 1206.88 31.5398C1219.28 31.5398 1229.04 34.1605 1236.16 39.402C1243.32 44.6435 1247.49 51.7812 1248.69 60.8153Z" fill="#0068FF" fill-opacity="0.58"/>
</svg>
