<svg width="105" height="89" viewBox="0 0 105 89" fill="none" xmlns="http://www.w3.org/2000/svg">
<path d="M0.192383 63.4694C0.418881 61.9185 0.581959 60.3481 0.880937 58.8069C1.66009 54.7394 2.98284 50.8865 5.69176 47.8237C6.56517 46.9096 7.06958 45.6623 7.09605 44.3512C7.54885 35.9335 10.1889 27.822 14.7154 20.9412C21.0549 10.9961 30.6721 4.0213 41.6144 1.43279C51.4203 -1.1892 61.7598 -0.193143 70.9776 4.26151C84.9118 11.0309 93.718 22.4823 96.9071 38.7035C97.3239 40.8592 97.3963 43.1027 97.65 45.2974C97.6467 45.6808 97.7614 46.0547 97.9762 46.3606C100.792 49.0906 102.754 52.6922 103.593 56.6707C105.431 63.5984 105.18 70.9751 102.878 77.7398C101.881 81.1341 99.9034 84.097 97.2333 86.1967C96.1458 87.0423 94.8637 87.5503 93.5266 87.6656C92.1895 87.7808 90.8486 87.4988 89.6501 86.8502V85.6797C89.6501 72.3555 89.6501 59.0313 89.6501 45.6875C89.6501 44.7121 90.3477 44.8389 90.9366 44.3707C90.6648 42.576 90.5017 40.6349 90.0306 38.7718C86.0896 22.1897 76.1327 11.9381 60.8124 8.00712C52.2996 5.86717 43.3642 6.90199 35.4688 10.9422C27.5735 14.9824 21.186 21.7886 17.3519 30.2467C15.4081 34.4824 14.2276 39.0764 13.8729 43.7855C13.8276 44.3317 13.8729 44.6438 14.4436 44.7609C15.0144 44.8779 15.3496 45.2584 15.3496 46.0777C15.3496 59.3141 15.3496 72.5506 15.3496 85.7772V86.8599C14.0461 87.5404 12.588 87.8019 11.15 87.6134C9.7119 87.4248 8.35478 86.7941 7.24101 85.7967C4.83321 83.69 3.04288 80.8783 2.08591 77.7008C1.12066 74.9389 0.531704 72.0411 0.337342 69.0976C0.337342 68.8049 0.237682 68.5123 0.192383 68.2197V63.4694Z" fill="white"/>
<path d="M25.9223 65.9762V85.4163C25.9223 87.5915 25.1884 88.3426 23.2043 88.3426C21.791 88.3426 20.3776 88.3426 18.9643 88.3426C17.261 88.3426 16.509 87.4452 16.509 85.6114C16.509 72.4758 16.509 59.3369 16.509 46.1947C16.509 44.3609 17.2701 43.5221 18.9824 43.5123C20.3957 43.5123 21.8091 43.5123 23.2224 43.5123C25.2066 43.5123 25.9404 44.3024 25.9404 46.4386C25.9404 52.9414 25.9404 59.4442 25.9404 65.947L25.9223 65.9762Z" fill="white"/>
<path d="M88.4726 65.9567V85.4651C88.4726 87.533 87.7297 88.3914 85.8271 88.3914C84.441 88.3914 83.0548 88.3914 81.6777 88.3914C79.8657 88.3914 79.0413 87.5232 79.0413 85.5529C79.0413 72.4758 79.0413 59.3987 79.0413 46.3216C79.0413 44.3024 79.766 43.5026 81.6415 43.4831C83.082 43.4831 84.5225 43.4831 85.963 43.4831C87.7116 43.4831 88.4636 44.3512 88.4636 46.2435C88.4636 52.8179 88.4636 59.3857 88.4636 65.947L88.4726 65.9567Z" fill="white"/>
<path d="M77.7637 85.348H76.7581V46.224H77.7637V85.348Z" fill="white"/>
<path d="M28.1242 85.3578H27.1638V46.6337L28.1242 46.5849V85.3578Z" fill="white"/>
<path d="M60.1966 81.5438H59.7889L59.6983 81.4755C59.573 81.4316 59.4572 81.3611 59.3576 81.2682C59.258 81.1753 59.1766 81.0618 59.1184 80.9346C59.0601 80.8073 59.0261 80.6688 59.0183 80.5272C59.0106 80.3855 59.0292 80.2437 59.0732 80.1099L59.1819 79.6222C59.2997 79.1247 59.4084 78.6468 59.5352 78.1005H59.1457C57.4062 78.1005 55.6667 78.1005 53.9271 78.1005C53.2935 78.0888 52.677 77.8774 52.1537 77.4926C51.6304 77.1077 51.2233 76.5663 50.9827 75.9351C50.874 75.6815 50.8105 75.3889 50.7199 75.1158H48.3825C48.3825 75.2523 48.3825 75.3596 48.455 75.4669C48.6815 76.4423 48.8989 77.4178 49.1254 78.3932C49.1653 78.5655 49.1629 78.746 49.1184 78.917C49.0739 79.088 48.9889 79.2436 48.8717 79.3686C48.6996 79.5633 48.4649 79.6798 48.2157 79.6943C47.9664 79.7088 47.7214 79.6202 47.5308 79.4466C45.592 78.0518 43.6622 76.6472 41.7144 75.2621C41.5781 75.171 41.4217 75.1205 41.2614 75.1158C40.4369 75.1158 39.6125 75.1158 38.788 75.1158C38.4382 75.1197 38.0889 75.0837 37.7461 75.0085C36.787 74.7877 35.9301 74.2121 35.3243 73.3816C34.7185 72.5512 34.4021 71.5185 34.4302 70.463V56.1439C34.4149 55.5234 34.518 54.9061 34.7332 54.3303C34.9484 53.7545 35.2711 53.2323 35.6813 52.7962C36.0915 52.36 36.5805 52.0192 37.118 51.7947C37.6555 51.5702 38.23 51.4669 38.8061 51.4911H56.02C56.5954 51.4708 57.1686 51.5778 57.7041 51.8052C58.2396 52.0327 58.7262 52.376 59.1337 52.8138C59.5412 53.2517 59.8611 53.7748 60.0735 54.3509C60.2859 54.927 60.3864 55.5438 60.3688 56.1634V59.948H60.7402C62.8965 59.948 65.0527 59.948 67.209 59.948C67.91 59.9693 68.5875 60.2249 69.1476 60.6793C69.7076 61.1337 70.1225 61.7645 70.3347 62.4841C70.4162 62.7865 70.4615 63.0986 70.5249 63.401V74.6963C70.5026 74.7666 70.4845 74.8382 70.4706 74.9109C70.3671 75.7903 69.9698 76.599 69.3529 77.186C68.736 77.773 67.9417 78.0981 67.1184 78.1005C66.5204 78.1005 65.9134 78.1005 65.3064 78.1005C65.1359 78.1029 64.9695 78.157 64.8262 78.2566L60.8127 81.1829C60.6224 81.2999 60.405 81.417 60.1966 81.5438ZM50.6746 70.3362H39.8027C39.6549 70.346 39.5066 70.346 39.3588 70.3362C39.1334 70.3085 38.9246 70.195 38.7701 70.0161C38.6156 69.8373 38.5255 69.6048 38.5162 69.3608C38.5032 69.2022 38.524 69.0425 38.5771 68.894C38.6303 68.7454 38.7142 68.6119 38.8227 68.5036C38.9311 68.3953 39.0611 68.3152 39.2027 68.2694C39.3443 68.2235 39.4937 68.2132 39.6396 68.2391H50.6746V64.3374H39.7574C39.613 64.3571 39.4669 64.3571 39.3225 64.3374C39.0923 64.2814 38.8893 64.1361 38.7523 63.9291C38.6152 63.7222 38.5538 63.4683 38.5796 63.2157C38.6 62.9508 38.7118 62.7038 38.8929 62.5233C39.074 62.3428 39.3113 62.2418 39.5581 62.2402H50.6656C50.8105 62.2402 50.9374 62.2402 51.028 62.0744C51.3025 61.4205 51.7513 60.8691 52.3176 60.4905C52.8838 60.1118 53.5418 59.923 54.208 59.948H58.294C58.2976 59.9156 58.2976 59.8829 58.294 59.8505C58.294 58.6117 58.294 57.3632 58.294 56.1146C58.3077 55.7864 58.2587 55.4587 58.15 55.1518C58.0413 54.8449 57.8752 54.5652 57.662 54.3302C57.4488 54.0952 57.1931 53.9098 56.9106 53.7855C56.6282 53.6613 56.325 53.6008 56.02 53.6078H38.7427C38.4304 53.5923 38.1185 53.6475 37.8272 53.7697C37.5359 53.8919 37.2716 54.0786 37.0514 54.3175C36.8311 54.5564 36.6599 54.8424 36.5486 55.157C36.4373 55.4716 36.3885 55.8077 36.4052 56.1439V70.3947C36.3834 70.7389 36.4307 71.0842 36.544 71.4069C36.6573 71.7296 36.834 72.0222 37.0618 72.2648C37.2897 72.5073 37.5635 72.6941 37.8645 72.8124C38.1655 72.9308 38.4867 72.9778 38.8061 72.9503C39.7484 72.9503 40.6906 72.9503 41.6328 72.9503C41.957 72.9447 42.2744 73.0506 42.5388 73.2527C43.78 74.1696 45.0303 75.067 46.2806 75.9741L46.5977 76.1985C46.4436 75.5254 46.3168 74.9499 46.1809 74.3745C46.1255 74.2047 46.1106 74.0227 46.1376 73.8451C46.1647 73.6675 46.2328 73.5001 46.3356 73.3583C46.4385 73.2165 46.5728 73.1048 46.7262 73.0335C46.8797 72.9622 47.0473 72.9336 47.2137 72.9503H50.6746V70.3362ZM60.55 72.4431H60.0064C58.2759 72.4431 56.5455 72.4431 54.815 72.4431C54.6744 72.4356 54.534 72.4606 54.4031 72.5163C54.2722 72.5721 54.1538 72.6573 54.056 72.7663C53.9582 72.8753 53.8832 73.0056 53.836 73.1483C53.7887 73.2911 53.7704 73.4431 53.7822 73.5941C53.7933 73.7389 53.8316 73.8798 53.8948 74.0082C53.958 74.1365 54.0447 74.2498 54.1498 74.341C54.2548 74.4322 54.376 74.4995 54.5059 74.5388C54.6358 74.578 54.7718 74.5885 54.9056 74.5695H66.2668C66.3753 74.5793 66.4844 74.5793 66.5929 74.5695C66.7379 74.5496 66.8763 74.4921 66.9962 74.4021C67.1161 74.3121 67.214 74.1921 67.2815 74.0526C67.3703 73.8877 67.4159 73.7001 67.4135 73.5095C67.4111 73.319 67.3607 73.1327 67.2678 72.9705C67.1748 72.8084 67.0427 72.6764 66.8856 72.5887C66.7284 72.501 66.5522 72.4608 66.3755 72.4724C64.4548 72.4334 62.525 72.4431 60.55 72.4431ZM60.55 70.0826H66.149C66.2847 70.0923 66.4209 70.0923 66.5567 70.0826C66.7938 70.065 67.0151 69.9478 67.1727 69.7562C67.3303 69.5646 67.4117 69.314 67.3993 69.0584C67.4043 68.9088 67.379 68.7599 67.3253 68.6218C67.2716 68.4838 67.1907 68.3599 67.0882 68.2588C66.9857 68.1577 66.864 68.0818 66.7316 68.0363C66.5991 67.9908 66.4591 67.9768 66.3211 67.9952H54.6519C54.4152 68.0071 54.1911 68.1137 54.0235 68.2941C53.856 68.4745 53.757 68.7158 53.746 68.9706C53.7297 69.1278 53.7467 69.2868 53.7959 69.4358C53.845 69.5848 53.925 69.7198 54.0297 69.8307C54.1344 69.9415 54.2611 70.0253 54.4003 70.0757C54.5395 70.1261 54.6875 70.1418 54.8331 70.1216C56.772 70.0924 58.6746 70.0826 60.55 70.0826ZM60.55 65.6054H64.7175C65.3064 65.6054 65.8953 65.6054 66.5295 65.6054C66.6716 65.6008 66.811 65.5622 66.9375 65.4925C67.0641 65.4228 67.1747 65.3237 67.2614 65.2024C67.3481 65.0811 67.4086 64.9405 67.4388 64.791C67.4689 64.6414 67.4678 64.4865 67.4355 64.3374C67.3771 64.0712 67.2288 63.8379 67.0195 63.6829C66.8102 63.5279 66.5548 63.4622 66.303 63.4985H54.9509C54.8424 63.4888 54.7333 63.4888 54.6248 63.4985C54.3866 63.5486 54.1741 63.6921 54.0287 63.9013C53.8833 64.1105 53.8153 64.3704 53.8379 64.6305C53.8605 64.8907 53.972 65.1325 54.1509 65.3091C54.3298 65.4856 54.5633 65.5843 54.806 65.5859C56.7267 65.6152 58.6564 65.6054 60.55 65.6054Z" fill="white"/>
<path d="M47.3769 58.3483H39.7122C39.5789 58.3754 39.4419 58.3727 39.3096 58.3403C39.1774 58.3079 39.0527 58.2465 38.9435 58.1599C38.8343 58.0734 38.7427 57.9635 38.6747 57.8372C38.6066 57.7109 38.5634 57.5709 38.5478 57.4258C38.5322 57.2808 38.5445 57.1338 38.584 56.9941C38.6235 56.8544 38.6893 56.7249 38.7773 56.6138C38.8653 56.5027 38.9736 56.4123 39.0955 56.3482C39.2174 56.2841 39.3502 56.2478 39.4857 56.2414H39.5401C44.7586 56.2414 49.9771 56.2414 55.1956 56.2414C55.4351 56.2535 55.6621 56.3599 55.8336 56.5403C56.005 56.7207 56.109 56.9625 56.1258 57.22C56.1425 57.4775 56.0709 57.7326 55.9245 57.937C55.7781 58.1414 55.5671 58.2808 55.3315 58.3288C55.1867 58.3387 55.0414 58.3387 54.8966 58.3288L47.3769 58.3483Z" fill="white"/>
</svg>
