<svg width="362" height="366" viewBox="0 0 362 366" fill="none" xmlns="http://www.w3.org/2000/svg">
    <g clip-path="url(#clip0_4_557)">
        <path d="M360.766 2.17846L347.335 3.60981e-05C347.124 -0.0362397 346.909 -0.0150272 346.706 0.0621034C346.504 0.139234 346.318 0.270308 346.162 0.445623C332.032 16.5858 317.593 32.6269 303.113 48.7423C288.633 64.8577 274.009 81.3444 259.159 97.5835C244.309 113.823 229.088 130.433 213.909 146.846H212.387C224.975 131.465 237.617 116.059 250.315 100.628C263.211 84.8348 276.56 69.066 289.723 53.3219C302.064 38.469 314.611 23.6161 327.363 8.76324C327.563 8.53628 327.704 8.24428 327.769 7.92273C327.834 7.60117 327.819 7.26391 327.728 6.95191C327.636 6.63991 327.472 6.3666 327.253 6.16521C327.035 5.96381 326.773 5.84299 326.499 5.81742L312.821 4.43115C312.6 4.41045 312.377 4.45099 312.17 4.54966C311.963 4.64833 311.778 4.80254 311.628 5.00051C300.398 20.7198 288.818 36.4391 277.218 52.0347C265.617 67.6302 253.852 83.8693 241.841 99.7619C229.829 115.655 218.167 131.201 206.217 146.945H204.571C214.17 132.257 223.885 117.577 233.716 102.906C243.836 87.5083 254.408 72.1603 264.795 56.7876C274.585 42.306 284.417 27.8244 294.516 13.3676C294.684 13.1231 294.793 12.8267 294.829 12.5119C294.866 12.197 294.828 11.8762 294.722 11.5856C294.615 11.2949 294.443 11.0459 294.225 10.8665C294.006 10.6872 293.751 10.5846 293.487 10.5703L279.727 9.90196C279.484 9.89187 279.243 9.95714 279.027 10.0915C278.811 10.2259 278.627 10.4249 278.493 10.6694C269.998 25.8441 261.195 41.0188 252.33 56.1935C243.466 71.3682 234.477 87.137 225.242 102.584C216.316 117.618 207.327 132.653 198.277 147.687L196.57 147.91C203.591 133.948 210.666 119.987 217.796 106.025C225.283 91.172 233.181 76.3191 240.936 61.4662C248.217 47.5045 255.539 33.5181 263.129 19.5316C263.27 19.2734 263.351 18.9738 263.362 18.6647C263.373 18.3557 263.314 18.0488 263.192 17.7769C263.069 17.5049 262.888 17.2781 262.667 17.1207C262.445 16.9632 262.193 16.881 261.936 16.8828H248.217C247.949 16.8774 247.686 16.9658 247.46 17.1372C247.233 17.3087 247.053 17.5557 246.942 17.8483C241.059 32.3793 234.868 46.9104 228.636 61.4662C222.404 76.0221 216.069 91.172 209.446 106.025C203.193 120.333 196.844 134.65 190.4 148.975L188.713 149.346C193.293 136.143 197.948 122.891 202.679 109.59C207.636 95.3308 212.963 81.0473 218.27 66.7638C223.165 53.3467 228.122 39.9296 233.325 26.4877C233.437 26.2209 233.489 25.9235 233.475 25.6251C233.462 25.3267 233.384 25.0379 233.248 24.7873C233.113 24.5368 232.925 24.3334 232.704 24.1973C232.483 24.0613 232.236 23.9975 231.988 24.0122L218.434 24.7549C218.139 24.7669 217.855 24.8906 217.623 25.1085C217.39 25.3263 217.22 25.6271 217.138 25.9678C213.703 39.7563 209.96 53.5695 206.196 67.3826C202.329 81.5919 198.606 95.8012 194.472 110.01C190.667 123.601 186.738 137.241 182.769 150.782C182.213 150.905 181.658 151.054 181.123 151.227C183.482 138.701 185.916 126.175 188.425 113.649C191.037 100.109 194.04 86.4191 196.899 72.8782C199.511 60.0552 202.288 47.2322 205.27 34.4092C205.335 34.1432 205.344 33.8624 205.298 33.591C205.252 33.3196 205.152 33.0657 205.006 32.8514C204.86 32.637 204.673 32.4684 204.461 32.3603C204.249 32.2522 204.019 32.2078 203.79 32.2308L190.544 33.4933C190.212 33.5261 189.901 33.6977 189.665 33.9782C189.428 34.2586 189.28 34.6302 189.248 35.0281C188.096 47.9749 186.636 60.9959 185.134 73.9674C183.592 87.4588 182.213 100.901 180.445 114.392C178.881 127.248 177.229 140.071 175.488 152.861L173.904 153.381C174.233 141.631 174.631 129.872 175.097 118.105C175.488 105.282 176.269 92.4098 176.907 79.562C177.483 67.4074 178.12 55.2528 178.964 43.0487C178.984 42.7945 178.956 42.5383 178.883 42.2987C178.81 42.0591 178.693 41.8422 178.541 41.6641C178.389 41.486 178.206 41.3512 178.005 41.2695C177.804 41.1878 177.59 41.1613 177.38 41.1921L164.628 42.9992C164.26 43.055 163.925 43.2792 163.691 43.6249C163.458 43.9707 163.344 44.4115 163.373 44.8558C164.278 56.9361 164.916 69.0412 165.43 81.1711C166.067 93.8455 166.849 106.495 167.26 119.194C167.754 131.192 168.172 143.207 168.515 155.237L167.034 155.807C165.498 144.849 164.018 133.882 162.591 122.908C160.946 110.902 159.65 98.8213 158.231 86.7657C156.853 75.3289 155.537 63.8427 154.446 52.3317C154.427 52.1028 154.368 51.8812 154.274 51.6806C154.18 51.4801 154.054 51.3047 153.901 51.1655C153.749 51.0263 153.575 50.9262 153.389 50.8713C153.203 50.8164 153.01 50.808 152.822 50.8464L140.707 53.1239C140.506 53.1598 140.313 53.2473 140.142 53.3806C139.972 53.5139 139.827 53.6899 139.718 53.8965C139.608 54.1031 139.537 54.3355 139.509 54.5781C139.481 54.8207 139.497 55.0676 139.555 55.3023C142.352 66.442 144.862 77.5816 147.371 88.8203C150.024 100.653 152.822 112.436 155.228 124.294C157.614 135.434 159.918 146.573 162.159 157.787L160.802 158.406C157.552 148.273 154.371 138.132 151.258 127.982C147.721 116.843 144.533 105.703 141.221 94.3901C138.012 83.6961 134.866 72.9277 131.965 62.2089C131.861 61.8086 131.637 61.4687 131.337 61.2541C131.038 61.0395 130.683 60.9652 130.341 61.0454L119.007 63.7189C118.79 63.7693 118.585 63.8804 118.409 64.0433C118.233 64.2063 118.092 64.4165 117.996 64.6573C117.9 64.898 117.852 65.1624 117.856 65.4294C117.86 65.6963 117.917 65.9583 118.02 66.1944C122.483 76.3686 126.7 86.6171 130.896 96.8656C135.38 107.807 139.987 118.699 144.245 129.691C148.358 139.972 152.383 150.254 156.318 160.535L155.063 161.154C150.415 151.863 145.753 142.571 141.077 133.28C135.832 123.007 130.916 112.634 125.898 102.336C120.879 92.0384 116.19 82.5326 111.5 72.4326C111.354 72.1037 111.121 71.8425 110.838 71.6902C110.555 71.5379 110.238 71.503 109.937 71.591L99.5294 74.5368C99.2956 74.6003 99.079 74.7341 98.8998 74.9257C98.7206 75.1172 98.5846 75.3602 98.5045 75.6321C98.4244 75.904 98.4028 76.1958 98.4417 76.4805C98.4807 76.7651 98.5789 77.0332 98.7272 77.2598C104.671 86.4934 110.389 95.7764 116.066 105.084C122.237 114.986 128.407 125.086 134.392 135.137C140.056 144.494 145.63 153.909 151.114 163.382L149.942 164.025C143.854 155.576 137.807 147.11 131.801 138.627C125.034 129.294 118.555 119.838 111.973 110.407C105.391 100.975 99.2208 92.1622 93.0915 82.9534C92.9228 82.6874 92.6904 82.4902 92.4255 82.3883C92.1606 82.2865 91.8762 82.285 91.6106 82.3841L82.2727 85.5774C82.0329 85.6637 81.8159 85.8238 81.6432 86.0418C81.4704 86.2599 81.3479 86.5283 81.2877 86.8207C81.2275 87.1131 81.2316 87.4194 81.2998 87.7093C81.3679 87.9991 81.4976 88.2626 81.6762 88.4737C88.9162 96.7666 95.9505 105.134 102.964 113.526C110.574 122.586 118.288 131.621 125.713 140.756C132.651 149.156 139.507 157.581 146.281 166.031L145.211 166.699C137.944 159.223 130.738 151.731 123.594 144.222C115.449 135.805 107.592 127.265 99.6528 118.823C91.7135 110.382 84.1649 102.262 76.6576 93.9198C76.4739 93.7119 76.2469 93.5677 76.0007 93.5023C75.7545 93.437 75.4982 93.4529 75.2589 93.5485L66.8877 96.7914C66.6364 96.8877 66.4124 97.0665 66.2408 97.3075C66.0693 97.5485 65.9569 97.8423 65.9163 98.156C65.8757 98.4696 65.9085 98.7906 66.0111 99.083C66.1136 99.3754 66.2819 99.6277 66.4969 99.8114C74.8476 107.238 82.9514 114.664 91.1787 122.091C100.085 130.21 109.094 138.305 117.917 146.499C125.925 153.942 133.926 161.41 141.92 168.902L140.933 169.571C132.706 162.969 124.547 156.368 116.457 149.767C107.14 142.34 98.0896 134.641 88.9368 127.067C79.7839 119.492 71.063 112.214 62.3421 104.787C62.1561 104.619 61.9379 104.511 61.7077 104.472C61.4776 104.433 61.243 104.465 61.0257 104.564L53.7035 107.832C53.4485 107.944 53.2256 108.142 53.0613 108.402C52.897 108.663 52.7982 108.974 52.7765 109.3C52.7549 109.626 52.8113 109.952 52.9392 110.24C53.067 110.529 53.2609 110.767 53.4978 110.926C62.8357 117.412 72.0091 123.972 81.1826 130.532C91.1993 137.711 101.339 144.84 111.192 152.118C120.159 158.637 129.072 165.164 137.93 171.699L137.046 172.393L110.307 155.312C100.023 148.727 89.9035 142.018 79.7222 135.508C69.541 128.997 59.6477 122.388 49.9395 115.778C49.7444 115.663 49.5297 115.602 49.3122 115.602C49.0946 115.602 48.88 115.663 48.6848 115.778L42.5144 118.972C42.2581 119.103 42.0396 119.322 41.886 119.601C41.7323 119.881 41.6504 120.208 41.6504 120.544C41.6504 120.879 41.7323 121.206 41.886 121.486C42.0396 121.765 42.2581 121.984 42.5144 122.116C52.6956 127.71 62.7123 133.404 72.7085 139.097C83.6713 145.336 94.737 151.475 105.618 157.861C115.216 163.44 124.815 169.034 134.413 174.645L133.59 175.338C124.06 170.47 114.551 165.659 105.062 160.906C93.8937 155.138 82.9514 149.346 71.9886 143.578C61.0257 137.81 50.3303 132.315 39.676 126.596C39.4902 126.487 39.2862 126.43 39.0795 126.43C38.8727 126.43 38.6687 126.487 38.483 126.596L33.2176 129.641C32.968 129.793 32.7607 130.029 32.6208 130.32C32.4809 130.612 32.4145 130.946 32.4298 131.282C32.4451 131.618 32.5413 131.941 32.7068 132.213C32.8722 132.484 33.0997 132.691 33.3615 132.81C44.2215 137.563 54.9376 142.414 65.6536 147.266C77.3157 152.638 89.1424 157.886 100.784 163.382C110.945 168.036 121.071 172.714 131.163 177.418L130.402 178.136C120.543 174.175 110.712 170.206 100.907 166.229C89.0602 161.451 77.3774 156.574 65.6536 151.722C53.9297 146.87 42.5761 142.117 31.2019 137.265C31.022 137.162 30.8253 137.109 30.626 137.109C30.4267 137.109 30.2299 137.162 30.0501 137.265L25.7307 140.137C25.4832 140.301 25.282 140.55 25.1527 140.852C25.0235 141.155 24.9722 141.496 25.0053 141.834C25.0384 142.172 25.1545 142.49 25.3387 142.747C25.5229 143.005 25.7668 143.191 26.0393 143.281C37.434 147.217 48.6643 151.252 59.9973 155.287C72.3382 159.693 84.8231 164.075 97.0201 168.58C107.469 172.376 117.883 176.18 128.263 179.992L127.605 180.71C117.568 177.575 107.565 174.414 97.596 171.229C85.2551 167.343 72.9141 163.308 60.7172 159.322C48.5203 155.337 36.6113 151.648 24.6818 147.613C24.4876 147.55 24.2845 147.537 24.086 147.575C23.8874 147.614 23.6979 147.703 23.5299 147.836L20.0951 150.485C19.8552 150.666 19.6661 150.93 19.5521 151.243C19.438 151.555 19.4043 151.901 19.4552 152.237C19.5061 152.572 19.6393 152.882 19.8376 153.125C20.036 153.369 20.2904 153.536 20.5681 153.604C32.3948 156.748 44.1187 159.99 55.8426 163.233C68.6771 166.798 81.5528 170.313 94.2845 173.927L125.836 182.864L125.24 183.607L95.2718 176.378C82.5195 173.284 69.9318 170.14 57.2206 166.996C44.5095 163.852 32.3126 160.906 19.9922 157.639C19.7937 157.586 19.5882 157.585 19.3895 157.637C19.1908 157.688 19.0035 157.79 18.8404 157.936L16.146 160.411C15.9442 160.619 15.795 160.891 15.7153 161.196C15.6356 161.501 15.6285 161.826 15.695 162.136C15.7614 162.445 15.8986 162.726 16.0911 162.946C16.2835 163.167 16.5234 163.318 16.7836 163.382C28.9051 165.808 40.9786 168.283 53.0042 170.808C66.1472 173.531 79.352 176.18 92.4128 179.002C102.861 181.148 113.296 183.367 123.718 185.661L123.183 186.379C113.372 184.696 103.54 182.988 93.7497 181.23C80.7712 178.977 67.8955 176.601 54.9581 174.274C42.0207 171.947 29.5564 169.62 16.9687 167.219C16.7643 167.183 16.556 167.2 16.3575 167.268C16.1589 167.336 15.9747 167.455 15.8169 167.615L13.7601 169.769C13.5581 169.991 13.4131 170.278 13.3421 170.597C13.271 170.915 13.2769 171.251 13.3589 171.566C13.441 171.88 13.5958 172.16 13.8053 172.372C14.0148 172.584 14.2702 172.72 14.5416 172.764C26.8826 174.422 39.2235 176.18 51.3998 177.938C64.728 179.869 78.1385 181.725 91.3432 183.73C101.545 185.216 111.733 186.734 121.908 188.285C121.743 188.533 121.599 188.805 121.455 189.053L93.0298 185.661C79.9485 184.176 66.9288 182.542 53.9503 180.982C40.9718 179.423 28.2812 177.987 15.5701 176.329C15.3498 176.303 15.1276 176.339 14.9207 176.433C14.7138 176.528 14.5278 176.678 14.3771 176.873L12.9373 178.705C12.748 178.939 12.6184 179.233 12.5638 179.553C12.5092 179.873 12.532 180.205 12.6294 180.51C12.7268 180.815 12.8948 181.08 13.1134 181.273C13.332 181.466 13.5921 181.58 13.8629 181.601C26.2861 182.592 38.675 183.64 51.0296 184.745C64.3783 185.884 77.7682 186.998 91.0964 188.236L120.468 190.934C120.324 191.206 120.221 191.454 120.098 191.726L93.071 190.068C79.9896 189.3 66.9905 188.384 53.9914 187.592C40.9923 186.8 28.384 185.859 15.6729 184.919C15.4254 184.902 15.1785 184.961 14.9554 185.091C14.7324 185.221 14.5404 185.417 14.3977 185.661L13.4104 187.221C13.2499 187.472 13.1509 187.773 13.1243 188.089C13.0978 188.404 13.1448 188.722 13.2601 189.008C13.3754 189.293 13.5545 189.534 13.7772 189.704C13.9999 189.873 14.2575 189.965 14.5211 189.968C26.9443 190.282 39.3263 190.678 51.6672 191.157C64.9543 191.602 78.2824 191.998 91.5284 192.543L119.295 193.607C119.193 193.88 119.11 194.152 119.028 194.4L93.7497 194.152C80.7918 194.152 67.8955 193.83 54.9787 193.632C42.0619 193.434 29.7004 193.261 17.1127 192.989C16.859 192.989 16.6099 193.07 16.3899 193.222C16.1699 193.374 15.9866 193.592 15.858 193.855L15.241 195.167C15.1319 195.428 15.0803 195.718 15.0911 196.01C15.1019 196.302 15.1747 196.586 15.3027 196.834C15.4306 197.083 15.6094 197.288 15.8218 197.429C16.0343 197.571 16.2734 197.644 16.5162 197.642C28.8571 197.378 41.1363 197.164 53.3538 196.999C66.4557 196.801 79.5782 196.529 92.639 196.405L118.514 196.108C118.514 196.38 118.39 196.652 118.349 196.925L95.0866 197.816C82.3755 198.311 69.6781 198.756 56.9944 199.153C44.6535 199.598 32.3126 200.002 19.9716 200.366C19.6896 200.369 19.4149 200.474 19.1837 200.669C18.9524 200.863 18.7754 201.137 18.6758 201.455L18.3262 202.494C18.2445 202.763 18.2193 203.051 18.2526 203.334C18.286 203.617 18.377 203.885 18.5175 204.116C18.658 204.346 18.8436 204.531 19.0578 204.654C19.272 204.777 19.5083 204.835 19.7454 204.821C31.8669 203.98 43.9541 203.155 56.0071 202.346C68.8211 201.554 81.6351 200.687 94.4285 199.87L118.164 198.459C118.144 198.731 118.144 199.005 118.164 199.276L97.1023 201.083C84.7614 202.173 72.4205 203.138 60.0796 204.128C48.0678 205.118 36.0628 206.067 24.0647 206.975C23.7482 206.996 23.4466 207.144 23.208 207.395C22.9694 207.646 22.8076 207.986 22.7484 208.361L22.6249 209.203C22.5825 209.463 22.591 209.732 22.6499 209.988C22.7087 210.244 22.8163 210.479 22.964 210.676C23.1117 210.873 23.2955 211.026 23.5009 211.123C23.7062 211.219 23.9274 211.257 24.147 211.233C35.9531 209.847 47.7593 208.559 59.5654 207.272C71.9063 205.886 84.4323 204.475 96.8555 203.212L118.246 200.935V201.727L99.5499 204.203C87.5793 205.812 75.6086 207.272 63.6379 208.832C52.106 210.3 40.5604 211.744 29.0011 213.164C28.6519 213.212 28.3295 213.412 28.0946 213.727C27.8597 214.042 27.7286 214.449 27.7258 214.872V215.491C27.727 215.733 27.7711 215.972 27.8549 216.192C27.9388 216.413 28.0607 216.609 28.2124 216.768C28.3642 216.927 28.5423 217.046 28.735 217.116C28.9277 217.186 29.1306 217.206 29.3302 217.174C40.7661 215.326 52.202 213.519 63.6379 211.753C75.6086 209.896 87.5793 207.99 99.5499 206.183L118.493 203.311C118.549 203.58 118.618 203.844 118.699 204.103L102.327 207.198C90.829 209.252 79.3314 211.208 67.8338 213.213C56.871 215.119 45.8464 217.025 34.9247 218.882C34.7331 218.915 34.5491 218.994 34.3839 219.115C34.2187 219.236 34.0759 219.397 33.9642 219.587C33.8524 219.777 33.7742 219.993 33.7342 220.221C33.6942 220.449 33.6934 220.684 33.7318 220.912V221.358C33.8065 221.79 34.0174 222.171 34.3204 222.42C34.6233 222.669 34.9948 222.768 35.3566 222.694C46.3401 220.392 57.3235 218.189 68.2657 215.961C79.7016 213.667 91.1376 211.365 102.573 209.054L119.028 205.812L119.378 206.579L105.515 209.698C94.5724 212.174 83.6302 214.649 72.6056 216.951C62.3215 219.196 51.9895 221.457 41.6094 223.734C41.3838 223.769 41.1687 223.87 40.9828 224.027C40.7969 224.185 40.6457 224.395 40.5423 224.639C40.439 224.883 40.3866 225.153 40.3898 225.427C40.3929 225.701 40.4515 225.969 40.5604 226.21L40.6632 226.482C40.787 226.853 41.0164 227.158 41.3103 227.344C41.6043 227.53 41.9436 227.584 42.2676 227.497C52.7025 224.823 63.158 222.199 73.634 219.625C84.4735 216.926 95.3129 214.179 106.193 211.53L120.2 207.94L120.694 208.658L109.155 211.802C98.8506 214.674 88.4431 217.422 78.159 220.318C68.492 222.793 58.8249 225.516 49.1168 228.041C48.8895 228.099 48.6775 228.223 48.4994 228.403C48.3212 228.582 48.1824 228.811 48.0951 229.07C48.0078 229.33 47.9746 229.61 47.9985 229.889C48.0225 230.167 48.1028 230.433 48.2323 230.665V230.839C48.399 231.132 48.6357 231.358 48.9111 231.486C49.1865 231.614 49.4877 231.639 49.7749 231.557C59.6065 228.57 69.4724 225.607 79.3726 222.67C89.6566 219.625 99.7556 216.555 109.999 213.585L121.681 210.144L122.319 210.837L113.125 213.708C103.458 216.852 93.7086 219.897 84.0004 222.991C75.0738 225.838 66.1266 228.685 57.1384 231.458C56.8983 231.529 56.6779 231.674 56.4989 231.879C56.32 232.085 56.1886 232.343 56.118 232.628C56.0473 232.913 56.0398 233.215 56.0961 233.505C56.1524 233.795 56.2706 234.062 56.439 234.28C56.6209 234.516 56.8545 234.685 57.1128 234.768C57.3712 234.852 57.6439 234.845 57.8994 234.75C67.0865 231.449 76.3079 228.206 85.5636 225.021C95.0866 221.704 104.589 218.338 114.153 215.119L123.635 211.852C123.892 212.078 124.16 212.285 124.437 212.471L117.115 215.367C108.147 218.758 99.0974 222.075 90.0474 225.442C81.8202 228.462 73.5929 231.474 65.3656 234.478C65.1209 234.568 64.901 234.736 64.7291 234.964C64.5572 235.192 64.4398 235.472 64.3892 235.773C64.3386 236.075 64.3568 236.388 64.4418 236.679C64.5268 236.969 64.6754 237.226 64.872 237.423C65.0626 237.608 65.2887 237.732 65.5295 237.784C65.7703 237.836 66.0181 237.814 66.2501 237.721C74.7447 234.205 83.3011 230.74 91.8574 227.299C100.414 223.858 109.443 220.145 118.308 216.629L125.816 213.634L126.762 214.203L121.249 216.679C113.022 220.268 104.61 223.808 96.3002 227.348C88.8956 230.533 81.4774 233.686 74.0454 236.805C73.7908 236.909 73.5661 237.099 73.3976 237.351C73.229 237.603 73.1235 237.908 73.0933 238.23C73.0631 238.551 73.1096 238.877 73.2271 239.168C73.3447 239.459 73.5286 239.704 73.7574 239.874C73.9486 240.02 74.1655 240.109 74.3906 240.135C74.6157 240.161 74.8427 240.122 75.0532 240.023C82.924 236.26 90.8153 232.563 98.7272 228.933C106.79 225.17 114.832 221.506 122.936 217.694L128.695 215.045L129.785 215.565L125.816 217.521C118.288 221.259 110.657 224.947 103.067 228.685C96.4441 231.986 89.8075 235.22 83.1571 238.389C82.901 238.508 82.6792 238.715 82.5187 238.983C82.3582 239.251 82.2657 239.57 82.2527 239.9C82.2396 240.23 82.3065 240.558 82.4451 240.843C82.5837 241.129 82.7882 241.36 83.0337 241.508C83.2252 241.623 83.4365 241.684 83.6507 241.684C83.865 241.684 84.0762 241.623 84.2678 241.508C91.2404 237.646 98.3364 233.958 105.432 230.22C112.528 226.482 120.036 222.422 127.399 218.585L131.616 216.357L132.85 216.778L130.197 218.288C123.409 222.15 116.519 225.962 109.628 229.799C103.787 233.1 97.9182 236.4 92.022 239.701C91.7671 239.837 91.5505 240.059 91.3984 240.34C91.2464 240.621 91.1654 240.95 91.1654 241.285C91.1654 241.621 91.2464 241.949 91.3984 242.23C91.5505 242.512 91.7671 242.734 92.022 242.87C92.2103 242.968 92.4133 243.018 92.6185 243.018C92.8236 243.018 93.0266 242.968 93.2149 242.87C99.4882 238.983 105.844 235.097 112.199 231.26C118.555 227.423 125.466 223.041 131.986 219.08L134.907 217.323L136.244 217.669L134.66 218.684C128.633 222.62 122.483 226.507 116.375 230.443L101.01 240.345C100.761 240.5 100.556 240.741 100.421 241.037C100.286 241.333 100.227 241.671 100.251 242.007C100.275 242.344 100.382 242.664 100.557 242.928C100.733 243.191 100.969 243.386 101.237 243.488C101.426 243.563 101.627 243.588 101.826 243.562C102.024 243.536 102.216 243.461 102.388 243.34C107.942 239.396 113.523 235.484 119.131 231.606C124.931 227.571 130.69 223.511 136.532 219.501L138.383 218.214L139.802 218.461L139.103 218.981C133.796 222.967 128.407 226.903 123.039 230.839C118.665 234.139 114.256 237.366 109.813 240.518C109.575 240.697 109.386 240.955 109.269 241.262C109.151 241.569 109.111 241.91 109.152 242.244C109.194 242.578 109.315 242.89 109.502 243.142C109.689 243.394 109.933 243.574 110.204 243.662C110.4 243.72 110.604 243.728 110.802 243.685C111 243.642 111.189 243.55 111.356 243.414C116.128 239.503 120.927 235.592 125.754 231.68C130.793 227.645 135.771 223.586 140.871 219.575L141.879 218.758H142.908L139.864 222.026C136.49 224.947 133.056 227.843 129.579 230.74C126.103 233.636 122.175 237.052 118.411 240.221C118.207 240.374 118.039 240.588 117.922 240.841C117.806 241.094 117.744 241.379 117.744 241.669C117.744 241.959 117.806 242.243 117.922 242.497C118.039 242.75 118.207 242.964 118.411 243.117L94.2845 267.055C78.5087 283.146 62.301 299.236 46.2784 315.203C31.2841 330.427 16.0431 345.627 0.534713 360.777C0.30087 360.984 0.124443 361.271 0.0285713 361.6C-0.0673005 361.93 -0.0781405 362.287 -0.00252722 362.624C0.0730861 362.962 0.231622 363.263 0.452289 363.49C0.672955 363.717 0.945449 363.859 1.23403 363.896L14.6651 366.074C14.8772 366.106 15.0925 366.079 15.2953 365.998C15.4981 365.917 15.6833 365.782 15.8374 365.604C29.9472 349.464 44.4066 333.423 58.8866 317.307C73.3666 301.192 87.9906 284.68 102.841 268.417C117.691 252.153 132.912 235.567 148.091 219.154H149.613C137.025 234.585 124.383 249.991 111.685 265.372C98.7272 281.165 85.4402 297.058 72.2765 312.703C59.9356 327.556 47.389 342.409 34.6368 357.262C34.4367 357.489 34.2958 357.78 34.231 358.102C34.1663 358.424 34.1805 358.761 34.272 359.073C34.3635 359.385 34.5283 359.658 34.7464 359.86C34.9645 360.061 35.2265 360.182 35.5006 360.207L49.1579 361.618C49.3845 361.638 49.6118 361.595 49.8222 361.492C50.0326 361.389 50.2206 361.229 50.3714 361.024C61.6017 345.305 73.1815 329.61 84.782 313.99C96.3824 298.37 108.127 282.205 120.159 266.263C132.192 250.321 143.833 234.799 155.783 219.055H157.429C147.83 233.727 138.115 248.415 128.284 263.119C118.164 278.492 107.592 293.84 97.2052 309.212C87.4147 323.694 77.5831 338.176 67.4841 352.632C67.3174 352.88 67.2104 353.177 67.1749 353.493C67.1395 353.808 67.1769 354.129 67.2832 354.421C67.3894 354.712 67.5604 354.963 67.7772 355.146C67.9941 355.328 68.2485 355.435 68.5126 355.454L82.2727 356.123C82.5155 356.131 82.7559 356.064 82.9717 355.93C83.1875 355.796 83.3715 355.598 83.5068 355.355C91.9809 340.181 100.805 325.006 109.669 309.831C118.534 294.657 127.482 278.962 136.758 263.54C145.684 248.423 154.673 233.355 163.723 218.338L165.409 218.09C158.416 232.052 151.347 245.997 144.203 259.926C136.717 274.779 128.818 289.631 121.044 304.484C113.783 318.446 106.461 332.432 98.8712 346.419C98.7296 346.677 98.649 346.977 98.6379 347.286C98.6268 347.595 98.6856 347.902 98.8081 348.174C98.9306 348.446 99.1121 348.672 99.3333 348.83C99.5545 348.987 99.8071 349.069 100.064 349.068H113.783C114.05 349.07 114.312 348.98 114.538 348.809C114.764 348.638 114.945 348.393 115.058 348.102C120.941 333.571 127.132 319.04 133.364 304.484C139.596 289.928 145.931 274.779 152.554 259.926C158.807 245.617 165.156 231.301 171.6 216.976L173.287 216.629C168.707 229.832 164.052 243.084 159.321 256.386C154.344 270.62 149.037 284.903 143.73 299.187C138.835 312.604 133.878 326.021 128.674 339.463C128.556 339.729 128.499 340.028 128.509 340.33C128.519 340.631 128.597 340.924 128.734 341.177C128.87 341.43 129.061 341.634 129.286 341.768C129.511 341.902 129.761 341.961 130.011 341.938L143.566 341.27C143.861 341.258 144.144 341.134 144.377 340.916C144.61 340.698 144.779 340.398 144.862 340.057C148.297 326.268 152.04 312.455 155.804 298.642C159.671 284.433 163.394 270.224 167.507 256.014C171.333 242.432 175.241 228.842 179.231 215.243L180.877 214.822C178.518 227.315 176.077 239.874 173.554 252.499C170.963 266.065 167.96 279.729 165.101 293.27C162.489 305.945 159.712 318.768 156.729 331.715C156.665 331.981 156.656 332.261 156.702 332.533C156.748 332.804 156.848 333.058 156.994 333.272C157.14 333.487 157.327 333.655 157.539 333.763C157.75 333.872 157.981 333.916 158.21 333.893L171.456 332.63C171.787 332.598 172.098 332.426 172.335 332.146C172.572 331.865 172.72 331.494 172.752 331.096C173.904 318.149 175.364 305.153 176.866 292.156C178.408 278.665 179.786 265.223 181.555 251.732C183.132 238.909 184.791 226.086 186.533 213.263L188.117 212.743C187.767 224.501 187.397 236.26 186.924 248.019C186.533 260.866 185.751 273.714 185.114 286.587C184.538 298.716 183.9 310.871 183.057 323.075C183.037 323.329 183.064 323.586 183.138 323.825C183.211 324.065 183.327 324.282 183.479 324.46C183.631 324.638 183.815 324.773 184.015 324.854C184.216 324.936 184.43 324.962 184.641 324.932L197.393 323.125C197.76 323.069 198.096 322.845 198.329 322.499C198.563 322.153 198.677 321.712 198.647 321.268C197.742 309.188 197.105 297.083 196.591 284.953C195.953 272.303 195.171 259.653 194.76 246.929C194.266 234.915 193.848 222.901 193.505 210.886L194.986 210.317C196.508 221.283 198.01 232.25 199.408 243.216C201.074 255.222 202.37 267.303 203.79 279.358C205.147 290.795 206.484 302.281 207.553 313.792C207.576 314.023 207.637 314.246 207.733 314.448C207.828 314.649 207.957 314.826 208.11 314.967C208.264 315.108 208.439 315.21 208.626 315.268C208.813 315.325 209.008 315.337 209.199 315.302L221.314 313C221.515 312.964 221.707 312.876 221.878 312.743C222.049 312.61 222.194 312.434 222.303 312.227C222.412 312.021 222.483 311.788 222.511 311.546C222.539 311.303 222.524 311.056 222.465 310.822C219.668 299.682 217.138 288.542 214.65 277.303C211.996 265.495 209.199 253.712 206.792 241.83C204.407 230.69 202.103 219.551 199.861 208.337L201.218 207.718C204.468 217.851 207.649 227.992 210.762 238.141C214.3 249.281 217.488 260.421 220.799 271.734C223.987 282.452 227.155 293.196 230.055 303.915C230.156 304.318 230.379 304.662 230.679 304.877C230.98 305.093 231.337 305.164 231.68 305.078L243.013 302.405C243.229 302.35 243.431 302.236 243.604 302.072C243.778 301.908 243.917 301.699 244.013 301.459C244.108 301.22 244.157 300.958 244.154 300.693C244.152 300.427 244.1 300.166 244 299.929C239.537 289.755 235.321 279.507 231.125 269.258C226.641 258.317 222.033 247.424 217.776 236.433C213.662 226.152 209.638 215.87 205.702 205.589L206.957 204.97C211.592 214.179 216.247 223.421 220.923 232.695C226.168 242.969 231.083 253.341 236.102 263.639C241.121 273.937 245.81 283.443 250.5 293.567C250.652 293.889 250.886 294.142 251.168 294.29C251.45 294.437 251.764 294.47 252.063 294.384L262.471 291.438C262.701 291.373 262.914 291.239 263.09 291.049C263.267 290.86 263.401 290.62 263.481 290.352C263.56 290.083 263.583 289.796 263.547 289.514C263.51 289.233 263.416 288.967 263.273 288.74C257.328 279.507 251.611 270.199 245.934 260.891C239.763 250.989 233.593 240.889 227.607 230.839C221.999 221.481 216.453 212.108 210.968 202.717L212.14 202.074C218.228 210.457 224.275 218.857 230.281 227.274C237.048 236.607 243.527 246.063 250.088 255.494C256.65 264.926 262.861 273.739 268.991 282.948C269.16 283.213 269.392 283.411 269.656 283.516C269.92 283.622 270.204 283.631 270.472 283.542L279.871 280.398C280.117 280.321 280.341 280.167 280.52 279.951C280.699 279.734 280.827 279.464 280.89 279.169C280.953 278.873 280.949 278.562 280.878 278.269C280.807 277.976 280.673 277.711 280.488 277.502C273.248 269.209 266.214 260.842 259.2 252.45C251.59 243.389 243.877 234.354 236.452 225.219C229.513 216.836 222.657 208.411 215.884 199.945L216.953 199.276C224.221 206.752 231.426 214.245 238.57 221.754C246.798 230.195 254.552 238.735 262.491 247.226C270.43 255.717 277.979 263.787 285.486 272.13C285.67 272.338 285.897 272.482 286.143 272.547C286.389 272.613 286.646 272.597 286.885 272.501L295.256 269.283C295.502 269.179 295.72 268.997 295.887 268.756C296.054 268.515 296.164 268.224 296.204 267.914C296.244 267.604 296.213 267.286 296.115 266.996C296.017 266.705 295.855 266.452 295.647 266.263C287.276 258.836 279.192 251.41 270.965 243.983C262.059 235.864 253.03 227.794 244.227 219.575C236.191 212.132 228.19 204.648 220.223 197.123L221.211 196.454C229.438 203.056 237.597 209.657 245.687 216.258C255.004 223.685 264.054 231.383 273.207 238.958C282.36 246.533 291.081 253.811 299.802 261.238C299.988 261.405 300.206 261.514 300.436 261.553C300.666 261.592 300.901 261.56 301.118 261.46L308.44 258.193C308.72 258.085 308.964 257.876 309.141 257.594C309.317 257.312 309.417 256.971 309.426 256.619C309.435 256.266 309.353 255.918 309.191 255.624C309.029 255.33 308.796 255.103 308.523 254.975C299.185 248.489 290.011 241.929 280.838 235.369C270.821 228.19 260.681 221.061 250.829 213.783C241.861 207.297 232.948 200.77 224.09 194.202C224.399 193.979 224.707 193.756 224.995 193.508C233.936 199.202 242.848 204.904 251.734 210.614C262.018 217.174 272.138 223.883 282.319 230.418C292.5 236.953 302.249 243.414 312.019 250.048C312.216 250.159 312.43 250.216 312.647 250.216C312.863 250.216 313.078 250.159 313.274 250.048L319.444 246.855C319.701 246.724 319.919 246.505 320.073 246.225C320.226 245.946 320.308 245.618 320.308 245.283C320.308 244.948 320.226 244.62 320.073 244.341C319.919 244.061 319.701 243.842 319.444 243.711C309.263 238.117 299.246 232.423 289.25 226.729C278.287 220.491 267.222 214.352 256.341 207.99C246.743 202.395 237.144 196.793 227.546 191.181L228.368 190.488C237.926 195.522 247.449 200.432 256.938 205.217C268.106 210.862 279.048 216.654 290.094 222.397C301.139 228.14 311.752 233.661 322.406 239.404C322.593 239.508 322.797 239.562 323.003 239.562C323.209 239.562 323.412 239.508 323.599 239.404L328.865 236.334C329.114 236.182 329.322 235.946 329.461 235.655C329.601 235.364 329.668 235.029 329.652 234.693C329.637 234.357 329.541 234.034 329.375 233.763C329.21 233.491 328.982 233.284 328.721 233.166C317.861 228.413 307.145 223.561 296.429 218.709C284.684 213.387 272.837 208.139 261.236 202.742C251.076 198.072 240.949 193.385 230.857 188.681C231.125 188.458 231.371 188.211 231.618 187.963C241.477 191.924 251.309 195.901 261.113 199.895C272.96 204.648 284.643 209.525 296.367 214.377C308.091 219.229 319.424 223.907 330.798 228.759C330.979 228.856 331.176 228.906 331.374 228.906C331.572 228.906 331.769 228.856 331.95 228.759L336.269 225.888C336.515 225.719 336.714 225.468 336.841 225.164C336.969 224.86 337.019 224.518 336.986 224.181C336.953 223.843 336.839 223.524 336.656 223.264C336.474 223.004 336.232 222.815 335.961 222.719C324.566 218.783 313.336 214.748 302.003 210.713C289.662 206.307 277.177 201.925 264.98 197.444C254.531 193.665 244.11 189.853 233.716 186.008L234.395 185.29L264.404 194.771C276.745 198.657 289.086 202.692 301.283 206.678C313.48 210.664 325.389 214.377 337.318 218.387C337.512 218.45 337.715 218.463 337.914 218.425C338.113 218.386 338.302 218.297 338.47 218.164L341.925 215.515C342.165 215.332 342.354 215.066 342.467 214.752C342.58 214.438 342.612 214.09 342.558 213.754C342.505 213.418 342.369 213.109 342.168 212.867C341.968 212.625 341.711 212.461 341.432 212.396C329.605 209.253 317.881 206.01 306.157 202.767C293.323 199.202 280.427 195.712 267.695 192.073C257.164 189.135 246.654 186.156 236.164 183.136L236.76 182.394L266.728 189.622C279.48 192.692 292.109 195.86 304.779 199.004C317.449 202.148 329.687 205.193 342.008 208.361C342.206 208.419 342.412 208.422 342.612 208.371C342.811 208.32 342.998 208.215 343.159 208.064L345.854 205.589C346.082 205.388 346.255 205.111 346.351 204.791C346.447 204.472 346.461 204.125 346.393 203.796C346.324 203.466 346.176 203.169 345.966 202.942C345.757 202.714 345.496 202.567 345.216 202.519C333.081 200.044 321.028 197.568 308.975 195.093C295.853 192.37 282.648 189.721 269.587 186.899C259.138 184.72 248.704 182.509 238.282 180.265L238.817 179.522C248.621 181.172 258.432 182.889 268.25 184.671C281.229 186.924 294.104 189.3 307.042 191.627C319.979 193.954 332.443 196.231 345.031 198.633C345.236 198.667 345.444 198.649 345.642 198.581C345.84 198.513 346.025 198.396 346.183 198.237L348.24 196.108C348.451 195.89 348.604 195.603 348.68 195.281C348.756 194.96 348.753 194.619 348.669 194.3C348.586 193.981 348.427 193.699 348.212 193.488C347.997 193.276 347.734 193.146 347.458 193.112C335.117 191.462 322.838 189.729 310.621 187.914C297.292 185.983 283.882 184.126 270.677 182.121C260.475 180.636 250.287 179.118 240.113 177.566C240.275 177.321 240.426 177.065 240.565 176.799L268.991 180.091C282.093 181.577 295.112 183.21 308.07 184.77C321.028 186.33 333.698 187.864 346.409 189.523C346.63 189.549 346.852 189.513 347.059 189.418C347.266 189.324 347.452 189.173 347.602 188.978L349.042 187.146C349.232 186.911 349.362 186.614 349.416 186.292C349.469 185.97 349.445 185.637 349.345 185.331C349.245 185.025 349.074 184.761 348.853 184.569C348.631 184.377 348.368 184.267 348.096 184.25C335.755 183.26 323.373 182.22 310.95 181.131C297.601 179.968 284.211 178.854 270.883 177.616L241.512 174.918L241.882 174.125L268.908 175.784C281.99 176.551 294.989 177.467 307.988 178.259C320.987 179.052 333.554 179.943 346.265 180.883C346.5 180.896 346.734 180.842 346.948 180.726C347.163 180.61 347.352 180.435 347.499 180.215L348.466 178.631C348.626 178.381 348.725 178.083 348.752 177.769C348.779 177.456 348.734 177.139 348.621 176.855C348.508 176.57 348.332 176.329 348.112 176.157C347.893 175.986 347.638 175.891 347.376 175.883C335.035 175.561 322.694 175.14 310.23 174.72C296.943 174.249 283.615 173.853 270.369 173.333L242.704 172.442C242.704 172.17 242.89 171.897 242.972 171.65L268.25 171.897C281.208 171.897 294.104 172.244 307.021 172.417C319.938 172.591 332.299 172.789 344.887 173.061C345.141 173.06 345.39 172.98 345.61 172.828C345.83 172.676 346.013 172.458 346.142 172.195L346.759 170.883C346.868 170.621 346.92 170.331 346.909 170.039C346.898 169.747 346.825 169.463 346.697 169.215C346.569 168.967 346.391 168.762 346.178 168.62C345.966 168.479 345.727 168.406 345.484 168.407C333.143 168.671 320.864 168.886 308.646 169.051C295.544 169.273 282.422 169.521 269.361 169.645L243.486 169.942C243.486 169.67 243.486 169.397 243.651 169.15L266.913 168.234C279.624 167.739 292.322 167.293 305.006 166.897C317.346 166.451 329.687 166.055 342.028 165.709C342.311 165.694 342.583 165.581 342.813 165.383C343.043 165.185 343.221 164.911 343.324 164.595L343.653 163.555C343.74 163.289 343.769 163.001 343.739 162.717C343.709 162.434 343.62 162.164 343.481 161.933C343.342 161.701 343.157 161.515 342.942 161.392C342.728 161.269 342.492 161.213 342.254 161.228C330.147 162.07 318.059 162.895 305.993 163.704C293.179 164.521 280.365 165.362 267.551 166.179L243.836 167.59V166.773L264.877 164.966C277.218 163.902 289.559 162.936 302.003 161.921C314.014 160.931 326.019 159.982 338.017 159.074C338.334 159.054 338.636 158.906 338.874 158.654C339.113 158.403 339.275 158.063 339.334 157.688L339.457 156.871C339.503 156.609 339.498 156.338 339.441 156.079C339.383 155.82 339.276 155.58 339.128 155.38C338.98 155.18 338.795 155.025 338.588 154.927C338.38 154.829 338.157 154.791 337.935 154.817C326.129 156.203 314.323 157.523 302.517 158.777C290.073 160.164 277.65 161.575 265.227 162.862L243.836 165.115V164.322L262.532 161.847C274.503 160.263 286.474 158.777 298.444 157.243C309.976 155.757 321.522 154.305 333.081 152.886C333.43 152.837 333.753 152.637 333.988 152.322C334.222 152.008 334.354 151.601 334.356 151.178V150.584C334.355 150.34 334.311 150.1 334.227 149.879C334.143 149.658 334.022 149.46 333.871 149.299C333.719 149.138 333.541 149.017 333.349 148.944C333.156 148.871 332.953 148.848 332.752 148.875C321.316 150.74 309.88 152.547 298.444 154.297C286.474 156.153 274.503 158.06 262.532 159.867L243.589 162.738C243.533 162.47 243.464 162.205 243.383 161.946L259.653 159.05C271.15 156.995 282.648 155.039 294.125 153.034C305.095 151.136 316.099 149.255 327.137 147.39C327.329 147.355 327.514 147.272 327.679 147.149C327.844 147.025 327.987 146.862 328.099 146.67C328.21 146.478 328.288 146.261 328.328 146.031C328.368 145.802 328.368 145.565 328.33 145.336V144.89C328.255 144.458 328.044 144.077 327.741 143.827C327.438 143.578 327.067 143.48 326.705 143.553C315.722 145.855 304.738 148.059 293.796 150.287C282.278 152.415 270.801 154.635 259.365 156.946L242.91 160.188C242.91 159.941 242.704 159.669 242.581 159.421L256.444 156.327C267.386 153.851 278.329 151.376 289.353 149.074C299.706 146.78 310.079 144.519 320.473 142.291C320.694 142.245 320.903 142.138 321.084 141.979C321.264 141.819 321.412 141.61 321.513 141.37C321.615 141.129 321.669 140.864 321.671 140.594C321.672 140.324 321.621 140.057 321.522 139.815L321.419 139.543C321.295 139.172 321.066 138.866 320.772 138.68C320.478 138.494 320.139 138.44 319.815 138.528C309.366 141.201 298.91 143.826 288.448 146.4C277.609 149.098 266.769 151.846 255.889 154.495L241.882 157.911L241.388 157.193L252.906 154.049C263.19 151.227 273.598 148.479 283.964 145.707C293.563 143.116 303.243 140.541 313.007 137.983C313.234 137.926 313.446 137.802 313.624 137.622C313.802 137.443 313.941 137.213 314.028 136.954C314.116 136.695 314.149 136.414 314.125 136.136C314.101 135.858 314.021 135.591 313.891 135.359V135.186C313.722 134.895 313.485 134.672 313.211 134.544C312.936 134.416 312.636 134.39 312.348 134.468C302.517 137.488 292.623 140.409 282.751 143.355C272.467 146.4 262.347 149.47 252.125 152.465L240.277 155.955L239.64 155.262L248.875 152.292C258.542 149.148 268.291 146.103 278 143.009C286.926 140.162 295.873 137.315 304.862 134.542C305.1 134.468 305.318 134.32 305.495 134.114C305.671 133.907 305.8 133.649 305.869 133.364C305.937 133.079 305.943 132.778 305.885 132.49C305.828 132.202 305.709 131.937 305.54 131.72C305.358 131.484 305.125 131.315 304.866 131.232C304.608 131.149 304.335 131.155 304.08 131.25C294.879 134.551 285.658 137.794 276.416 140.979C266.893 144.321 257.39 147.663 247.826 150.881C244.679 151.995 241.512 153.059 238.344 154.148L237.562 153.48L244.885 150.732C253.852 147.341 262.902 144.024 271.952 140.682C280.18 137.645 288.366 134.633 296.511 131.646C296.757 131.555 296.978 131.386 297.151 131.157C297.325 130.928 297.444 130.647 297.496 130.344C297.549 130.04 297.533 129.725 297.45 129.432C297.367 129.139 297.22 128.877 297.025 128.676C296.834 128.491 296.608 128.367 296.368 128.315C296.127 128.263 295.879 128.285 295.647 128.379C287.152 131.894 278.596 135.359 270.04 138.8C261.483 142.241 252.454 145.954 243.589 149.47L236.082 152.465L235.135 151.896L240.648 149.42C248.875 145.831 257.287 142.291 265.597 138.751C273.001 135.582 280.42 132.43 287.852 129.294C288.106 129.19 288.331 129 288.499 128.748C288.668 128.496 288.774 128.191 288.804 127.869C288.834 127.548 288.788 127.222 288.67 126.931C288.552 126.64 288.368 126.395 288.14 126.225C287.954 126.076 287.741 125.982 287.519 125.952C287.298 125.922 287.073 125.956 286.864 126.052C279.09 129.732 271.267 133.387 263.396 137.018C255.333 140.781 247.291 144.444 239.167 148.257L233.367 151.004L232.276 150.485L236.246 148.529C243.774 144.791 251.405 141.102 258.995 137.365C265.617 134.064 272.254 130.829 278.905 127.661C279.161 127.541 279.382 127.335 279.543 127.066C279.703 126.798 279.796 126.48 279.809 126.149C279.822 125.819 279.755 125.491 279.617 125.206C279.478 124.921 279.273 124.69 279.028 124.542C278.835 124.431 278.624 124.374 278.411 124.374C278.197 124.374 277.987 124.431 277.794 124.542C270.759 128.354 263.663 132.141 256.567 135.904C249.471 139.667 241.964 143.702 234.601 147.563L230.364 149.767L229.15 149.346L231.803 147.836C238.591 143.974 245.481 140.162 252.372 136.325C258.213 133.057 264.075 129.765 269.978 126.423C270.233 126.287 270.449 126.065 270.601 125.784C270.754 125.502 270.834 125.174 270.834 124.839C270.834 124.503 270.754 124.175 270.601 123.893C270.449 123.612 270.233 123.39 269.978 123.254C269.79 123.156 269.587 123.106 269.381 123.106C269.176 123.106 268.973 123.156 268.785 123.254C262.614 127.141 256.156 131.027 249.801 134.889C243.445 138.751 236.719 142.86 230.117 146.821L227.196 148.578L225.859 148.232L227.443 147.217C233.469 143.281 239.619 139.394 245.728 135.458C250.829 132.191 256.012 128.923 261.092 125.68C261.34 125.52 261.543 125.276 261.676 124.979C261.81 124.681 261.868 124.343 261.844 124.007C261.82 123.67 261.714 123.349 261.541 123.083C261.367 122.818 261.133 122.619 260.866 122.512C260.673 122.437 260.469 122.412 260.267 122.437C260.065 122.463 259.87 122.539 259.694 122.66C254.209 126.588 248.628 130.499 242.951 134.394C237.172 138.429 231.413 142.489 225.571 146.499L223.72 147.786L222.301 147.539L223 147.019C228.307 143.033 233.696 139.097 239.064 135.161C243.438 131.861 247.847 128.634 252.289 125.482C252.527 125.303 252.717 125.045 252.834 124.738C252.952 124.431 252.992 124.09 252.951 123.756C252.909 123.422 252.787 123.11 252.6 122.858C252.414 122.606 252.17 122.426 251.898 122.338C251.703 122.28 251.499 122.272 251.301 122.315C251.102 122.358 250.914 122.45 250.747 122.586C245.975 126.497 241.121 130.408 236.349 134.32C231.577 138.231 226.332 142.414 221.231 146.425L220.203 147.242H219.195L222.445 144.024C225.818 141.102 229.232 138.206 232.729 135.31C236.226 132.414 240.133 128.997 243.897 125.854C244.095 125.685 244.254 125.459 244.36 125.196C244.466 124.934 244.515 124.643 244.502 124.352C244.49 124.061 244.417 123.778 244.29 123.53C244.162 123.282 243.985 123.076 243.774 122.932L267.53 99.0193C283.306 82.9287 299.493 66.838 315.536 50.8712C330.716 35.6717 345.957 20.4475 361.465 5.29757C361.699 5.09066 361.875 4.80352 361.971 4.47382C362.067 4.14411 362.078 3.78723 362.002 3.44998C361.927 3.11273 361.768 2.81085 361.548 2.58395C361.327 2.35704 361.054 2.2157 360.766 2.17846Z" fill="white"/>
    </g>
    <defs>
        <clipPath id="clip0_4_557">
            <rect width="362" height="366" fill="white"/>
        </clipPath>
    </defs>
</svg>