<svg width="92" height="86" viewBox="0 0 92 86" fill="none" xmlns="http://www.w3.org/2000/svg">
<path d="M4.83318 0H86.4393C86.8977 0.0987186 87.3562 0.15795 87.8147 0.296156C90.0428 1.00693 91.299 2.9813 91.299 5.77504C91.299 22.6888 91.299 39.6026 91.299 56.5164V57.4345H0.000976562C0.000976562 57.1976 0.000976562 57.0199 0.000976562 56.852C0.000976562 39.6026 0.000976562 22.3598 0.000976562 5.12349C0.017043 3.87931 0.468987 2.68756 1.26633 1.78681C2.21008 0.73825 3.48032 0.101931 4.83318 0ZM49.1297 34.7095H21.1086C20.8636 34.764 20.6108 34.764 20.3658 34.7095C20.0633 34.5515 19.6415 34.2948 19.5956 34.0086C19.4947 33.4853 19.889 33.2287 20.3841 33.2385H21.136C30.3725 33.2385 39.6059 33.2385 48.8363 33.2385C49.0743 33.2814 49.3187 33.23 49.5244 33.0939C49.73 32.9578 49.8829 32.7462 49.9549 32.4982C51.185 29.3917 53.2928 26.7813 55.9789 25.0376C58.6651 23.2939 61.7931 22.5054 64.9191 22.7843C65.6801 22.8435 66.432 22.9817 67.2389 23.0804V10.247C67.2389 7.20646 65.8085 5.67632 62.9752 5.67632H18.2478C17.9727 5.67632 17.6976 5.67632 17.4133 5.67632C16.4857 5.71966 15.6097 6.14778 14.9687 6.87098C14.3278 7.59418 13.9716 8.55635 13.9749 9.55596C13.9749 19.0988 13.9749 28.6416 13.9749 38.1844C13.9336 38.7422 14.0064 39.303 14.1881 39.8274C14.3699 40.3517 14.6561 40.8268 15.0267 41.2192C15.3973 41.6116 15.8433 41.9118 16.3332 42.0987C16.8232 42.2856 17.3452 42.3546 17.8626 42.3009H48.1211C48.4145 42.3009 48.7079 42.3009 48.9371 42.3009C48.8546 40.9682 48.6987 39.754 48.7263 38.5299C48.7538 37.3058 48.9922 36.0125 49.1297 34.7095ZM63.6262 53.466C67.117 53.4944 70.4838 52.0745 73.0278 49.501C75.5718 46.9275 77.0975 43.3981 77.2884 39.6454C77.5634 31.4814 71.7868 24.5513 64.4514 24.2946C62.6019 24.0997 60.7349 24.3158 58.9661 24.9296C57.1974 25.5434 55.5645 26.5417 54.1689 27.8628C52.7732 29.1839 51.6444 30.7995 50.8525 32.6096C50.0605 34.4196 49.6224 36.3855 49.5651 38.3853C49.5078 40.3851 49.8327 42.3763 50.5196 44.2354C51.2064 46.0946 52.2407 47.782 53.5581 49.1931C54.8756 50.6042 56.4482 51.709 58.1785 52.4389C59.9088 53.1688 61.7599 53.5083 63.6171 53.4364L63.6262 53.466Z" fill="white"/>
<path d="M0.0195414 59.0633H91.2441C91.2441 61.6102 91.4092 64.1276 91.2441 66.6153C91.103 67.7384 90.6029 68.7735 89.8299 69.5428C89.0568 70.312 88.059 70.7674 87.008 70.8305C86.5468 70.8586 86.0845 70.8586 85.6234 70.8305C76.7537 70.8305 67.8901 70.8305 59.0326 70.8305C58.3174 70.8305 57.859 70.9984 57.6389 71.7486C57.0513 73.4171 56.5553 75.1213 56.1535 76.8524C55.6125 79.8929 56.7128 82.3411 58.9043 84.276C59.1778 84.606 59.3978 84.9831 59.5553 85.3915C59.1836 85.6413 58.7739 85.8184 58.345 85.9147C49.8909 85.9147 41.4369 85.9147 32.9829 85.9147C32.8454 85.9147 32.6803 85.9147 32.5703 85.9147C32.2952 85.7568 31.9009 85.5988 31.8276 85.3521C31.8189 85.1881 31.8459 85.0241 31.9064 84.8733C31.9669 84.7225 32.0592 84.589 32.176 84.4833C35.156 82.1931 35.8437 79.0933 34.9726 75.4506C34.6517 74.1672 34.1107 72.9333 33.6981 71.6697C33.6176 71.3904 33.4463 71.1518 33.2155 70.9976C32.9847 70.8435 32.71 70.7841 32.4419 70.8305C23.4286 70.8305 14.4152 70.8305 5.40187 70.8305C4.5933 70.9103 3.77904 70.7715 3.03289 70.4267C2.28675 70.082 1.6323 69.5421 1.12898 68.8562C0.596626 68.1689 0.245177 67.3405 0.111211 66.4573C-0.063004 64.0782 0.0195414 61.5905 0.0195414 59.0633ZM48.4239 64.1868C48.4239 63.3909 48.1302 62.6275 47.6074 62.0647C47.0847 61.5019 46.3757 61.1857 45.6364 61.1857C44.8972 61.1857 44.1882 61.5019 43.6654 62.0647C43.1427 62.6275 42.8489 63.3909 42.8489 64.1868C42.8489 64.9827 43.1427 65.746 43.6654 66.3088C44.1882 66.8716 44.8972 67.1878 45.6364 67.1878C46.3757 67.1878 47.0847 66.8716 47.6074 66.3088C48.1302 65.746 48.4239 64.9827 48.4239 64.1868Z" fill="white"/>
<path d="M57.4651 15.9727C57.4651 16.9489 57.1962 17.9032 56.6925 18.7149C56.1887 19.5266 55.4727 20.1593 54.635 20.5329C53.7973 20.9065 52.8755 21.0042 51.9861 20.8138C51.0968 20.6233 50.2799 20.1532 49.6387 19.4629C48.9975 18.7726 48.5609 17.8931 48.384 16.9356C48.2071 15.9781 48.2979 14.9857 48.6449 14.0838C48.9919 13.1819 49.5795 12.411 50.3335 11.8686C51.0874 11.3262 51.9738 11.0367 52.8805 11.0367C54.0905 11.0571 55.2457 11.5837 56.1014 12.505C56.9572 13.4263 57.4462 14.6699 57.4651 15.9727Z" fill="white"/>
<path d="M27.7378 14.7683H20.9893C20.7967 14.7683 20.595 14.7683 20.4024 14.7683C19.9164 14.7683 19.5589 14.5511 19.568 14.0082C19.5772 13.4652 19.9256 13.2678 20.4116 13.2678H35.0824C35.5683 13.2678 35.9167 13.4455 35.9167 14.018C35.9167 14.5906 35.55 14.7683 35.0732 14.7683C32.625 14.7584 30.186 14.7584 27.7378 14.7683Z" fill="white"/>
<path d="M27.7566 21.412C25.3726 21.412 22.9794 21.412 20.5954 21.412C20.082 21.412 19.5777 21.3528 19.5685 20.6815C19.5593 20.0102 20.0453 19.9115 20.5679 19.9115H34.8994C35.3945 19.9115 35.8989 19.9115 35.9081 20.6519C35.9172 21.3923 35.4404 21.412 34.9269 21.412H27.7566Z" fill="white"/>
<path d="M60.9583 42.37L65.7355 37.6414C66.8174 36.5654 67.8902 35.4795 68.9813 34.4133C69.1665 34.1935 69.3953 34.0214 69.6507 33.9098C69.763 33.8745 69.8815 33.8687 69.9964 33.8927C70.1112 33.9167 70.2191 33.97 70.3109 34.0481C70.3855 34.1612 70.4372 34.29 70.4624 34.4261C70.4877 34.5622 70.4861 34.7025 70.4576 34.8378C70.3401 35.1091 70.1602 35.3435 69.935 35.519L61.9119 43.5053C61.0408 44.3839 60.8758 44.374 60.0047 43.4362L57.1989 40.4055C56.8321 40.0205 56.5479 39.5763 57.0063 39.0926C57.4648 38.6089 57.8591 38.9544 58.2075 39.3394L60.9583 42.37Z" fill="white"/>
</svg>
