<svg width="1007" height="178" viewBox="0 0 1007 178" fill="none" xmlns="http://www.w3.org/2000/svg">
<path opacity="0.3" d="M123.246 73.5455C123.246 87.821 120.54 99.9659 115.129 109.98C109.759 119.994 102.43 127.643 93.1399 132.928C83.8928 138.169 73.495 140.79 61.9467 140.79C50.3132 140.79 39.8729 138.148 30.6257 132.864C21.3786 127.58 14.0703 119.93 8.701 109.916C3.33168 99.902 0.647017 87.7784 0.647017 73.5455C0.647017 59.2699 3.33168 47.125 8.701 37.1108C14.0703 27.0966 21.3786 19.4687 30.6257 14.2273C39.8729 8.94318 50.3132 6.30113 61.9467 6.30113C73.495 6.30113 83.8928 8.94318 93.1399 14.2273C102.43 19.4687 109.759 27.0966 115.129 37.1108C120.54 47.125 123.246 59.2699 123.246 73.5455ZM95.1854 73.5455C95.1854 64.2983 93.8004 56.5 91.0305 50.1506C88.3033 43.8011 84.4467 38.9858 79.4609 35.7045C74.4751 32.4233 68.6371 30.7827 61.9467 30.7827C55.2564 30.7827 49.4183 32.4233 44.4325 35.7045C39.4467 38.9858 35.5689 43.8011 32.799 50.1506C30.0717 56.5 28.7081 64.2983 28.7081 73.5455C28.7081 82.7926 30.0717 90.5909 32.799 96.9403C35.5689 103.29 39.4467 108.105 44.4325 111.386C49.4183 114.668 55.2564 116.308 61.9467 116.308C68.6371 116.308 74.4751 114.668 79.4609 111.386C84.4467 108.105 88.3033 103.29 91.0305 96.9403C93.8004 90.5909 95.1854 82.7926 95.1854 73.5455ZM206.199 97.196V40.8182H233.429V139H207.286V121.166H206.263C204.047 126.919 200.361 131.543 195.205 135.037C190.091 138.531 183.848 140.278 176.476 140.278C169.914 140.278 164.14 138.787 159.154 135.804C154.168 132.821 150.269 128.581 147.456 123.084C144.686 117.587 143.28 111.003 143.238 103.332V40.8182H170.468V98.4744C170.51 104.27 172.066 108.851 175.134 112.217C178.202 115.584 182.314 117.267 187.471 117.267C190.752 117.267 193.82 116.521 196.675 115.03C199.53 113.496 201.831 111.237 203.578 108.254C205.368 105.271 206.242 101.585 206.199 97.196ZM255.21 139V40.8182H281.609V57.9489H282.632C284.422 51.8551 287.426 47.2528 291.645 44.142C295.864 40.9886 300.722 39.4119 306.219 39.4119C307.582 39.4119 309.053 39.4972 310.629 39.6676C312.206 39.8381 313.591 40.0724 314.784 40.3707V64.5327C313.506 64.1491 311.737 63.8082 309.479 63.5099C307.22 63.2116 305.153 63.0625 303.278 63.0625C299.273 63.0625 295.693 63.9361 292.54 65.6832C289.429 67.3878 286.957 69.7741 285.125 72.8423C283.335 75.9105 282.44 79.4474 282.44 83.4531V139H255.21ZM442.05 45.7401C441.538 40.5838 439.344 36.5781 435.466 33.723C431.588 30.8679 426.325 29.4403 419.678 29.4403C415.161 29.4403 411.347 30.0795 408.236 31.358C405.125 32.5938 402.739 34.3196 401.077 36.5355C399.457 38.7514 398.648 41.2656 398.648 44.0781C398.563 46.4219 399.053 48.4673 400.118 50.2145C401.226 51.9616 402.739 53.4744 404.656 54.7528C406.574 55.9886 408.79 57.0753 411.304 58.0128C413.818 58.9077 416.503 59.6747 419.358 60.3139L431.119 63.1264C436.83 64.4048 442.071 66.1094 446.844 68.2401C451.616 70.3707 455.75 72.9915 459.244 76.1023C462.739 79.2131 465.445 82.8778 467.362 87.0966C469.322 91.3153 470.324 96.152 470.366 101.607C470.324 109.618 468.278 116.564 464.23 122.445C460.224 128.283 454.429 132.821 446.844 136.06C439.301 139.256 430.203 140.854 419.55 140.854C408.982 140.854 399.777 139.234 391.936 135.996C384.138 132.757 378.044 127.963 373.655 121.614C369.308 115.222 367.028 107.317 366.815 97.8991H393.598C393.896 102.288 395.153 105.953 397.369 108.893C399.628 111.791 402.632 113.986 406.382 115.477C410.175 116.926 414.457 117.651 419.23 117.651C423.918 117.651 427.987 116.969 431.439 115.605C434.933 114.241 437.639 112.345 439.557 109.916C441.474 107.487 442.433 104.696 442.433 101.543C442.433 98.6023 441.56 96.1307 439.812 94.1278C438.108 92.125 435.594 90.4205 432.27 89.0142C428.989 87.608 424.962 86.3295 420.189 85.179L405.935 81.5994C394.898 78.9148 386.183 74.7173 379.791 69.0071C373.399 63.2969 370.224 55.6051 370.267 45.9318C370.224 38.0057 372.334 31.081 376.595 25.1577C380.899 19.2344 386.801 14.6108 394.301 11.2869C401.801 7.96306 410.324 6.30113 419.869 6.30113C429.585 6.30113 438.065 7.96306 445.31 11.2869C452.597 14.6108 458.264 19.2344 462.312 25.1577C466.361 31.081 468.449 37.9418 468.577 45.7401H442.05ZM532.833 140.918C522.904 140.918 514.317 138.808 507.073 134.589C499.871 130.328 494.31 124.405 490.39 116.82C486.469 109.192 484.509 100.349 484.509 90.2926C484.509 80.1506 486.469 71.2869 490.39 63.7017C494.31 56.0739 499.871 50.1506 507.073 45.9318C514.317 41.6705 522.904 39.5398 532.833 39.5398C542.762 39.5398 551.327 41.6705 558.529 45.9318C565.773 50.1506 571.355 56.0739 575.276 63.7017C579.196 71.2869 581.157 80.1506 581.157 90.2926C581.157 100.349 579.196 109.192 575.276 116.82C571.355 124.405 565.773 130.328 558.529 134.589C551.327 138.808 542.762 140.918 532.833 140.918ZM532.961 119.824C537.478 119.824 541.249 118.545 544.275 115.989C547.3 113.389 549.58 109.852 551.114 105.378C552.691 100.903 553.479 95.8111 553.479 90.1009C553.479 84.3906 552.691 79.2983 551.114 74.8239C549.58 70.3494 547.3 66.8125 544.275 64.2131C541.249 61.6136 537.478 60.3139 532.961 60.3139C528.401 60.3139 524.566 61.6136 521.455 64.2131C518.387 66.8125 516.064 70.3494 514.488 74.8239C512.953 79.2983 512.186 84.3906 512.186 90.1009C512.186 95.8111 512.953 100.903 514.488 105.378C516.064 109.852 518.387 113.389 521.455 115.989C524.566 118.545 528.401 119.824 532.961 119.824ZM626.093 8.09091V139H598.863V8.09091H626.093ZM739.44 40.8182L705.114 139H674.433L640.107 40.8182H668.871L689.262 111.067H690.285L710.612 40.8182H739.44ZM753.374 139V40.8182H780.604V139H753.374ZM767.053 28.1619C763.005 28.1619 759.532 26.8196 756.634 24.1349C753.779 21.4077 752.352 18.1477 752.352 14.3551C752.352 10.6051 753.779 7.38778 756.634 4.70312C759.532 1.97585 763.005 0.612209 767.053 0.612209C771.102 0.612209 774.553 1.97585 777.408 4.70312C780.306 7.38778 781.755 10.6051 781.755 14.3551C781.755 18.1477 780.306 21.4077 777.408 24.1349C774.553 26.8196 771.102 28.1619 767.053 28.1619ZM829.647 82.2386V139H802.417V40.8182H828.369V58.1406H829.52C831.693 52.4304 835.336 47.9133 840.45 44.5895C845.564 41.223 851.764 39.5398 859.051 39.5398C865.869 39.5398 871.814 41.0312 876.885 44.0142C881.956 46.9972 885.897 51.2585 888.71 56.7983C891.522 62.2955 892.929 68.858 892.929 76.4858V139H865.699V81.3438C865.741 75.3352 864.207 70.6477 861.096 67.2812C857.985 63.8722 853.703 62.1676 848.248 62.1676C844.583 62.1676 841.345 62.956 838.532 64.5327C835.762 66.1094 833.589 68.4105 832.012 71.4361C830.478 74.419 829.69 78.0199 829.647 82.2386ZM958.623 177.864C949.802 177.864 942.238 176.649 935.931 174.22C929.667 171.834 924.681 168.574 920.974 164.44C917.266 160.307 914.859 155.662 913.751 150.506L938.935 147.118C939.702 149.078 940.917 150.911 942.579 152.615C944.241 154.32 946.435 155.683 949.163 156.706C951.933 157.771 955.299 158.304 959.262 158.304C965.185 158.304 970.065 156.855 973.9 153.957C977.778 151.102 979.717 146.308 979.717 139.575V121.614H978.566C977.373 124.341 975.583 126.919 973.197 129.348C970.81 131.777 967.742 133.759 963.992 135.293C960.242 136.827 955.768 137.594 950.569 137.594C943.197 137.594 936.485 135.889 930.434 132.48C924.425 129.028 919.631 123.766 916.052 116.692C912.515 109.575 910.746 100.584 910.746 89.7173C910.746 78.5952 912.558 69.3054 916.18 61.848C919.802 54.3906 924.617 48.8082 930.626 45.1009C936.677 41.3935 943.303 39.5398 950.505 39.5398C956.002 39.5398 960.604 40.4773 964.312 42.3523C968.019 44.1847 971.002 46.4858 973.261 49.2557C975.562 51.983 977.33 54.6676 978.566 57.3097H979.589V40.8182H1006.63V139.959C1006.63 148.311 1004.58 155.3 1000.49 160.925C996.4 166.55 990.732 170.768 983.488 173.581C976.286 176.436 967.998 177.864 958.623 177.864ZM959.198 117.139C963.587 117.139 967.295 116.053 970.32 113.879C973.388 111.663 975.732 108.51 977.352 104.419C979.013 100.286 979.844 95.3423 979.844 89.5895C979.844 83.8366 979.035 78.8509 977.415 74.6321C975.796 70.3707 973.452 67.0682 970.384 64.7244C967.316 62.3807 963.587 61.2088 959.198 61.2088C954.724 61.2088 950.952 62.4233 947.884 64.8523C944.816 67.2386 942.494 70.5625 940.917 74.8239C939.34 79.0852 938.552 84.0071 938.552 89.5895C938.552 95.2571 939.34 100.158 940.917 104.291C942.536 108.382 944.859 111.557 947.884 113.815C950.952 116.031 954.724 117.139 959.198 117.139Z" fill="#0068FF" fill-opacity="0.58"/>
</svg>
