<svg width="843" height="172" viewBox="0 0 843 172" fill="none" xmlns="http://www.w3.org/2000/svg">
<path opacity="0.3" d="M123.135 67.5455C123.135 81.821 120.429 93.9659 115.017 103.98C109.648 113.994 102.318 121.643 93.0286 126.928C83.7814 132.169 73.3837 134.79 61.8354 134.79C50.2019 134.79 39.7615 132.148 30.5144 126.864C21.2672 121.58 13.959 113.93 8.58967 103.916C3.22035 93.902 0.535689 81.7784 0.535689 67.5455C0.535689 53.2699 3.22035 41.125 8.58967 31.1108C13.959 21.0966 21.2672 13.4687 30.5144 8.22727C39.7615 2.94318 50.2019 0.301131 61.8354 0.301131C73.3837 0.301131 83.7814 2.94318 93.0286 8.22727C102.318 13.4687 109.648 21.0966 115.017 31.1108C120.429 41.125 123.135 53.2699 123.135 67.5455ZM95.074 67.5455C95.074 58.2983 93.6891 50.5 90.9192 44.1506C88.1919 37.8011 84.3354 32.9858 79.3496 29.7045C74.3638 26.4233 68.5257 24.7827 61.8354 24.7827C55.1451 24.7827 49.307 26.4233 44.3212 29.7045C39.3354 32.9858 35.4576 37.8011 32.6877 44.1506C29.9604 50.5 28.5968 58.2983 28.5968 67.5455C28.5968 76.7926 29.9604 84.5909 32.6877 90.9403C35.4576 97.2898 39.3354 102.105 44.3212 105.386C49.307 108.668 55.1451 110.308 61.8354 110.308C68.5257 110.308 74.3638 108.668 79.3496 105.386C84.3354 102.105 88.1919 97.2898 90.9192 90.9403C93.6891 84.5909 95.074 76.7926 95.074 67.5455ZM206.088 91.196V34.8182H233.318V133H207.175V115.166H206.152C203.936 120.919 200.25 125.543 195.094 129.037C189.98 132.531 183.737 134.278 176.365 134.278C169.802 134.278 164.028 132.787 159.042 129.804C154.057 126.821 150.157 122.581 147.345 117.084C144.575 111.587 143.169 105.003 143.126 97.3324V34.8182H170.356V92.4744C170.399 98.2699 171.954 102.851 175.023 106.217C178.091 109.584 182.203 111.267 187.359 111.267C190.64 111.267 193.709 110.521 196.564 109.03C199.419 107.496 201.72 105.237 203.467 102.254C205.257 99.2713 206.131 95.5852 206.088 91.196ZM255.099 133V34.8182H281.498V51.9489H282.521C284.311 45.8551 287.315 41.2528 291.534 38.142C295.752 34.9886 300.61 33.4119 306.107 33.4119C307.471 33.4119 308.941 33.4972 310.518 33.6676C312.095 33.8381 313.48 34.0724 314.673 34.3707V58.5327C313.394 58.1491 311.626 57.8082 309.367 57.5099C307.109 57.2116 305.042 57.0625 303.167 57.0625C299.161 57.0625 295.582 57.9361 292.428 59.6832C289.318 61.3878 286.846 63.7741 285.014 66.8423C283.224 69.9105 282.329 73.4474 282.329 77.4531V133H255.099ZM370.923 133V2.09091H422.57C432.457 2.09091 440.894 3.85937 447.883 7.3963C454.914 10.8906 460.262 15.8551 463.927 22.2898C467.634 28.6818 469.488 36.2031 469.488 44.8537C469.488 53.5469 467.613 61.0256 463.863 67.2898C460.113 73.5114 454.68 78.2841 447.563 81.608C440.49 84.9318 431.924 86.5938 421.867 86.5938H387.286V64.3494H417.393C422.677 64.3494 427.066 63.625 430.561 62.1761C434.055 60.7273 436.654 58.554 438.359 55.6562C440.106 52.7585 440.98 49.1577 440.98 44.8537C440.98 40.5071 440.106 36.8423 438.359 33.8594C436.654 30.8764 434.034 28.6179 430.497 27.0838C427.002 25.5071 422.592 24.7188 417.265 24.7188H398.6V133H370.923ZM441.619 73.4261L474.154 133H443.6L411.768 73.4261H441.619ZM516.534 134.854C510.269 134.854 504.687 133.767 499.786 131.594C494.886 129.378 491.008 126.118 488.153 121.814C485.34 117.467 483.934 112.055 483.934 105.578C483.934 100.124 484.936 95.5426 486.938 91.8352C488.941 88.1278 491.669 85.1449 495.12 82.8864C498.572 80.6278 502.492 78.9233 506.882 77.7727C511.313 76.6222 515.958 75.8125 520.816 75.3438C526.526 74.7472 531.129 74.1932 534.623 73.6818C538.117 73.1278 540.653 72.3182 542.23 71.2528C543.806 70.1875 544.595 68.6108 544.595 66.5227V66.1392C544.595 62.0909 543.316 58.9588 540.759 56.7429C538.245 54.527 534.666 53.419 530.021 53.419C525.12 53.419 521.221 54.5057 518.323 56.679C515.426 58.8097 513.508 61.4943 512.57 64.733L487.386 62.6875C488.664 56.7216 491.178 51.5653 494.928 47.2188C498.678 42.8295 503.515 39.4631 509.438 37.1193C515.404 34.733 522.308 33.5398 530.149 33.5398C535.603 33.5398 540.823 34.179 545.809 35.4574C550.838 36.7358 555.291 38.7173 559.169 41.402C563.089 44.0866 566.178 47.5384 568.437 51.7571C570.695 55.9332 571.825 60.9403 571.825 66.7784V133H546.001V119.385H545.234C543.657 122.453 541.548 125.159 538.906 127.503C536.264 129.804 533.089 131.615 529.382 132.936C525.674 134.214 521.392 134.854 516.534 134.854ZM524.332 116.061C528.338 116.061 531.874 115.273 534.943 113.696C538.011 112.077 540.419 109.903 542.166 107.176C543.913 104.449 544.786 101.359 544.786 97.9077V87.4886C543.934 88.0426 542.762 88.554 541.271 89.0227C539.822 89.4489 538.181 89.8537 536.349 90.2372C534.517 90.5781 532.684 90.8977 530.852 91.196C529.019 91.4517 527.357 91.6861 525.866 91.8991C522.67 92.3679 519.879 93.1136 517.492 94.1364C515.106 95.1591 513.252 96.544 511.931 98.2912C510.61 99.9957 509.95 102.126 509.95 104.683C509.95 108.391 511.292 111.224 513.977 113.185C516.704 115.102 520.156 116.061 524.332 116.061ZM620.181 76.2386V133H592.95V34.8182H618.902V52.1406H620.053C622.226 46.4304 625.869 41.9133 630.983 38.5895C636.097 35.223 642.297 33.5398 649.584 33.5398C656.402 33.5398 662.347 35.0312 667.418 38.0142C672.489 40.9972 676.431 45.2585 679.243 50.7983C682.056 56.2955 683.462 62.858 683.462 70.4858V133H656.232V75.3438C656.274 69.3352 654.74 64.6477 651.629 61.2812C648.519 57.8722 644.236 56.1676 638.781 56.1676C635.117 56.1676 631.878 56.956 629.066 58.5327C626.296 60.1094 624.122 62.4105 622.546 65.4361C621.012 68.419 620.223 72.0199 620.181 76.2386ZM749.156 171.864C740.335 171.864 732.771 170.649 726.464 168.22C720.2 165.834 715.214 162.574 711.507 158.44C707.8 154.307 705.392 149.662 704.284 144.506L729.469 141.118C730.236 143.078 731.45 144.911 733.112 146.615C734.774 148.32 736.969 149.683 739.696 150.706C742.466 151.771 745.832 152.304 749.795 152.304C755.719 152.304 760.598 150.855 764.433 147.957C768.311 145.102 770.25 140.308 770.25 133.575V115.614H769.099C767.906 118.341 766.116 120.919 763.73 123.348C761.344 125.777 758.275 127.759 754.525 129.293C750.775 130.827 746.301 131.594 741.102 131.594C733.73 131.594 727.018 129.889 720.967 126.48C714.959 123.028 710.165 117.766 706.585 110.692C703.048 103.575 701.28 94.5838 701.28 83.7173C701.28 72.5952 703.091 63.3054 706.713 55.848C710.335 48.3906 715.15 42.8082 721.159 39.1009C727.21 35.3935 733.836 33.5398 741.038 33.5398C746.535 33.5398 751.138 34.4773 754.845 36.3523C758.552 38.1847 761.535 40.4858 763.794 43.2557C766.095 45.983 767.863 48.6676 769.099 51.3097H770.122V34.8182H797.16V133.959C797.16 142.311 795.115 149.3 791.024 154.925C786.933 160.55 781.265 164.768 774.021 167.581C766.819 170.436 758.531 171.864 749.156 171.864ZM749.731 111.139C754.121 111.139 757.828 110.053 760.854 107.879C763.922 105.663 766.265 102.51 767.885 98.419C769.547 94.2855 770.378 89.3423 770.378 83.5895C770.378 77.8366 769.568 72.8509 767.949 68.6321C766.329 64.3707 763.986 61.0682 760.917 58.7244C757.849 56.3807 754.121 55.2088 749.731 55.2088C745.257 55.2088 741.486 56.4233 738.417 58.8523C735.349 61.2386 733.027 64.5625 731.45 68.8239C729.873 73.0852 729.085 78.0071 729.085 83.5895C729.085 89.2571 729.873 94.1577 731.45 98.2912C733.069 102.382 735.392 105.557 738.417 107.815C741.486 110.031 745.257 111.139 749.731 111.139ZM863.574 134.918C853.474 134.918 844.781 132.872 837.494 128.781C830.25 124.648 824.667 118.81 820.747 111.267C816.827 103.682 814.866 94.7116 814.866 84.3565C814.866 74.2571 816.827 65.3935 820.747 57.7656C824.667 50.1378 830.186 44.1932 837.302 39.9318C844.461 35.6705 852.856 33.5398 862.487 33.5398C868.964 33.5398 874.994 34.5838 880.577 36.6719C886.202 38.7173 891.102 41.8068 895.278 45.9403C899.497 50.0739 902.778 55.2727 905.122 61.5369C907.466 67.7585 908.638 75.0455 908.638 83.3977V90.8764H825.733V74.0014H883.006C883.006 70.081 882.153 66.608 880.449 63.5824C878.744 60.5568 876.379 58.1918 873.354 56.4872C870.371 54.7401 866.898 53.8665 862.934 53.8665C858.801 53.8665 855.136 54.8253 851.94 56.7429C848.787 58.6179 846.315 61.1534 844.525 64.3494C842.736 67.5028 841.819 71.0185 841.777 74.8963V90.9403C841.777 95.7983 842.672 99.9957 844.461 103.533C846.294 107.07 848.872 109.797 852.196 111.714C855.52 113.632 859.461 114.591 864.021 114.591C867.047 114.591 869.817 114.165 872.331 113.312C874.845 112.46 876.997 111.182 878.787 109.477C880.577 107.773 881.94 105.685 882.878 103.213L908.062 104.875C906.784 110.926 904.163 116.21 900.2 120.727C896.28 125.202 891.209 128.696 884.987 131.21C878.808 133.682 871.67 134.918 863.574 134.918Z" fill="#0068FF" fill-opacity="0.58"/>
</svg>
