<svg width="96" height="96" viewBox="0 0 96 96" fill="none" xmlns="http://www.w3.org/2000/svg">
<path d="M95.146 7.53572V56.9938C95.146 57.2121 95.0402 57.421 95.0137 57.6393C94.8554 59.2829 94.1811 60.8193 93.1022 61.9947C92.0233 63.17 90.6044 63.9141 89.0797 64.104C87.2521 64.2514 85.4187 64.2989 83.5866 64.2464H81.9201V65.2906C81.9201 67.4645 81.9201 69.6383 81.9201 71.8027C81.9649 74.3018 81.119 76.7245 79.5562 78.573C77.9935 80.4215 75.8325 81.5554 73.5173 81.7418C71.7538 81.9127 69.9904 81.8462 68.2269 81.8462C67.997 81.8372 67.768 81.8827 67.5562 81.9794C67.3444 82.0762 67.155 82.222 67.0013 82.4063C63.2863 86.4313 59.5625 90.4437 55.8299 94.4434C54.3662 96.0192 53.2464 96.0192 51.8004 94.4434C48.1324 90.4943 44.4556 86.5547 40.8053 82.5772C40.5999 82.3333 40.3475 82.1406 40.0657 82.0127C39.784 81.8848 39.4797 81.8248 39.1741 81.8367C29.3928 81.8367 19.6145 81.8367 9.83908 81.8367C8.9748 81.8512 8.11159 81.7653 7.26444 81.5805C2.85581 80.5362 0.0254721 76.6441 0.00783756 71.5749C-0.00979695 66.5057 0.00783756 61.4744 0.00783756 56.3862C0.00783756 45.3808 0.00783756 34.3785 0.00783756 23.3794C0.00783756 17.19 3.94033 12.9372 9.70682 12.9372H17.7746C17.7746 11.0386 17.7746 9.29189 17.7746 7.51671C17.788 5.72405 18.416 3.99993 19.5381 2.67535C20.658 1.40343 22.1193 0.540398 23.7174 0.207153H89.1591C89.3266 0.264111 89.4853 0.349549 89.6529 0.387521C90.9653 0.687035 92.1668 1.39588 93.1075 2.42562C94.0483 3.45537 94.6867 4.76043 94.9432 6.17818C95.0137 6.6813 95.0755 7.09904 95.146 7.53572ZM53.8372 89.8108C54.1281 89.4406 54.2868 89.1843 54.4896 88.9564C57.8813 85.3048 61.2701 81.6501 64.6559 77.9921C64.9542 77.6378 65.3214 77.3587 65.7314 77.1749C66.1414 76.9911 66.5841 76.9072 67.0278 76.9289C68.8618 76.9289 70.7046 76.9289 72.5386 76.9289C73.1699 76.9522 73.799 76.8369 74.3877 76.5901C74.9763 76.3432 75.5121 75.97 75.9625 75.4931C76.4128 75.0162 76.7684 74.4456 77.0074 73.8161C77.2464 73.1865 77.3639 72.5112 77.3528 71.8312C77.3528 55.5667 77.3528 39.3085 77.3528 23.0566C77.3437 22.1829 77.1507 21.3228 76.7885 20.541C75.8362 18.538 74.1433 17.883 72.1506 17.883C51.3889 17.883 30.6213 17.883 9.84789 17.883C9.59219 17.883 9.32767 17.883 9.06316 17.883C8.45371 17.8975 7.85311 18.043 7.2966 18.3108C6.7401 18.5787 6.23892 18.9636 5.82248 19.4429C5.40605 19.9222 5.08276 20.4863 4.87159 21.1019C4.66043 21.7176 4.56565 22.3725 4.59281 23.0281C4.59281 39.261 4.59281 55.4908 4.59281 71.7173C4.59588 72.6717 4.81693 73.6106 5.23647 74.4513C5.6798 75.2702 6.32859 75.9379 7.10839 76.3778C7.88818 76.8177 8.76739 77.012 9.6451 76.9384C19.926 76.9384 30.2128 76.9384 40.5055 76.9384C40.9732 76.9171 41.4397 77.0044 41.8733 77.1944C42.3069 77.3844 42.6974 77.6727 43.0184 78.0396C46.2191 81.5425 49.455 84.9979 52.7174 88.4818C53.0877 88.8425 53.3787 89.2697 53.8372 89.8108Z" fill="white"/>
<path d="M40.9462 36.0145C33.5338 36.0145 26.1185 36.0145 18.7003 36.0145C18.3222 36.0548 17.9406 36.0031 17.5835 35.8635C17.2264 35.7238 16.903 35.4997 16.637 35.2076C16.351 34.8934 16.1536 34.4983 16.0677 34.0681C15.9819 33.6379 16.0111 33.1904 16.1521 32.7774C16.2882 32.347 16.5325 31.9657 16.8578 31.6757C17.1831 31.3858 17.5767 31.1987 17.9949 31.1352C18.256 31.1115 18.5185 31.1115 18.7796 31.1352H63.201C64.8674 31.1352 65.899 32.0844 65.9079 33.6033C65.909 34.2002 65.7053 34.7765 65.3359 35.2215C64.9665 35.6666 64.4574 35.949 63.9063 36.0145C63.5921 36.0336 63.2771 36.0336 62.9629 36.0145H40.9462Z" fill="white"/>
<path d="M40.9462 52.8929H18.7003C18.3227 52.9371 17.9408 52.8883 17.5833 52.7501C17.2258 52.612 16.9023 52.3881 16.637 52.0955C16.351 51.7813 16.1536 51.3861 16.0677 50.956C15.9819 50.5258 16.0111 50.0783 16.1521 49.6653C16.2864 49.2337 16.5301 48.8512 16.8558 48.561C17.1815 48.2708 17.576 48.0844 17.9949 48.023C18.256 47.9993 18.5185 47.9993 18.7796 48.023H63.201C64.8674 48.023 65.899 48.9723 65.9079 50.4912C65.909 51.088 65.7053 51.6643 65.3359 52.1094C64.9665 52.5544 64.4574 52.8368 63.9063 52.9024C63.5921 52.9215 63.2771 52.9215 62.9629 52.9024L40.9462 52.8929Z" fill="white"/>
<path d="M40.9462 69.7713H18.7003C18.3229 69.8128 17.9417 69.7626 17.5846 69.6246C17.2276 69.4866 16.9038 69.2643 16.637 68.9739C16.3502 68.6582 16.1524 68.2615 16.0666 67.8296C15.9807 67.3978 16.0104 66.9486 16.1521 66.5342C16.2886 66.105 16.5333 65.7251 16.8586 65.4368C17.184 65.1485 17.5774 64.9631 17.9949 64.9014C18.2548 64.862 18.5173 64.8462 18.7796 64.854H63.201C64.8674 64.854 65.899 65.8033 65.9079 67.3221C65.9093 67.92 65.7059 68.4975 65.3366 68.9441C64.9674 69.3907 64.4581 69.6751 63.9063 69.7428C63.5921 69.7619 63.2771 69.7619 62.9629 69.7428L40.9462 69.7713Z" fill="white"/>
</svg>
