<svg width="100" height="86" viewBox="0 0 100 86" fill="none" xmlns="http://www.w3.org/2000/svg">
<path d="M43.3599 0H45.2564L52.8775 3.16759C51.7875 5.72455 51.9027 8.36736 51.9027 11.0102C51.9027 17.5362 51.9027 24.0622 51.9027 30.5882C51.91 31.4941 51.9662 32.3989 52.0711 33.2978C52.6737 38.2018 56.502 42.8387 60.9772 43.8977C62.8979 44.22 64.838 44.389 66.7817 44.4034C67.2691 44.4034 67.4995 44.5083 67.6147 45.1094C67.8241 46.2397 68.2427 47.3131 68.8456 48.2656C69.4484 49.218 70.2232 50.0301 71.1238 50.6533C72.0243 51.2765 73.0322 51.6982 74.0873 51.8932C75.1425 52.0881 76.2233 52.0523 77.2653 51.788C78.1191 51.5174 78.9591 51.199 79.782 50.834V75.7549C80.9784 75.7549 82.1127 75.7549 83.2382 75.7549C84.0615 75.7164 84.8781 75.9298 85.5933 76.3706C86.3085 76.8113 86.893 77.4612 87.2792 78.245C87.6828 78.9858 87.8821 79.8351 87.8539 80.6934C87.8257 81.5517 87.571 82.3836 87.1197 83.0918C86.6611 83.8403 86.0223 84.4405 85.2716 84.8287C84.5209 85.2169 83.6864 85.3783 82.8571 85.2958C57.0869 85.2958 31.3226 85.2958 5.56417 85.2958H4.67798C4.03559 85.2417 3.41192 85.0373 2.85039 84.697C2.28887 84.3568 1.80301 83.8887 1.42673 83.3256C1.05045 82.7624 0.792802 82.1177 0.671713 81.4363C0.550624 80.7549 0.56903 80.0533 0.725639 79.3804C0.978732 78.3091 1.56955 77.3656 2.39713 76.7113C3.22471 76.057 4.23767 75.7324 5.26289 75.793C6.37949 75.793 7.50493 75.793 8.69242 75.793V17.9751C8.63478 16.9489 8.88661 15.9301 9.41039 15.0705C9.93416 14.2109 10.7018 13.5564 11.5991 13.2046L43.3599 0ZM15.7198 43.4303L40.6393 37.1046V29.0521C40.3735 29.1284 40.1696 29.1666 39.9658 29.2334L32.6016 31.4946L16.4377 36.4749C16.1098 36.5798 15.7021 36.5798 15.711 37.1809C15.711 39.2131 15.6933 41.2549 15.6933 43.4303H15.7198ZM15.7641 70.1448L40.6482 69.4674V61.3576L15.7641 63.5234V70.1448ZM15.7641 56.7875L40.6571 53.2669V45.1857L15.7641 50.1089V56.7875ZM15.7641 30.0157L21.8966 27.764C27.9463 25.5505 33.9959 23.3243 40.0456 21.0854C40.3114 20.99 40.7014 20.6752 40.7102 20.4557C40.7102 17.9942 40.7102 15.5326 40.7102 12.9661C40.3292 13.1092 40.0367 13.2141 39.7531 13.3382L28.9506 17.8797C24.756 19.6416 20.5673 21.4066 16.3845 23.1749C16.1364 23.2893 15.7641 23.5756 15.7641 23.7855C15.6755 25.8368 15.7021 27.869 15.7021 30.0157H15.7641Z" fill="white"/>
<path d="M72.8169 38.5167C70.3356 38.5167 67.9695 38.5167 65.5945 38.5167C64.7072 38.5715 63.8171 38.5364 62.936 38.4117C61.3193 38.1168 59.8574 37.1993 58.8222 35.8303C57.787 34.4613 57.2491 32.734 57.3087 30.9698C57.3087 23.4262 57.3087 15.8793 57.3087 8.32922C57.3085 7.95863 57.3351 7.58862 57.3884 7.2225C57.5943 5.45614 58.3942 3.83223 59.6368 2.65784C60.8795 1.48345 62.4788 0.839995 64.1323 0.849179C73.5849 0.849179 83.0523 0.849179 92.5345 0.849179C93.4362 0.84127 94.3302 1.0284 95.1635 1.39948C95.9968 1.77056 96.7524 2.31801 97.3855 3.00939C98.0186 3.70078 98.5163 4.52202 98.8491 5.42438C99.1818 6.32673 99.3429 7.2918 99.3227 8.26243C99.3935 15.8952 99.3935 23.5565 99.3227 31.2465C99.3257 32.2232 99.1453 33.1906 98.7925 34.0904C98.4397 34.9903 97.9217 35.8041 97.2695 36.4831C96.6173 37.162 95.8445 37.6922 94.9973 38.0416C94.1501 38.3911 93.2461 38.5527 92.3395 38.5167C89.681 38.5167 87.0224 38.5167 84.4259 38.5167C83.9998 38.5431 83.5954 38.7286 83.2827 39.0414C81.3863 41.0196 79.5194 43.0263 77.682 45.0617C77.3233 45.5616 76.8212 45.9197 76.2538 46.0802C75.6863 46.2407 75.0855 46.1945 74.5449 45.949C73.9868 45.7119 73.5168 45.2834 73.2077 44.7298C72.8985 44.1762 72.7674 43.5283 72.8346 42.8864C72.8258 41.4839 72.8169 40.0718 72.8169 38.5167ZM78.2314 22.8505C79.0145 22.8789 79.7762 22.5729 80.3506 21.9992C80.9249 21.4255 81.2654 20.6307 81.2977 19.7879C81.3076 19.3644 81.2399 18.9429 81.0985 18.5476C80.9571 18.1523 80.7448 17.7908 80.4736 17.4838C80.2025 17.1768 79.8778 16.9304 79.5182 16.7585C79.1586 16.5866 78.771 16.4926 78.3777 16.482C77.9844 16.4713 77.5929 16.5442 77.2257 16.6964C76.8585 16.8486 76.5228 17.0772 76.2376 17.3692C75.9525 17.6611 75.7236 18.0106 75.5639 18.3978C75.4042 18.785 75.3169 19.2022 75.3071 19.6257C75.3012 20.0445 75.3723 20.4605 75.5163 20.8496C75.6603 21.2387 75.8744 21.5933 76.1462 21.893C76.418 22.1927 76.7422 22.4316 77.1 22.5959C77.4579 22.7602 77.8424 22.8468 78.2314 22.8505ZM72.9143 19.702C72.919 19.2766 72.8453 18.8544 72.6973 18.4599C72.5493 18.0653 72.3301 17.7064 72.0523 17.4037C71.7745 17.1011 71.4437 16.8609 71.079 16.6969C70.7144 16.5329 70.3231 16.4485 69.9279 16.4485C69.5226 16.4247 69.1171 16.4902 68.7361 16.6408C68.3551 16.7914 68.0066 17.024 67.7119 17.3244C67.4171 17.6249 67.1824 17.9869 67.022 18.3883C66.8616 18.7897 66.7789 19.2221 66.7789 19.6591C66.7789 20.096 66.8616 20.5285 67.022 20.9299C67.1824 21.3313 67.4171 21.6932 67.7119 21.9937C68.0066 22.2941 68.3551 22.5268 68.7361 22.6774C69.1171 22.828 69.5226 22.8934 69.9279 22.8696C70.32 22.8771 70.7096 22.801 71.0742 22.6456C71.4388 22.4902 71.7712 22.2585 72.0522 21.964C72.3331 21.6695 72.5571 21.3179 72.7112 20.9297C72.8653 20.5415 72.9464 20.1242 72.9498 19.702H72.9143ZM83.6283 19.6448C83.6201 20.063 83.6894 20.4788 83.8321 20.8679C83.9748 21.257 84.1881 21.6116 84.4595 21.911C84.7309 22.2103 85.0551 22.4485 85.413 22.6114C85.7709 22.7744 86.1553 22.8589 86.5438 22.8601C87.3336 22.8765 88.097 22.5545 88.6662 21.965C89.2354 21.3754 89.5638 20.5665 89.5791 19.7163C89.5943 18.8661 89.2953 18.0442 88.7477 17.4313C88.2001 16.8185 87.4488 16.465 86.6591 16.4485C86.267 16.4448 85.8781 16.5246 85.5148 16.6836C85.1516 16.8425 84.8212 17.0773 84.5427 17.3745C84.2642 17.6717 84.0431 18.0253 83.8923 18.415C83.7414 18.8046 83.6637 19.2226 83.6638 19.6448H83.6283Z" fill="white"/>
</svg>
