<svg width="89" height="94" viewBox="0 0 89 94" fill="none" xmlns="http://www.w3.org/2000/svg">
<path d="M80.2634 93.8262H8.89263C8.44946 93.6137 8.06199 93.2865 7.7647 92.8737C7.46741 92.4609 7.2695 91.9754 7.18866 91.4604C6.62998 89.305 5.98749 87.1798 5.37295 85.0345C3.69693 79.1733 2.01782 73.3022 0.335586 67.421C-0.167222 65.6566 0.652162 64.4837 2.36543 64.4837H7.02106C7.02922 64.3937 7.02922 64.303 7.02106 64.213C5.72369 56.1531 4.42322 48.0932 3.11964 40.0333C2.18852 34.0184 1.16427 28.0035 0.195894 21.9887C0.138363 21.6933 0.143503 21.3877 0.210955 21.0948C0.278406 20.8018 0.406451 20.5291 0.585474 20.2968C0.764496 20.0645 0.989892 19.8788 1.24489 19.7534C1.49988 19.6281 1.77788 19.5663 2.05815 19.5727H6.90933C6.91941 19.456 6.91941 19.3385 6.90933 19.2218C6.5555 17.2169 6.2948 15.2119 5.81061 13.3272C5.19607 10.9113 5.99683 9.5479 8.5388 9.75842C9.78651 9.8687 11.0528 9.75842 12.3657 9.75842C12.3657 9.42761 12.3657 9.20707 12.2912 8.98653L11.118 2.75111C11.0118 2.41905 10.9855 2.06339 11.0417 1.71743C11.0979 1.37147 11.2348 1.04652 11.4395 0.773048C11.6442 0.499576 11.9101 0.286508 12.2121 0.153811C12.5141 0.0211147 12.8425 -0.0268771 13.1665 0.014337H75.8313C77.5818 0.014337 78.3546 1.01684 78.0008 2.89147C77.8518 3.67341 77.7121 4.45534 77.5632 5.23727C77.2931 6.72094 77.0231 8.19457 76.7345 9.79853H77.6004C78.9412 9.79853 80.282 9.79853 81.6229 9.79853C81.9172 9.78624 82.2099 9.84928 82.4772 9.98246C82.7445 10.1156 82.9786 10.3152 83.1604 10.5646C83.3421 10.8141 83.4663 11.1065 83.5228 11.4177C83.5792 11.7289 83.5663 12.0501 83.4851 12.3548C83.243 13.6881 82.973 15.0214 82.7309 16.3647C82.5354 17.3672 82.3585 18.4499 82.1536 19.5827H86.9303C87.2385 19.5455 87.5505 19.5918 87.8379 19.7173C88.1254 19.8429 88.3792 20.0437 88.5762 20.3017C88.7732 20.5596 88.9072 20.8664 88.9662 21.1943C89.0251 21.5222 89.007 21.8607 88.9136 22.1791C88.4573 24.9961 87.9824 27.803 87.5541 30.62C86.1823 39.0608 84.8167 47.4984 83.4572 55.9326C83.001 58.7495 82.5261 61.5565 82.0977 64.3534C82.1815 64.3534 82.2188 64.4436 82.2653 64.4436C83.7179 64.4436 85.1891 64.5238 86.6416 64.4436C87.0038 64.4002 87.3702 64.4601 87.7041 64.6174C88.038 64.7748 88.3275 65.0239 88.5436 65.3399C88.7597 65.6558 88.8947 66.0274 88.9351 66.4174C88.9756 66.8073 88.92 67.2018 88.7739 67.5613C86.4275 75.521 84.1183 83.5208 81.9115 91.5105C81.8293 92.0105 81.6366 92.4818 81.3498 92.8848C81.063 93.2878 80.6904 93.6107 80.2634 93.8262ZM78.4011 64.4837C80.6172 50.8233 82.8271 37.1729 85.0308 23.5325H4.15318C4.14197 23.7261 4.14197 23.9203 4.15318 24.1139C6.28235 37.2664 8.40846 50.4223 10.5314 63.5815C10.6525 64.3534 10.9039 64.5038 11.5743 64.5038C33.5613 64.5038 55.5482 64.5038 77.5352 64.5038L78.4011 64.4837Z" fill="white"/>
<path d="M44.5732 27.3819H79.3135C81.2595 27.3819 81.9671 28.3844 81.604 30.3893C79.8535 40.374 78.1154 50.362 76.3897 60.3534C76.1104 61.9273 75.5331 62.4887 74.0619 62.4887H15.0658C14.7847 62.5361 14.4974 62.5179 14.2234 62.4353C13.9494 62.3527 13.6951 62.2075 13.4778 62.0097C13.2605 61.8119 13.0853 61.5661 12.9641 61.289C12.8429 61.0118 12.7784 60.7099 12.7752 60.4035C11.0247 50.3386 9.27108 40.2771 7.51436 30.2189C7.17915 28.3342 7.91471 27.3418 9.69316 27.3418L44.5732 27.3819ZM77.7584 31.3918H11.4344C11.4344 31.7226 11.4995 31.9933 11.5461 32.264L12.6355 38.4893C13.7622 44.9854 14.9075 51.5216 16.0248 57.9775C16.1179 58.559 16.3228 58.6792 16.807 58.6592C17.9616 58.6592 19.1069 58.6592 20.2522 58.6592H20.9877C20.9877 57.7469 20.9877 56.945 20.9877 56.153C20.9817 55.5433 21.1393 54.9446 21.4416 54.4289C21.7438 53.9132 22.1779 53.5024 22.6917 53.2458C23.2501 52.9512 23.8219 52.6869 24.4049 52.4539C25.3826 52.0629 26.379 51.702 27.5242 51.281C27.1145 50.4589 26.7887 49.667 26.3603 48.9552C25.5977 47.7319 25.0704 46.3565 24.8097 44.9102C24.5491 43.4639 24.5603 41.976 24.8426 40.5344C25.0219 39.2423 25.4715 38.011 26.1576 36.9335C26.8436 35.856 27.7482 34.9604 28.8029 34.3144C29.8576 33.6684 31.0349 33.289 32.2457 33.2047C33.4566 33.1204 34.6695 33.3335 35.7926 33.8278C39.2006 35.3115 40.6066 38.3189 40.9138 42.0682C41.0625 44.6351 40.3815 47.1783 38.9864 49.266C38.6444 49.8995 38.3336 50.5521 38.0553 51.2208L39.0702 51.5817C40.2806 52.0729 41.5004 52.514 42.6829 53.0654C43.2796 53.3054 43.7859 53.7511 44.1227 54.3332C44.4595 54.9152 44.6081 55.6009 44.5452 56.2833C44.5452 57.0252 44.5452 57.767 44.5452 58.5189H49.1543V56.7445H63.6612V58.5289H73.0377C74.602 49.4966 76.1569 40.4542 77.7584 31.3517V31.3918ZM40.9417 58.6091C40.9231 58.2284 40.9231 57.8469 40.9417 57.4662C40.9731 57.3323 40.9784 57.1929 40.9574 57.0567C40.9363 56.9204 40.8894 56.7904 40.8194 56.6746C40.7495 56.5588 40.6581 56.4598 40.551 56.3839C40.4438 56.3079 40.3233 56.2566 40.1969 56.2332C38.8281 55.7821 37.4873 55.2307 36.1278 54.7495C35.7159 54.6459 35.3448 54.4051 35.0673 54.0614C34.7898 53.7176 34.62 53.2884 34.5821 52.8348C34.521 52.1681 34.521 51.4965 34.5821 50.8298C34.7906 49.3477 35.352 47.949 36.2116 46.7698C36.7177 45.9856 37.0683 45.0975 37.2413 44.1609C37.4143 43.2243 37.4061 42.2594 37.2172 41.3264C37.1011 40.254 36.6449 39.2575 35.9257 38.5051C35.2065 37.7527 34.2683 37.2904 33.2693 37.1961C32.2976 37.0377 31.3053 37.2589 30.4719 37.8197C29.6384 38.3805 29.0189 39.2439 28.7254 40.2537C28.3488 41.2345 28.1938 42.2975 28.2731 43.3554C28.3524 44.4132 28.6638 45.4357 29.1816 46.3388C29.5634 46.9904 29.9451 47.642 30.2897 48.3437C30.9331 49.6179 31.2056 51.0709 31.0718 52.514C31.0623 53.0457 30.8888 53.5588 30.5786 53.9726C30.2685 54.3864 29.8392 54.6774 29.3585 54.7997C27.9525 55.2708 26.5652 55.8022 25.1685 56.3635C25.055 56.4095 24.9531 56.4833 24.8707 56.579C24.7883 56.6747 24.7276 56.7897 24.6936 56.9149C24.6562 57.4822 24.6562 58.0518 24.6936 58.6191L40.9417 58.6091Z" fill="white"/>
<path d="M66.3152 36.2338V40.0132H49.1545V36.2338H66.3152Z" fill="white"/>
<path d="M49.1545 46.8601V43.0607H65.4213V46.8601H49.1545Z" fill="white"/>
<path d="M49.1545 53.7171V49.8676H64.5088V53.677L49.1545 53.7171Z" fill="white"/>
</svg>
