<svg width="1334" height="178" viewBox="0 0 1334 178" fill="none" xmlns="http://www.w3.org/2000/svg">
<path opacity="0.3" d="M-390.983 45.7401C-391.495 40.5838 -393.689 36.5781 -397.567 33.723C-401.445 30.8679 -406.708 29.4403 -413.356 29.4403C-417.873 29.4403 -421.687 30.0795 -424.797 31.358C-427.908 32.5938 -430.295 34.3196 -431.956 36.5355C-433.576 38.7514 -434.385 41.2656 -434.385 44.0781C-434.471 46.4219 -433.981 48.4673 -432.915 50.2145C-431.807 51.9616 -430.295 53.4744 -428.377 54.7528C-426.459 55.9886 -424.243 57.0753 -421.729 58.0128C-419.215 58.9077 -416.53 59.6747 -413.675 60.3139L-401.914 63.1264C-396.204 64.4048 -390.962 66.1094 -386.189 68.2401C-381.417 70.3707 -377.283 72.9915 -373.789 76.1023C-370.295 79.2131 -367.589 82.8778 -365.671 87.0966C-363.711 91.3153 -362.709 96.152 -362.667 101.607C-362.709 109.618 -364.755 116.564 -368.803 122.445C-372.809 128.283 -378.604 132.821 -386.189 136.06C-393.732 139.256 -402.83 140.854 -413.483 140.854C-424.052 140.854 -433.256 139.234 -441.097 135.996C-448.895 132.757 -454.989 127.963 -459.378 121.614C-463.725 115.222 -466.005 107.317 -466.218 97.8991H-439.435C-439.137 102.288 -437.88 105.953 -435.664 108.893C-433.405 111.791 -430.401 113.986 -426.651 115.477C-422.858 116.926 -418.576 117.651 -413.803 117.651C-409.116 117.651 -405.046 116.969 -401.594 115.605C-398.1 114.241 -395.394 112.345 -393.476 109.916C-391.559 107.487 -390.6 104.696 -390.6 101.543C-390.6 98.6023 -391.474 96.1307 -393.221 94.1278C-394.925 92.125 -397.439 90.4205 -400.763 89.0142C-404.045 87.608 -408.072 86.3295 -412.844 85.179L-427.099 81.5994C-438.135 78.9148 -446.85 74.7173 -453.242 69.0071C-459.634 63.2969 -462.809 55.6051 -462.766 45.9318C-462.809 38.0057 -460.699 31.081 -456.438 25.1577C-452.134 19.2344 -446.232 14.6108 -438.732 11.2869C-431.232 7.96306 -422.709 6.30113 -413.164 6.30113C-403.448 6.30113 -394.968 7.96306 -387.724 11.2869C-380.437 14.6108 -374.769 19.2344 -370.721 25.1577C-366.672 31.081 -364.584 37.9418 -364.457 45.7401H-390.983ZM-300.2 140.918C-310.129 140.918 -318.716 138.808 -325.96 134.589C-333.162 130.328 -338.723 124.405 -342.644 116.82C-346.564 109.192 -348.524 100.349 -348.524 90.2926C-348.524 80.1506 -346.564 71.2869 -342.644 63.7017C-338.723 56.0739 -333.162 50.1506 -325.96 45.9318C-318.716 41.6705 -310.129 39.5398 -300.2 39.5398C-290.271 39.5398 -281.706 41.6705 -274.504 45.9318C-267.26 50.1506 -261.678 56.0739 -257.757 63.7017C-253.837 71.2869 -251.877 80.1506 -251.877 90.2926C-251.877 100.349 -253.837 109.192 -257.757 116.82C-261.678 124.405 -267.26 130.328 -274.504 134.589C-281.706 138.808 -290.271 140.918 -300.2 140.918ZM-300.073 119.824C-295.556 119.824 -291.784 118.545 -288.759 115.989C-285.733 113.389 -283.453 109.852 -281.919 105.378C-280.343 100.903 -279.554 95.8111 -279.554 90.1009C-279.554 84.3906 -280.343 79.2983 -281.919 74.8239C-283.453 70.3494 -285.733 66.8125 -288.759 64.2131C-291.784 61.6136 -295.556 60.3139 -300.073 60.3139C-304.632 60.3139 -308.468 61.6136 -311.578 64.2131C-314.646 66.8125 -316.969 70.3494 -318.546 74.8239C-320.08 79.2983 -320.847 84.3906 -320.847 90.1009C-320.847 95.8111 -320.08 100.903 -318.546 105.378C-316.969 109.852 -314.646 113.389 -311.578 115.989C-308.468 118.545 -304.632 119.824 -300.073 119.824ZM-189.81 140.918C-199.867 140.918 -208.517 138.787 -215.762 134.526C-222.963 130.222 -228.503 124.256 -232.381 116.628C-236.216 109 -238.134 100.222 -238.134 90.2926C-238.134 80.2358 -236.195 71.4148 -232.317 63.8295C-228.396 56.2017 -222.835 50.2571 -215.634 45.9957C-208.432 41.6918 -199.867 39.5398 -189.938 39.5398C-181.372 39.5398 -173.872 41.0952 -167.438 44.206C-161.003 47.3168 -155.911 51.6847 -152.161 57.3097C-148.411 62.9347 -146.344 69.5398 -145.96 77.125H-171.656C-172.381 72.2244 -174.298 68.2827 -177.409 65.2997C-180.477 62.2741 -184.504 60.7614 -189.49 60.7614C-193.709 60.7614 -197.395 61.9119 -200.548 64.2131C-203.659 66.4716 -206.088 69.7741 -207.835 74.1207C-209.583 78.4673 -210.456 83.7301 -210.456 89.9091C-210.456 96.1733 -209.604 101.5 -207.899 105.889C-206.152 110.278 -203.702 113.624 -200.548 115.925C-197.395 118.226 -193.709 119.376 -189.49 119.376C-186.379 119.376 -183.588 118.737 -181.117 117.459C-178.602 116.18 -176.536 114.327 -174.916 111.898C-173.254 109.426 -172.168 106.464 -171.656 103.013H-145.96C-146.387 110.513 -148.432 117.118 -152.097 122.828C-155.719 128.496 -160.726 132.928 -167.118 136.124C-173.51 139.32 -181.074 140.918 -189.81 140.918ZM-128.526 139V40.8182H-101.296V139H-128.526ZM-114.847 28.1619C-118.895 28.1619 -122.368 26.8196 -125.266 24.1349C-128.121 21.4077 -129.549 18.1477 -129.549 14.3551C-129.549 10.6051 -128.121 7.38778 -125.266 4.70312C-122.368 1.97585 -118.895 0.612209 -114.847 0.612209C-110.799 0.612209 -107.347 1.97585 -104.492 4.70312C-101.594 7.38778 -100.145 10.6051 -100.145 14.3551C-100.145 18.1477 -101.594 21.4077 -104.492 24.1349C-107.347 26.8196 -110.799 28.1619 -114.847 28.1619ZM-51.486 140.854C-57.7502 140.854 -63.3326 139.767 -68.2331 137.594C-73.1337 135.378 -77.0115 132.118 -79.8667 127.814C-82.6792 123.467 -84.0854 118.055 -84.0854 111.578C-84.0854 106.124 -83.084 101.543 -81.0811 97.8352C-79.0783 94.1278 -76.351 91.1449 -72.8993 88.8864C-69.4476 86.6278 -65.5272 84.9233 -61.138 83.7727C-56.7061 82.6222 -52.0613 81.8125 -47.2033 81.3438C-41.4931 80.7472 -36.8908 80.1932 -33.3965 79.6818C-29.9022 79.1278 -27.3667 78.3182 -25.7899 77.2528C-24.2132 76.1875 -23.4249 74.6108 -23.4249 72.5227V72.1392C-23.4249 68.0909 -24.7033 64.9588 -27.2601 62.7429C-29.7743 60.527 -33.3539 59.419 -37.9988 59.419C-42.8993 59.419 -46.7985 60.5057 -49.6962 62.679C-52.5939 64.8097 -54.5115 67.4943 -55.449 70.733L-80.6337 68.6875C-79.3553 62.7216 -76.8411 57.5653 -73.0911 53.2188C-69.3411 48.8295 -64.5044 45.4631 -58.5811 43.1193C-52.6152 40.733 -45.7118 39.5398 -37.8709 39.5398C-32.4164 39.5398 -27.1962 40.179 -22.2104 41.4574C-17.182 42.7358 -12.7289 44.7173 -8.85103 47.402C-4.93057 50.0866 -1.84109 53.5384 0.417438 57.7571C2.67596 61.9332 3.80522 66.9403 3.80522 72.7784V139H-22.0186V125.385H-22.7857C-24.3624 128.453 -26.4718 131.159 -29.1138 133.503C-31.7559 135.804 -34.9306 137.615 -38.638 138.936C-42.3453 140.214 -46.628 140.854 -51.486 140.854ZM-43.6877 122.061C-39.682 122.061 -36.1451 121.273 -33.0769 119.696C-30.0087 118.077 -27.601 115.903 -25.8539 113.176C-24.1067 110.449 -23.2331 107.359 -23.2331 103.908V93.4886C-24.0854 94.0426 -25.2573 94.554 -26.7488 95.0227C-28.1976 95.4489 -29.8382 95.8537 -31.6706 96.2372C-33.503 96.5781 -35.3354 96.8977 -37.1678 97.196C-39.0002 97.4517 -40.6621 97.6861 -42.1536 97.8991C-45.3496 98.3679 -48.1408 99.1136 -50.5272 100.136C-52.9135 101.159 -54.7672 102.544 -56.0882 104.291C-57.4093 105.996 -58.0698 108.126 -58.0698 110.683C-58.0698 114.391 -56.7274 117.224 -54.0428 119.185C-51.3155 121.102 -47.8638 122.061 -43.6877 122.061ZM52.161 8.09091V139H24.9309V8.09091H52.161ZM116.145 8.09091H150.279L186.33 96.0455H187.864L223.915 8.09091H258.049V139H231.202V53.794H230.116L196.238 138.361H177.957L144.079 53.4744H142.992V139H116.145V8.09091ZM325.085 140.918C314.986 140.918 306.293 138.872 299.006 134.781C291.762 130.648 286.179 124.81 282.259 117.267C278.338 109.682 276.378 100.712 276.378 90.3565C276.378 80.2571 278.338 71.3935 282.259 63.7656C286.179 56.1378 291.698 50.1932 298.814 45.9318C305.973 41.6705 314.368 39.5398 323.999 39.5398C330.476 39.5398 336.506 40.5838 342.088 42.6719C347.713 44.7173 352.614 47.8068 356.79 51.9403C361.009 56.0739 364.29 61.2727 366.634 67.5369C368.977 73.7585 370.149 81.0455 370.149 89.3977V96.8764H287.244V80.0014H344.517C344.517 76.081 343.665 72.608 341.96 69.5824C340.256 66.5568 337.891 64.1918 334.865 62.4872C331.882 60.7401 328.409 59.8665 324.446 59.8665C320.313 59.8665 316.648 60.8253 313.452 62.7429C310.298 64.6179 307.827 67.1534 306.037 70.3494C304.247 73.5028 303.331 77.0185 303.289 80.8963V96.9403C303.289 101.798 304.183 105.996 305.973 109.533C307.806 113.07 310.384 115.797 313.708 117.714C317.031 119.632 320.973 120.591 325.533 120.591C328.558 120.591 331.328 120.165 333.843 119.312C336.357 118.46 338.509 117.182 340.298 115.477C342.088 113.773 343.452 111.685 344.389 109.213L369.574 110.875C368.296 116.926 365.675 122.21 361.712 126.727C357.791 131.202 352.72 134.696 346.499 137.21C340.32 139.682 333.182 140.918 325.085 140.918ZM424.098 140.598C416.641 140.598 409.887 138.68 403.835 134.845C397.827 130.967 393.054 125.278 389.517 117.778C386.023 110.236 384.276 100.989 384.276 90.0369C384.276 78.7869 386.087 69.4332 389.709 61.9759C393.331 54.4759 398.146 48.8722 404.155 45.1648C410.206 41.4148 416.833 39.5398 424.034 39.5398C429.531 39.5398 434.112 40.4773 437.777 42.3523C441.485 44.1847 444.468 46.4858 446.726 49.2557C449.027 51.983 450.774 54.6676 451.968 57.3097H452.798V8.09091H479.965V139H453.118V123.276H451.968C450.689 126.003 448.878 128.709 446.534 131.393C444.233 134.036 441.229 136.23 437.521 137.977C433.857 139.724 429.382 140.598 424.098 140.598ZM432.727 118.929C437.117 118.929 440.824 117.736 443.85 115.349C446.918 112.92 449.262 109.533 450.881 105.186C452.543 100.839 453.374 95.7472 453.374 89.9091C453.374 84.071 452.564 79 450.945 74.696C449.325 70.392 446.982 67.0682 443.914 64.7244C440.845 62.3807 437.117 61.2088 432.727 61.2088C428.253 61.2088 424.482 62.4233 421.414 64.8523C418.345 67.2812 416.023 70.6477 414.446 74.9517C412.869 79.2557 412.081 84.2415 412.081 89.9091C412.081 95.6193 412.869 100.669 414.446 105.058C416.066 109.405 418.388 112.814 421.414 115.286C424.482 117.714 428.253 118.929 432.727 118.929ZM502.353 139V40.8182H529.583V139H502.353ZM516.032 28.1619C511.983 28.1619 508.51 26.8196 505.613 24.1349C502.758 21.4077 501.33 18.1477 501.33 14.3551C501.33 10.6051 502.758 7.38778 505.613 4.70312C508.51 1.97585 511.983 0.612209 516.032 0.612209C520.08 0.612209 523.532 1.97585 526.387 4.70312C529.285 7.38778 530.733 10.6051 530.733 14.3551C530.733 18.1477 529.285 21.4077 526.387 24.1349C523.532 26.8196 520.08 28.1619 516.032 28.1619ZM579.393 140.854C573.129 140.854 567.546 139.767 562.646 137.594C557.745 135.378 553.867 132.118 551.012 127.814C548.2 123.467 546.794 118.055 546.794 111.578C546.794 106.124 547.795 101.543 549.798 97.8352C551.801 94.1278 554.528 91.1449 557.98 88.8864C561.431 86.6278 565.352 84.9233 569.741 83.7727C574.173 82.6222 578.818 81.8125 583.676 81.3438C589.386 80.7472 593.988 80.1932 597.482 79.6818C600.977 79.1278 603.512 78.3182 605.089 77.2528C606.666 76.1875 607.454 74.6108 607.454 72.5227V72.1392C607.454 68.0909 606.176 64.9588 603.619 62.7429C601.105 60.527 597.525 59.419 592.88 59.419C587.98 59.419 584.08 60.5057 581.183 62.679C578.285 64.8097 576.367 67.4943 575.43 70.733L550.245 68.6875C551.524 62.7216 554.038 57.5653 557.788 53.2188C561.538 48.8295 566.374 45.4631 572.298 43.1193C578.264 40.733 585.167 39.5398 593.008 39.5398C598.463 39.5398 603.683 40.179 608.669 41.4574C613.697 42.7358 618.15 44.7173 622.028 47.402C625.948 50.0866 629.038 53.5384 631.296 57.7571C633.555 61.9332 634.684 66.9403 634.684 72.7784V139H608.86V125.385H608.093C606.517 128.453 604.407 131.159 601.765 133.503C599.123 135.804 595.948 137.615 592.241 138.936C588.534 140.214 584.251 140.854 579.393 140.854ZM587.191 122.061C591.197 122.061 594.734 121.273 597.802 119.696C600.87 118.077 603.278 115.903 605.025 113.176C606.772 110.449 607.646 107.359 607.646 103.908V93.4886C606.794 94.0426 605.622 94.554 604.13 95.0227C602.681 95.4489 601.041 95.8537 599.208 96.2372C597.376 96.5781 595.544 96.8977 593.711 97.196C591.879 97.4517 590.217 97.6861 588.725 97.8991C585.529 98.3679 582.738 99.1136 580.352 100.136C577.965 101.159 576.112 102.544 574.791 104.291C573.47 105.996 572.809 108.126 572.809 110.683C572.809 114.391 574.151 117.224 576.836 119.185C579.563 121.102 583.015 122.061 587.191 122.061ZM768.997 45.7401C768.486 40.5838 766.291 36.5781 762.413 33.723C758.535 30.8679 753.273 29.4403 746.625 29.4403C742.108 29.4403 738.294 30.0795 735.183 31.358C732.072 32.5938 729.686 34.3196 728.024 36.5355C726.405 38.7514 725.595 41.2656 725.595 44.0781C725.51 46.4219 726 48.4673 727.065 50.2145C728.173 51.9616 729.686 53.4744 731.604 54.7528C733.521 55.9886 735.737 57.0753 738.251 58.0128C740.765 58.9077 743.45 59.6747 746.305 60.3139L758.067 63.1264C763.777 64.4048 769.018 66.1094 773.791 68.2401C778.564 70.3707 782.697 72.9915 786.192 76.1023C789.686 79.2131 792.392 82.8778 794.309 87.0966C796.27 91.3153 797.271 96.152 797.314 101.607C797.271 109.618 795.226 116.564 791.177 122.445C787.172 128.283 781.376 132.821 773.791 136.06C766.248 139.256 757.15 140.854 746.497 140.854C735.929 140.854 726.724 139.234 718.883 135.996C711.085 132.757 704.991 127.963 700.602 121.614C696.256 115.222 693.976 107.317 693.763 97.8991H720.545C720.844 102.288 722.101 105.953 724.317 108.893C726.575 111.791 729.579 113.986 733.329 115.477C737.122 116.926 741.405 117.651 746.177 117.651C750.865 117.651 754.934 116.969 758.386 115.605C761.881 114.241 764.586 112.345 766.504 109.916C768.422 107.487 769.381 104.696 769.381 101.543C769.381 98.6023 768.507 96.1307 766.76 94.1278C765.055 92.125 762.541 90.4205 759.217 89.0142C755.936 87.608 751.909 86.3295 747.136 85.179L732.882 81.5994C721.845 78.9148 713.131 74.7173 706.738 69.0071C700.346 63.2969 697.172 55.6051 697.214 45.9318C697.172 38.0057 699.281 31.081 703.542 25.1577C707.846 19.2344 713.748 14.6108 721.248 11.2869C728.748 7.96306 737.271 6.30113 746.817 6.30113C756.532 6.30113 765.013 7.96306 772.257 11.2869C779.544 14.6108 785.211 19.2344 789.26 25.1577C793.308 31.081 795.396 37.9418 795.524 45.7401H768.997ZM859.78 140.918C849.851 140.918 841.264 138.808 834.02 134.589C826.818 130.328 821.257 124.405 817.337 116.82C813.416 109.192 811.456 100.349 811.456 90.2926C811.456 80.1506 813.416 71.2869 817.337 63.7017C821.257 56.0739 826.818 50.1506 834.02 45.9318C841.264 41.6705 849.851 39.5398 859.78 39.5398C869.709 39.5398 878.274 41.6705 885.476 45.9318C892.72 50.1506 898.303 56.0739 902.223 63.7017C906.144 71.2869 908.104 80.1506 908.104 90.2926C908.104 100.349 906.144 109.192 902.223 116.82C898.303 124.405 892.72 130.328 885.476 134.589C878.274 138.808 869.709 140.918 859.78 140.918ZM859.908 119.824C864.425 119.824 868.196 118.545 871.222 115.989C874.247 113.389 876.527 109.852 878.061 105.378C879.638 100.903 880.426 95.8111 880.426 90.1009C880.426 84.3906 879.638 79.2983 878.061 74.8239C876.527 70.3494 874.247 66.8125 871.222 64.2131C868.196 61.6136 864.425 60.3139 859.908 60.3139C855.348 60.3139 851.513 61.6136 848.402 64.2131C845.334 66.8125 843.012 70.3494 841.435 74.8239C839.901 79.2983 839.134 84.3906 839.134 90.1009C839.134 95.8111 839.901 100.903 841.435 105.378C843.012 109.852 845.334 113.389 848.402 115.989C851.513 118.545 855.348 119.824 859.908 119.824ZM953.04 8.09091V139H925.81V8.09091H953.04ZM1066.39 40.8182L1032.06 139H1001.38L967.055 40.8182H995.819L1016.21 111.067H1017.23L1037.56 40.8182H1066.39ZM1080.32 139V40.8182H1107.55V139H1080.32ZM1094 28.1619C1089.95 28.1619 1086.48 26.8196 1083.58 24.1349C1080.73 21.4077 1079.3 18.1477 1079.3 14.3551C1079.3 10.6051 1080.73 7.38778 1083.58 4.70312C1086.48 1.97585 1089.95 0.612209 1094 0.612209C1098.05 0.612209 1101.5 1.97585 1104.36 4.70312C1107.25 7.38778 1108.7 10.6051 1108.7 14.3551C1108.7 18.1477 1107.25 21.4077 1104.36 24.1349C1101.5 26.8196 1098.05 28.1619 1094 28.1619ZM1156.59 82.2386V139H1129.36V40.8182H1155.32V58.1406H1156.47C1158.64 52.4304 1162.28 47.9133 1167.4 44.5895C1172.51 41.223 1178.71 39.5398 1186 39.5398C1192.82 39.5398 1198.76 41.0312 1203.83 44.0142C1208.9 46.9972 1212.84 51.2585 1215.66 56.7983C1218.47 62.2955 1219.88 68.858 1219.88 76.4858V139H1192.65V81.3438C1192.69 75.3352 1191.15 70.6477 1188.04 67.2812C1184.93 63.8722 1180.65 62.1676 1175.2 62.1676C1171.53 62.1676 1168.29 62.956 1165.48 64.5327C1162.71 66.1094 1160.54 68.4105 1158.96 71.4361C1157.43 74.419 1156.64 78.0199 1156.59 82.2386ZM1285.57 177.864C1276.75 177.864 1269.19 176.649 1262.88 174.22C1256.61 171.834 1251.63 168.574 1247.92 164.44C1244.21 160.307 1241.81 155.662 1240.7 150.506L1265.88 147.118C1266.65 149.078 1267.86 150.911 1269.53 152.615C1271.19 154.32 1273.38 155.683 1276.11 156.706C1278.88 157.771 1282.25 158.304 1286.21 158.304C1292.13 158.304 1297.01 156.855 1300.85 153.957C1304.72 151.102 1306.66 146.308 1306.66 139.575V121.614H1305.51C1304.32 124.341 1302.53 126.919 1300.14 129.348C1297.76 131.777 1294.69 133.759 1290.94 135.293C1287.19 136.827 1282.72 137.594 1277.52 137.594C1270.14 137.594 1263.43 135.889 1257.38 132.48C1251.37 129.028 1246.58 123.766 1243 116.692C1239.46 109.575 1237.69 100.584 1237.69 89.7173C1237.69 78.5952 1239.5 69.3054 1243.13 61.848C1246.75 54.3906 1251.56 48.8082 1257.57 45.1009C1263.62 41.3935 1270.25 39.5398 1277.45 39.5398C1282.95 39.5398 1287.55 40.4773 1291.26 42.3523C1294.97 44.1847 1297.95 46.4858 1300.21 49.2557C1302.51 51.983 1304.28 54.6676 1305.51 57.3097H1306.54V40.8182H1333.57V139.959C1333.57 148.311 1331.53 155.3 1327.44 160.925C1323.35 166.55 1317.68 170.768 1310.44 173.581C1303.23 176.436 1294.95 177.864 1285.57 177.864ZM1286.15 117.139C1290.53 117.139 1294.24 116.053 1297.27 113.879C1300.34 111.663 1302.68 108.51 1304.3 104.419C1305.96 100.286 1306.79 95.3423 1306.79 89.5895C1306.79 83.8366 1305.98 78.8509 1304.36 74.6321C1302.74 70.3707 1300.4 67.0682 1297.33 64.7244C1294.26 62.3807 1290.53 61.2088 1286.15 61.2088C1281.67 61.2088 1277.9 62.4233 1274.83 64.8523C1271.76 67.2386 1269.44 70.5625 1267.86 74.8239C1266.29 79.0852 1265.5 84.0071 1265.5 89.5895C1265.5 95.2571 1266.29 100.158 1267.86 104.291C1269.48 108.382 1271.81 111.557 1274.83 113.815C1277.9 116.031 1281.67 117.139 1286.15 117.139Z" fill="#0068FF" fill-opacity="0.58"/>
</svg>
