<svg width="1440" height="810" viewBox="0 0 1440 810" fill="none" xmlns="http://www.w3.org/2000/svg">
    <g clip-path="url(#clip0_2_2)">
        <path d="M0 0H1440V810H0V0Z" fill="#090942"/>
        <path d="M0 0H1440V810H0V0Z" fill="url(#paint0_radial_2_2)"/>
        <g style="mix-blend-mode:soft-light" opacity="0.1" clip-path="url(#clip1_2_2)">
            <path d="M1493.69 -241.215L1435.88 -249C1434.98 -249.13 1434.05 -249.054 1433.18 -248.778C1432.31 -248.503 1431.51 -248.034 1430.84 -247.408C1370.02 -189.726 1307.88 -132.399 1245.56 -74.8064C1183.24 -17.2137 1120.3 41.706 1056.39 99.741C992.473 157.776 926.966 217.138 861.636 275.792H855.086C909.262 220.824 963.674 165.768 1018.32 110.623C1073.83 54.18 1131.28 -2.17415 1187.93 -58.4398C1241.04 -111.521 1295.04 -164.601 1349.93 -217.682C1350.79 -218.493 1351.4 -219.537 1351.67 -220.686C1351.95 -221.835 1351.89 -223.041 1351.5 -224.156C1351.1 -225.271 1350.39 -226.247 1349.46 -226.967C1348.52 -227.687 1347.39 -228.119 1346.21 -228.21L1287.34 -233.164C1286.39 -233.238 1285.43 -233.093 1284.54 -232.741C1283.65 -232.388 1282.85 -231.837 1282.21 -231.129C1233.87 -174.952 1184.04 -118.775 1134.11 -63.0402C1084.18 -7.3053 1033.55 50.7297 981.85 107.526C930.153 164.323 879.961 219.881 828.529 276.146H821.447C862.758 223.655 904.57 171.194 946.884 118.762C990.437 63.7345 1035.94 8.88435 1080.64 -46.0543C1122.78 -97.8081 1165.09 -149.562 1208.56 -201.227C1209.28 -202.101 1209.75 -203.16 1209.91 -204.286C1210.06 -205.411 1209.9 -206.557 1209.44 -207.596C1208.98 -208.635 1208.24 -209.525 1207.3 -210.166C1206.37 -210.807 1205.27 -211.173 1204.13 -211.224L1144.91 -213.613C1143.86 -213.649 1142.82 -213.416 1141.89 -212.935C1140.96 -212.455 1140.17 -211.744 1139.6 -210.87C1103.04 -156.639 1065.15 -102.408 1027 -48.1775C988.844 6.05337 950.159 62.4075 910.412 117.612C871.994 171.341 833.309 225.071 794.359 278.8L787.012 279.597C817.228 229.701 847.679 179.805 878.367 129.909C910.589 76.8278 944.582 23.747 977.955 -29.3338C1009.29 -79.2298 1040.81 -129.214 1073.47 -179.199C1074.08 -180.121 1074.43 -181.192 1074.48 -182.297C1074.52 -183.401 1074.27 -184.498 1073.74 -185.47C1073.22 -186.441 1072.43 -187.252 1071.48 -187.815C1070.53 -188.378 1069.44 -188.671 1068.34 -188.665H1009.29C1008.14 -188.684 1007.01 -188.368 1006.03 -187.756C1005.06 -187.143 1004.28 -186.26 1003.8 -185.215C978.486 -133.284 951.841 -81.3531 925.019 -29.3338C898.196 22.6854 870.931 76.8278 842.427 129.909C815.516 181.043 788.192 232.207 760.455 283.401L753.196 284.728C772.907 237.545 792.943 190.185 813.303 142.648C834.637 91.6904 857.564 40.6444 880.403 -10.4017C901.472 -58.3514 922.806 -106.301 945.202 -154.339C945.683 -155.293 945.906 -156.356 945.848 -157.422C945.789 -158.488 945.452 -159.521 944.87 -160.416C944.288 -161.311 943.48 -162.038 942.529 -162.524C941.578 -163.01 940.515 -163.239 939.448 -163.186L881.111 -160.532C879.843 -160.489 878.621 -160.047 877.62 -159.268C876.618 -158.49 875.888 -157.415 875.534 -156.197C860.751 -106.92 844.64 -57.5552 828.44 -8.18999C811.798 42.5907 795.776 93.3713 777.982 144.152C761.606 192.721 744.698 241.467 727.613 289.859C725.223 290.301 722.833 290.832 720.531 291.451C730.682 246.686 741.157 201.922 751.957 157.157C763.199 108.765 776.123 59.8419 788.428 11.4499C799.671 -34.3765 811.621 -80.203 824.457 -126.029C824.733 -126.98 824.774 -127.984 824.575 -128.954C824.377 -129.924 823.946 -130.831 823.318 -131.597C822.691 -132.363 821.887 -132.965 820.975 -133.352C820.063 -133.738 819.07 -133.897 818.083 -133.815L761.075 -129.303C759.65 -129.185 758.311 -128.572 757.292 -127.57C756.273 -126.568 755.638 -125.24 755.498 -123.818C750.54 -77.5489 744.255 -31.0147 737.793 15.3425C731.154 63.5576 725.223 111.596 717.61 159.811C710.882 205.755 703.771 251.582 696.276 297.29L689.46 299.148C690.876 257.155 692.587 215.133 694.594 173.081C696.276 127.255 699.64 81.2512 702.384 35.3363C704.863 -8.10154 707.607 -51.5393 711.236 -95.1541C711.322 -96.0623 711.204 -96.9781 710.889 -97.8344C710.574 -98.6907 710.071 -99.4656 709.417 -100.102C708.763 -100.739 707.975 -101.221 707.11 -101.512C706.245 -101.804 705.326 -101.899 704.42 -101.789L649.536 -95.331C647.955 -95.1312 646.511 -94.3303 645.506 -93.0947C644.5 -91.859 644.01 -90.2836 644.136 -88.6959C648.031 -45.5235 650.775 -2.26264 652.988 41.0867C655.733 86.3823 659.096 131.59 660.867 176.974C662.991 219.851 664.791 262.788 666.267 305.783L659.893 307.818C653.283 268.656 646.91 229.465 640.772 190.244C633.69 147.337 628.113 104.164 622.005 61.0805C616.074 20.2082 610.409 -20.8409 605.717 -61.9786C605.632 -62.7966 605.38 -63.5885 604.976 -64.3054C604.573 -65.0222 604.026 -65.6487 603.371 -66.1462C602.715 -66.6437 601.965 -67.0015 601.166 -67.1977C600.366 -67.3938 599.535 -67.4241 598.724 -67.2866L546.584 -59.1476C545.718 -59.0193 544.889 -58.7063 544.155 -58.2299C543.42 -57.7535 542.796 -57.1248 542.326 -56.3865C541.856 -55.6481 541.55 -54.8173 541.43 -53.9505C541.309 -53.0836 541.376 -52.201 541.627 -51.3624C553.666 -11.5518 564.466 28.2588 575.265 68.4233C586.685 110.711 598.724 152.822 609.081 195.198C619.35 235.009 629.264 274.819 638.913 314.895L633.071 317.107C619.084 280.894 605.393 244.652 591.996 208.38C576.77 168.569 563.049 128.759 548.797 88.3286C534.988 50.1104 521.444 11.6268 508.962 -26.6798C508.511 -28.1105 507.549 -29.3252 506.259 -30.0921C504.969 -30.859 503.442 -31.1245 501.969 -30.8378L453.193 -21.2833C452.255 -21.1034 451.372 -20.7063 450.616 -20.124C449.86 -19.5416 449.25 -18.7901 448.837 -17.9299C448.424 -17.0697 448.219 -16.1246 448.237 -15.1706C448.255 -14.2165 448.497 -13.2801 448.943 -12.4365C468.153 23.9239 486.3 60.5497 504.359 97.1754C523.657 136.278 543.486 175.204 561.81 214.484C579.514 251.228 596.835 287.972 613.773 324.715L608.373 326.927C588.367 293.722 568.302 260.517 548.177 227.312C525.604 190.598 504.447 153.53 482.848 116.727C461.248 79.9242 441.065 45.9525 420.882 9.85749C420.252 8.68196 419.25 7.74868 418.032 7.20423C416.815 6.65979 415.45 6.53504 414.154 6.84958L369.361 17.3773C368.355 17.6044 367.423 18.0825 366.652 18.767C365.88 19.4515 365.295 20.3201 364.95 21.2917C364.606 22.2633 364.513 23.3064 364.68 24.3236C364.848 25.3407 365.271 26.2989 365.909 27.1088C391.492 60.1073 416.101 93.2828 440.534 126.547C467.091 161.934 493.647 198.029 519.408 233.947C543.781 267.388 567.77 301.035 591.377 334.889L586.331 337.189C560.128 306.992 534.102 276.736 508.254 246.421C479.13 213.069 451.245 179.274 422.918 145.567C394.59 111.861 368.034 80.3665 341.654 47.4564C340.928 46.5057 339.927 45.8008 338.787 45.4369C337.647 45.073 336.423 45.0676 335.28 45.4216L295.091 56.834C294.059 57.1425 293.125 57.7145 292.382 58.4937C291.638 59.2729 291.111 60.2323 290.852 61.2772C290.593 62.3222 290.61 63.4167 290.904 64.4526C291.197 65.4886 291.755 66.4303 292.524 67.1848C323.684 96.8216 353.959 126.724 384.145 156.714C416.898 189.094 450.094 221.385 482.051 254.029C511.913 284.049 541.42 314.158 570.574 344.355L565.97 346.744C534.692 320.026 503.68 293.25 472.933 266.415C437.878 236.336 404.062 205.814 369.893 175.647C335.723 145.479 303.235 116.461 270.924 86.6477C270.134 85.9048 269.157 85.3894 268.097 85.1558C267.038 84.9222 265.935 84.9792 264.905 85.3207L228.876 96.91C227.794 97.2544 226.83 97.8932 226.092 98.7546C225.354 99.616 224.87 100.666 224.695 101.787C224.521 102.908 224.662 104.055 225.103 105.1C225.545 106.145 226.269 107.046 227.194 107.703C263.134 134.244 298.012 160.784 333.421 187.324C371.752 216.342 410.525 245.271 448.501 274.554C482.966 301.153 517.401 327.841 551.807 354.617L547.558 357.006C512.149 333.415 477.035 309.823 442.216 286.232C402.115 259.691 363.165 232.178 323.772 205.106C284.38 178.035 246.846 152.026 209.312 125.485C208.512 124.886 207.573 124.498 206.582 124.359C205.592 124.22 204.582 124.333 203.647 124.689L172.133 136.367C171.035 136.768 170.076 137.476 169.369 138.405C168.662 139.335 168.237 140.448 168.143 141.612C168.05 142.777 168.293 143.943 168.843 144.973C169.394 146.004 170.228 146.855 171.248 147.425C211.437 170.604 250.918 194.048 290.399 217.492C333.51 243.148 377.151 268.626 419.554 294.636C458.15 317.933 496.51 341.259 534.633 364.614L530.827 367.091L415.747 306.048C371.486 282.516 327.933 258.541 284.114 235.274C240.295 212.007 197.716 188.386 155.933 164.765C155.093 164.351 154.17 164.136 153.233 164.136C152.297 164.136 151.373 164.351 150.533 164.765L123.976 176.177C122.874 176.646 121.933 177.428 121.272 178.427C120.611 179.426 120.258 180.597 120.258 181.795C120.258 182.993 120.611 184.164 121.272 185.163C121.933 186.162 122.874 186.944 123.976 187.413C167.795 207.407 210.906 227.754 253.928 248.102C301.11 270.396 348.736 292.336 395.564 315.161C436.875 335.095 478.185 355.089 519.496 375.142L515.955 377.619C474.94 360.22 434.013 343.028 393.174 326.042C345.106 305.429 298.012 284.728 250.83 264.115C203.647 243.502 157.615 223.862 111.76 203.426C110.961 203.035 110.083 202.832 109.193 202.832C108.303 202.832 107.425 203.035 106.626 203.426L83.9642 214.307C82.8903 214.85 81.9979 215.694 81.3958 216.735C80.7937 217.776 80.5081 218.97 80.5738 220.171C80.6395 221.372 81.0537 222.528 81.7659 223.498C82.478 224.467 83.4572 225.208 84.5839 225.631C131.324 242.617 177.444 259.957 223.565 277.296C273.757 296.494 324.657 315.249 374.761 334.889C418.492 351.521 462.074 368.242 505.509 385.05L502.234 387.616C459.802 373.461 417.488 359.277 375.293 345.063C324.303 327.989 274.023 310.56 223.565 293.221C173.107 275.881 124.242 258.895 75.289 241.555C74.5149 241.186 73.6681 240.994 72.8103 240.994C71.9526 240.994 71.1058 241.186 70.3317 241.555L51.7419 251.818C50.6767 252.403 49.8105 253.293 49.2543 254.373C48.6981 255.454 48.4771 256.676 48.6197 257.882C48.7623 259.089 49.262 260.225 50.0548 261.147C50.8475 262.068 51.8973 262.732 53.0698 263.053C102.111 277.119 150.445 291.54 199.221 305.96C252.334 321.707 306.068 337.366 358.562 353.467C403.531 367.032 448.353 380.627 493.028 394.251L490.195 396.817C446.996 385.611 403.944 374.316 361.04 362.933C307.927 349.044 254.813 334.624 202.319 320.38C149.825 306.137 98.5705 292.955 47.2273 278.535C46.3917 278.309 45.5176 278.263 44.663 278.4C43.8084 278.538 42.9927 278.855 42.27 279.331L27.4867 288.797C26.4545 289.447 25.6406 290.39 25.1498 291.506C24.6589 292.622 24.5137 293.86 24.7327 295.059C24.9518 296.258 25.5251 297.364 26.3788 298.235C27.2325 299.106 28.3275 299.701 29.5227 299.944C80.4233 311.18 130.881 322.769 181.339 334.358C236.577 347.098 291.993 359.66 346.788 372.576L482.582 404.513L480.015 407.167L351.037 381.335C296.153 370.276 241.977 359.041 187.27 347.805C132.563 336.57 80.0692 326.042 27.0441 314.364C26.1899 314.176 25.3053 314.174 24.45 314.357C23.5948 314.54 22.7889 314.905 22.0868 315.426L10.4903 324.273C9.62217 325.016 8.98002 325.987 8.63688 327.077C8.29374 328.166 8.26338 329.33 8.54926 330.436C8.83514 331.542 9.42579 332.546 10.254 333.333C11.0823 334.12 12.1149 334.659 13.2345 334.889C65.4039 343.559 117.367 352.406 169.123 361.429C225.689 371.161 282.521 380.627 338.733 390.712C383.702 398.38 428.613 406.312 473.464 414.51L471.163 417.076C428.937 411.06 386.623 404.956 344.487 398.675C288.629 390.624 233.214 382.131 177.533 373.815C121.852 365.499 68.2072 357.183 14.0312 348.602C13.1518 348.474 12.2552 348.534 11.4007 348.778C10.5462 349.022 9.75317 349.444 9.07397 350.017L0.221702 357.714C-0.647361 358.509 -1.27139 359.536 -1.57717 360.674C-1.88295 361.811 -1.85781 363.012 -1.50469 364.136C-1.15157 365.26 -0.485121 366.259 0.416476 367.018C1.31807 367.776 2.41743 368.262 3.58557 368.418C56.6992 374.346 109.813 380.627 162.218 386.908C219.581 393.809 277.298 400.444 334.129 407.61C378.037 412.918 421.885 418.344 465.674 423.888C464.966 424.773 464.346 425.746 463.727 426.63L341.388 414.51C285.088 409.202 229.053 403.363 173.195 397.79C117.337 392.216 62.7187 387.085 8.0117 381.158C7.06379 381.066 6.10748 381.194 5.21704 381.532C4.3266 381.869 3.52599 382.407 2.87738 383.104L-3.31921 389.651C-4.134 390.487 -4.6919 391.539 -4.92678 392.682C-5.16167 393.825 -5.0637 395.012 -4.64448 396.101C-4.22526 397.19 -3.50237 398.137 -2.56146 398.828C-1.62056 399.519 -0.501083 399.927 0.664313 400.002C54.132 403.54 107.452 407.285 160.625 411.237C218.076 415.306 275.704 419.288 333.067 423.711L459.478 433.354C458.858 434.327 458.415 435.212 457.884 436.185L341.565 430.258C285.265 427.515 229.319 424.242 173.372 421.411C117.426 418.58 63.1614 415.218 8.45431 411.856C7.3893 411.797 6.32668 412.009 5.36651 412.474C4.40634 412.938 3.58021 413.639 2.96591 414.51L-1.28319 420.084C-1.97379 420.983 -2.4001 422.057 -2.51432 423.185C-2.62854 424.313 -2.42617 425.451 -1.92988 426.47C-1.43359 427.49 -0.663 428.351 0.295529 428.957C1.25406 429.564 2.36264 429.892 3.49704 429.904C56.9648 431.024 110.255 432.44 163.369 434.15C220.555 435.743 277.917 437.158 334.926 439.104L454.432 442.909C453.989 443.882 453.635 444.855 453.281 445.74L344.487 444.855C288.717 444.855 233.214 443.705 177.621 442.997C122.029 442.289 68.8268 441.67 14.6509 440.697C13.5593 440.7 12.4872 440.987 11.5404 441.53C10.5935 442.073 9.80452 442.853 9.25102 443.793L6.59534 448.482C6.12581 449.415 5.90368 450.453 5.95018 451.496C5.99669 452.54 6.31027 453.554 6.86094 454.441C7.41161 455.329 8.18095 456.06 9.09538 456.566C10.0098 457.072 11.0387 457.334 12.0837 457.329C65.1974 456.385 118.045 455.618 170.628 455.029C227.017 454.321 283.494 453.348 339.706 452.905L451.068 451.844C451.068 452.817 450.537 453.79 450.36 454.763L350.241 457.948C295.534 459.718 240.885 461.31 186.296 462.725C133.183 464.318 80.0692 465.763 26.9556 467.06C25.7416 467.071 24.5594 467.449 23.5642 468.144C22.5689 468.839 21.807 469.818 21.3786 470.953L19.8737 474.669C19.5223 475.627 19.4136 476.658 19.5572 477.669C19.7008 478.68 20.0924 479.64 20.697 480.463C21.3016 481.286 22.1005 481.947 23.0225 482.387C23.9446 482.827 24.9612 483.032 25.9818 482.985C78.1512 479.977 130.173 477.028 182.047 474.138C237.197 471.307 292.347 468.21 347.408 465.291L449.563 460.248C449.476 461.219 449.476 462.197 449.563 463.168L358.916 469.626C305.802 473.519 252.689 476.969 199.575 480.507C147.878 484.046 96.2098 487.437 44.5716 490.681C43.2092 490.756 41.9112 491.285 40.8844 492.182C39.8576 493.08 39.1611 494.296 38.9061 495.635L38.375 498.643C38.1923 499.574 38.229 500.534 38.4823 501.448C38.7356 502.362 39.1984 503.205 39.8342 503.909C40.4699 504.613 41.261 505.159 42.1448 505.504C43.0286 505.85 43.9807 505.984 44.9257 505.898C95.7377 500.944 146.55 496.343 197.362 491.743C250.475 486.789 304.386 481.746 357.854 477.234L449.917 469.095V471.926L369.45 480.773C317.93 486.523 266.41 491.743 214.889 497.316C165.258 502.565 115.567 507.726 65.817 512.798C64.3144 512.971 62.9268 513.687 61.9158 514.811C60.9049 515.936 60.3403 517.391 60.3286 518.903V521.114C60.3338 521.98 60.5232 522.835 60.8842 523.622C61.2453 524.409 61.7697 525.11 62.4228 525.679C63.0758 526.248 63.8425 526.672 64.6719 526.922C65.5013 527.172 66.3745 527.243 67.2334 527.13C116.452 520.525 165.671 514.066 214.889 507.756C266.41 501.121 317.93 494.308 369.45 487.85L450.979 477.588C451.221 478.547 451.517 479.493 451.865 480.419L381.401 491.477C331.916 498.82 282.432 505.809 232.948 512.975C185.765 519.787 138.317 526.599 91.3116 533.234C90.487 533.351 89.695 533.634 88.984 534.067C88.2731 534.501 87.6583 535.075 87.1775 535.754C86.6966 536.433 86.3598 537.204 86.1878 538.018C86.0158 538.832 86.0122 539.673 86.1773 540.489V542.081C86.4988 543.627 87.4067 544.988 88.7106 545.878C90.0146 546.769 91.613 547.12 93.1706 546.858C140.442 538.631 187.713 530.757 234.807 522.795C284.026 514.597 333.244 506.37 382.463 498.113L453.281 486.523L454.786 489.266L395.122 500.413C348.027 509.26 300.933 518.106 253.485 526.334C209.224 534.355 164.756 542.435 120.081 550.574C119.111 550.699 118.185 551.059 117.385 551.623C116.585 552.186 115.934 552.936 115.489 553.807C115.044 554.679 114.819 555.646 114.833 556.624C114.846 557.602 115.098 558.562 115.567 559.421L116.009 560.394C116.542 561.719 117.529 562.812 118.794 563.477C120.059 564.141 121.52 564.334 122.914 564.021C167.825 554.467 212.824 545.089 257.911 535.888C304.563 526.245 351.214 516.425 398.043 506.959L458.327 494.132L460.451 496.697L410.79 507.933C366.44 518.195 321.648 528.015 277.386 538.366C235.781 547.212 194.175 556.944 152.392 565.968C151.414 566.174 150.502 566.618 149.735 567.259C148.968 567.9 148.371 568.719 147.995 569.645C147.619 570.571 147.477 571.575 147.58 572.569C147.683 573.563 148.028 574.516 148.586 575.345V575.964C149.303 577.013 150.322 577.819 151.507 578.277C152.692 578.735 153.989 578.823 155.225 578.53C197.539 567.855 240 557.268 282.609 546.77C326.871 535.888 370.335 524.918 414.42 514.302L464.7 502.005L467.445 504.482L427.875 514.745C386.269 525.98 344.31 536.862 302.527 547.92C264.108 558.094 225.601 568.268 186.916 578.176C185.883 578.431 184.934 578.95 184.164 579.684C183.394 580.418 182.829 581.339 182.525 582.358C182.221 583.377 182.188 584.458 182.43 585.494C182.673 586.529 183.182 587.483 183.906 588.262V588.262C184.689 589.105 185.694 589.711 186.806 590.008C187.918 590.305 189.092 590.283 190.191 589.942C229.732 578.147 269.419 566.557 309.255 555.174C350.241 543.32 391.138 531.288 432.301 519.787L473.11 508.11C474.214 508.918 475.367 509.656 476.563 510.321L445.048 520.672C406.452 532.792 367.502 544.647 328.552 556.678C293.143 567.472 257.734 578.235 222.325 588.969C221.272 589.291 220.326 589.891 219.586 590.706C218.846 591.521 218.341 592.521 218.123 593.6C217.905 594.679 217.983 595.797 218.349 596.835C218.715 597.873 219.355 598.793 220.201 599.497V599.497C221.021 600.156 221.994 600.599 223.031 600.784C224.067 600.97 225.133 600.892 226.132 600.559C262.692 587.996 299.517 575.611 336.342 563.314C373.168 551.016 412.029 537.746 450.183 525.184L482.494 514.479L486.566 516.514L462.841 525.361C427.432 538.189 391.227 550.84 355.463 563.49C323.595 574.873 291.668 586.138 259.682 597.285C258.586 597.659 257.619 598.336 256.894 599.237C256.168 600.139 255.714 601.228 255.584 602.378C255.454 603.528 255.654 604.69 256.16 605.731C256.666 606.772 257.458 607.647 258.443 608.255V608.255C259.265 608.775 260.199 609.094 261.168 609.186C262.136 609.279 263.113 609.142 264.019 608.786C297.894 595.339 331.857 582.128 365.909 569.152C400.61 555.705 435.222 542.612 470.1 528.988L494.887 519.522L499.578 521.38L482.494 528.369C450.094 541.727 417.252 554.909 384.587 568.268C356.083 580.063 327.52 591.623 298.897 602.947C297.795 603.374 296.841 604.112 296.15 605.071C295.459 606.029 295.061 607.168 295.005 608.348C294.949 609.528 295.236 610.699 295.833 611.719C296.43 612.739 297.31 613.564 298.366 614.094C299.191 614.507 300.1 614.722 301.022 614.722C301.944 614.722 302.853 614.507 303.678 614.094C333.687 600.293 364.227 587.111 394.767 573.753C425.308 560.394 457.619 545.885 489.31 532.173L507.457 524.211L512.768 525.715L501.349 531.111C472.136 544.912 442.481 558.536 412.826 572.249C387.686 584.045 362.427 595.84 337.051 607.636C335.954 608.122 335.021 608.915 334.367 609.92C333.713 610.926 333.364 612.099 333.364 613.298C333.364 614.497 333.713 615.67 334.367 616.676C335.021 617.681 335.954 618.474 337.051 618.96C337.861 619.311 338.735 619.491 339.618 619.491C340.501 619.491 341.375 619.311 342.185 618.96C369.184 605.07 396.538 591.181 423.891 577.468C451.245 563.756 480.989 548.097 509.05 533.942L521.621 527.661L527.375 528.899L520.558 532.527C494.621 546.593 468.153 560.483 441.862 574.549L375.735 609.936C374.664 610.493 373.781 611.355 373.2 612.412C372.618 613.47 372.363 614.676 372.468 615.879C372.572 617.081 373.03 618.226 373.785 619.168C374.54 620.11 375.558 620.807 376.709 621.172V621.172C377.526 621.437 378.39 621.526 379.244 621.435C380.098 621.343 380.924 621.073 381.666 620.641C405.567 606.545 429.586 592.567 453.724 578.707C478.687 564.287 503.473 549.778 528.614 535.446L536.581 530.846L542.689 531.73L539.679 533.588C516.84 547.832 493.647 561.898 470.543 575.964C451.717 587.76 432.744 599.291 413.623 610.556C412.599 611.195 411.783 612.119 411.278 613.215C410.772 614.311 410.598 615.531 410.777 616.724C410.955 617.918 411.479 619.033 412.284 619.934C413.088 620.834 414.138 621.479 415.305 621.791V621.791C416.147 621.998 417.023 622.027 417.877 621.875C418.731 621.722 419.544 621.392 420.262 620.906C440.799 606.928 461.455 592.95 482.228 578.972C503.916 564.552 525.339 550.043 547.292 535.711L551.63 532.792H556.056L542.955 544.47C528.437 554.909 513.654 565.26 498.693 575.611C483.733 585.961 466.825 598.17 450.625 609.494C449.747 610.043 449.023 610.806 448.521 611.711C448.02 612.616 447.756 613.634 447.756 614.669C447.756 615.704 448.02 616.722 448.521 617.628C449.023 618.533 449.747 619.296 450.625 619.845L346.788 705.393C278.891 762.897 209.135 820.402 140.176 877.464C75.6431 931.871 10.0477 986.191 -56.6984 1040.33C-57.7048 1041.07 -58.4642 1042.1 -58.8768 1043.28C-59.2894 1044.46 -59.3361 1045.73 -59.0106 1046.94C-58.6852 1048.14 -58.0029 1049.22 -57.0532 1050.03C-56.1034 1050.84 -54.9307 1051.35 -53.6886 1051.48L4.1167 1059.27C5.02987 1059.38 5.95646 1059.28 6.82923 1058.99C7.702 1058.7 8.49904 1058.22 9.1625 1057.58C69.8891 999.903 132.121 942.576 194.441 884.983C256.761 827.391 319.7 768.382 383.614 710.259C447.527 652.135 513.034 592.862 578.364 534.208H584.914C530.738 589.353 476.326 644.409 421.678 699.377C365.909 755.82 308.723 812.616 252.069 868.528C198.955 921.609 144.956 974.69 90.0723 1027.77C89.2114 1028.58 88.6047 1029.63 88.326 1030.77C88.0473 1031.92 88.1086 1033.13 88.5024 1034.24C88.8962 1035.36 89.6055 1036.34 90.5442 1037.06C91.4829 1037.78 92.6106 1038.21 93.7902 1038.3L152.569 1043.34C153.545 1043.41 154.523 1043.26 155.428 1042.89C156.334 1042.52 157.143 1041.95 157.792 1041.22C206.126 985.041 255.964 928.952 305.891 873.129C355.818 817.305 406.364 759.536 458.15 702.562C509.936 645.589 560.039 590.119 611.471 533.854H618.553C577.242 586.286 535.43 638.777 493.116 691.327C449.563 746.265 404.062 801.116 359.358 856.054C317.222 907.808 274.908 959.562 231.443 1011.23C230.725 1012.11 230.265 1013.17 230.112 1014.3C229.96 1015.43 230.121 1016.58 230.578 1017.62C231.035 1018.66 231.771 1019.56 232.705 1020.21C233.638 1020.86 234.733 1021.24 235.869 1021.31L295.091 1023.7C296.136 1023.73 297.171 1023.49 298.099 1023.01C299.028 1022.53 299.82 1021.83 300.402 1020.96C336.874 966.728 374.85 912.497 413.003 858.266C451.156 804.035 489.664 747.946 529.588 692.831C568.006 638.806 606.691 584.959 645.641 531.288L652.9 530.403C622.802 580.299 592.38 630.136 561.633 679.914C529.411 732.995 495.418 786.076 461.956 839.157C430.708 889.053 399.194 939.037 366.529 989.022C365.92 989.944 365.573 991.015 365.525 992.12C365.477 993.224 365.73 994.321 366.257 995.293C366.784 996.265 367.566 997.075 368.518 997.638C369.47 998.201 370.557 998.494 371.663 998.488H430.708C431.857 998.496 432.984 998.176 433.956 997.564C434.929 996.953 435.706 996.076 436.196 995.038C461.514 943.107 488.159 891.176 514.981 839.157C541.804 787.138 569.069 732.995 597.573 679.914C624.484 628.78 651.808 577.616 679.545 526.422L686.804 525.184C667.093 572.367 647.057 619.727 626.697 667.263C605.275 718.133 582.436 769.179 559.597 820.225C538.528 868.174 517.194 916.124 494.798 964.162C494.287 965.113 494.041 966.183 494.086 967.26C494.131 968.338 494.465 969.384 495.053 970.289C495.642 971.193 496.463 971.923 497.43 972.402C498.397 972.88 499.476 973.09 500.552 973.009L558.889 970.62C560.157 970.577 561.379 970.135 562.38 969.357C563.382 968.578 564.112 967.503 564.466 966.285C579.249 917.009 595.36 867.644 611.56 818.278C628.202 767.498 644.225 716.717 661.929 665.936C678.394 617.397 695.214 568.828 712.387 520.23L719.469 518.726C709.318 563.373 698.814 608.255 687.955 653.374C676.801 701.854 663.877 750.689 651.572 799.081C640.33 844.377 628.379 890.203 615.543 936.472C615.267 937.422 615.226 938.426 615.425 939.396C615.623 940.366 616.054 941.273 616.682 942.039C617.309 942.805 618.113 943.408 619.025 943.794C619.937 944.18 620.93 944.339 621.917 944.257L678.926 939.745C680.35 939.628 681.689 939.014 682.708 938.012C683.727 937.01 684.362 935.682 684.502 934.26C689.46 887.991 695.745 841.545 702.207 795.1C708.846 746.885 714.777 698.847 722.39 650.632C729.177 604.805 736.318 558.979 743.813 513.152L750.629 511.294C749.124 553.317 747.531 595.339 745.495 637.361C743.813 683.276 740.449 729.191 737.705 775.194C735.226 818.544 732.482 861.982 728.852 905.596C728.766 906.505 728.885 907.42 729.2 908.277C729.515 909.133 730.017 909.908 730.671 910.544C731.325 911.181 732.114 911.663 732.978 911.955C733.843 912.247 734.762 912.341 735.669 912.231L790.553 905.773C792.134 905.574 793.577 904.773 794.583 903.537C795.588 902.301 796.079 900.726 795.953 899.138C792.058 855.966 789.313 812.705 787.1 769.356C784.356 724.148 780.992 678.941 779.222 633.469C777.097 590.532 775.297 547.596 773.822 504.659L780.196 502.624C786.746 541.816 793.208 581.007 799.228 620.198C806.398 663.105 811.975 706.278 818.083 749.362C823.926 790.234 829.68 831.283 834.283 872.421C834.38 873.245 834.643 874.042 835.054 874.763C835.466 875.484 836.019 876.116 836.679 876.619C837.34 877.122 838.095 877.488 838.9 877.694C839.705 877.9 840.543 877.942 841.365 877.817L893.505 869.59C894.371 869.462 895.199 869.149 895.934 868.672C896.669 868.196 897.292 867.567 897.762 866.829C898.233 866.09 898.538 865.26 898.659 864.393C898.78 863.526 898.713 862.643 898.462 861.805C886.423 821.994 875.534 782.183 864.823 742.019C853.404 699.82 841.365 657.709 831.008 615.244C820.739 575.434 810.824 535.623 801.175 495.547L807.018 493.335C821.004 529.548 834.696 565.791 848.092 602.063C863.318 641.873 877.039 681.684 891.292 722.114C905.013 760.42 918.645 798.815 931.127 837.122C931.56 838.564 932.519 839.791 933.814 840.561C935.109 841.331 936.645 841.587 938.12 841.28L986.896 831.726C987.824 831.529 988.695 831.122 989.441 830.537C990.187 829.951 990.788 829.202 991.199 828.347C991.609 827.492 991.818 826.555 991.809 825.607C991.799 824.659 991.572 823.725 991.145 822.879C971.936 786.518 953.789 749.893 935.73 713.267C916.432 674.164 896.603 635.238 878.279 595.958C860.574 559.215 843.253 522.471 826.316 485.727L831.716 483.515C851.663 516.426 871.699 549.454 891.823 582.6C914.396 619.314 935.553 656.382 957.152 693.185C978.752 729.987 998.935 763.959 1019.12 800.142C1019.77 801.291 1020.78 802.197 1021.99 802.724C1023.21 803.25 1024.56 803.369 1025.85 803.062L1070.64 792.534C1071.63 792.3 1072.55 791.822 1073.31 791.144C1074.07 790.465 1074.64 789.608 1074.99 788.65C1075.33 787.692 1075.43 786.663 1075.27 785.657C1075.11 784.651 1074.71 783.7 1074.09 782.891C1048.51 749.893 1023.9 716.629 999.466 683.365C972.909 647.977 946.353 611.882 920.593 575.964C896.455 542.524 872.584 509.024 848.978 475.465L854.023 473.165C880.226 503.126 906.252 533.146 932.1 563.225C961.224 596.578 989.109 630.372 1017.35 664.079C1045.59 697.785 1072.32 729.28 1098.7 762.19C1099.43 763.137 1100.43 763.844 1101.56 764.223C1102.7 764.601 1103.92 764.632 1105.07 764.313L1145.53 753.077C1146.59 752.803 1147.55 752.252 1148.32 751.479C1149.09 750.707 1149.64 749.742 1149.91 748.685C1150.18 747.628 1150.17 746.518 1149.86 745.47C1149.56 744.422 1148.98 743.475 1148.18 742.727C1117.02 713.09 1086.75 683.188 1056.56 653.197C1023.81 620.818 990.614 588.527 958.657 555.882C928.796 525.921 899.288 495.812 870.135 465.556L874.738 463.168C906.016 489.885 937.028 516.661 967.775 543.497C1003.18 573.664 1036.56 604.186 1070.73 634.53C1104.9 664.875 1137.38 693.715 1169.7 723.529C1170.49 724.272 1171.46 724.788 1172.52 725.021C1173.58 725.255 1174.69 725.198 1175.72 724.856L1211.74 713.355C1212.8 712.985 1213.74 712.335 1214.46 711.473C1215.18 710.611 1215.65 709.571 1215.82 708.463C1215.99 707.354 1215.86 706.22 1215.44 705.181C1215.02 704.142 1214.32 703.237 1213.43 702.562C1177.4 676.022 1142.61 649.481 1107.2 622.941C1068.87 593.923 1030.01 565.083 992.119 535.711C957.536 509.112 923.101 482.365 888.813 455.471L893.062 453.082C928.471 476.674 963.585 500.265 998.404 523.857C1038.5 550.397 1077.45 577.911 1116.85 604.982C1156.24 632.053 1193.77 658.063 1231.31 684.603C1232.11 685.203 1233.05 685.59 1234.04 685.729C1235.03 685.868 1236.04 685.755 1236.97 685.399L1268.49 673.722C1269.69 673.337 1270.74 672.589 1271.5 671.582C1272.26 670.575 1272.69 669.357 1272.73 668.096C1272.77 666.835 1272.41 665.594 1271.72 664.542C1271.02 663.49 1270.02 662.679 1268.84 662.221C1228.65 639.042 1189.17 615.598 1149.69 592.154C1106.58 566.498 1062.94 541.02 1020.53 515.01C981.939 491.831 943.579 468.505 905.455 445.032C906.783 444.236 908.111 443.439 909.35 442.555C947.828 462.902 986.188 483.279 1024.43 503.686C1068.69 527.13 1112.24 551.105 1156.06 574.461C1199.88 597.816 1241.84 620.906 1283.89 644.616C1284.74 645.011 1285.66 645.215 1286.59 645.215C1287.52 645.215 1288.44 645.011 1289.29 644.616L1315.85 633.203C1316.95 632.735 1317.89 631.952 1318.55 630.953C1319.21 629.954 1319.56 628.783 1319.56 627.586C1319.56 626.388 1319.21 625.217 1318.55 624.218C1317.89 623.219 1316.95 622.436 1315.85 621.968C1272.03 601.974 1228.92 581.626 1185.9 561.279C1138.71 538.985 1091.09 517.045 1044.26 494.308C1002.95 474.315 961.638 454.291 920.327 434.239L923.868 431.762C965.001 449.75 1005.99 467.296 1046.83 484.4C1094.89 504.571 1141.99 525.272 1189.52 545.797C1237.06 566.321 1282.74 586.05 1328.59 606.574C1329.4 606.947 1330.27 607.14 1331.16 607.14C1332.05 607.14 1332.92 606.947 1333.73 606.574L1356.39 595.604C1357.46 595.062 1358.36 594.218 1358.96 593.176C1359.56 592.135 1359.85 590.941 1359.78 589.74C1359.71 588.539 1359.3 587.384 1358.59 586.414C1357.88 585.444 1356.9 584.703 1355.77 584.28C1309.03 567.295 1262.91 549.955 1216.79 532.615C1166.24 513.594 1115.25 494.839 1065.33 475.553C1021.6 458.862 978.014 442.112 934.579 425.303C935.73 424.507 936.792 423.623 937.854 422.738C980.286 436.893 1022.6 451.107 1064.8 465.379C1115.79 482.365 1166.07 499.793 1216.52 517.133C1266.98 534.473 1315.76 551.193 1364.71 568.533C1365.49 568.879 1366.34 569.058 1367.19 569.058C1368.04 569.058 1368.89 568.879 1369.67 568.533L1388.26 558.271C1389.32 557.669 1390.17 556.769 1390.72 555.684C1391.27 554.6 1391.49 553.377 1391.34 552.17C1391.2 550.962 1390.71 549.823 1389.92 548.894C1389.14 547.966 1388.1 547.288 1386.93 546.947C1337.89 532.881 1289.56 518.46 1240.78 504.04C1187.67 488.293 1133.93 472.634 1081.44 456.621C1036.47 443.115 991.617 429.491 946.884 415.749L949.805 413.183L1078.96 447.067C1132.07 460.956 1185.19 475.376 1237.68 489.62C1290.17 503.863 1341.43 517.133 1392.77 531.465C1393.61 531.691 1394.48 531.737 1395.34 531.6C1396.19 531.462 1397.01 531.145 1397.73 530.669L1412.6 521.203C1413.63 520.547 1414.45 519.596 1414.93 518.474C1415.42 517.352 1415.56 516.11 1415.33 514.908C1415.1 513.707 1414.51 512.603 1413.65 511.737C1412.78 510.872 1411.68 510.286 1410.48 510.056C1359.58 498.82 1309.12 487.231 1258.66 475.642C1203.42 462.902 1147.92 450.428 1093.12 437.423C1047.8 426.925 1002.56 416.28 957.418 405.487L959.985 402.833L1088.96 428.665C1143.85 439.635 1198.2 450.959 1252.73 462.195C1307.26 473.43 1359.93 484.312 1412.96 495.635C1413.81 495.842 1414.7 495.854 1415.56 495.67C1416.41 495.486 1417.22 495.112 1417.91 494.574L1429.51 485.727C1430.49 485.011 1431.23 484.018 1431.65 482.877C1432.06 481.736 1432.12 480.497 1431.83 479.32C1431.53 478.142 1430.9 477.079 1429.99 476.267C1429.09 475.454 1427.97 474.928 1426.77 474.757C1374.54 465.91 1322.66 457.063 1270.79 448.217C1214.31 438.485 1157.48 429.019 1101.27 418.934C1056.3 411.149 1011.39 403.245 966.536 395.224L968.837 392.57C1011.03 398.468 1053.26 404.602 1095.51 410.972C1151.37 419.022 1206.79 427.515 1262.47 435.831C1318.15 444.147 1371.79 452.286 1425.97 460.868C1426.85 460.99 1427.74 460.927 1428.6 460.683C1429.45 460.439 1430.24 460.02 1430.93 459.452L1439.78 451.844C1440.69 451.066 1441.34 450.039 1441.67 448.891C1442 447.742 1441.98 446.523 1441.63 445.383C1441.27 444.244 1440.58 443.234 1439.66 442.48C1438.73 441.726 1437.6 441.259 1436.41 441.139C1383.3 435.241 1330.45 429.049 1277.87 422.561C1220.51 415.66 1162.79 409.025 1105.96 401.859C1062.05 396.551 1018.2 391.125 974.414 385.581C975.113 384.703 975.763 383.788 976.362 382.839L1098.7 394.605C1155.09 399.913 1211.12 405.752 1266.89 411.325C1322.66 416.899 1377.19 422.384 1431.9 428.311C1432.85 428.403 1433.8 428.275 1434.69 427.938C1435.58 427.6 1436.39 427.062 1437.03 426.365L1443.23 419.818C1444.05 418.977 1444.61 417.917 1444.84 416.766C1445.07 415.616 1444.96 414.423 1444.53 413.331C1444.11 412.238 1443.37 411.293 1442.42 410.608C1441.46 409.923 1440.33 409.527 1439.16 409.468C1386.05 405.929 1332.75 402.213 1279.29 398.321C1221.84 394.163 1164.21 390.182 1106.84 385.758L980.434 376.115L982.027 373.284L1098.35 379.212C1154.65 381.954 1210.59 385.227 1266.54 388.058C1322.49 390.889 1376.57 394.074 1431.28 397.436C1432.29 397.481 1433.3 397.288 1434.22 396.874C1435.14 396.459 1435.96 395.833 1436.59 395.047L1440.75 389.385C1441.44 388.492 1441.86 387.426 1441.98 386.306C1442.1 385.185 1441.91 384.054 1441.42 383.038C1440.93 382.021 1440.18 381.159 1439.23 380.546C1438.28 379.933 1437.19 379.594 1436.06 379.565C1382.95 378.415 1329.83 376.911 1276.19 375.407C1219 373.727 1161.64 372.311 1104.63 370.453L985.568 367.268C985.568 366.295 986.365 365.322 986.719 364.437L1095.51 365.322C1151.28 365.322 1206.79 366.561 1262.38 367.18C1317.97 367.799 1371.17 368.507 1425.35 369.48C1426.44 369.477 1427.51 369.19 1428.46 368.647C1429.41 368.104 1430.2 367.324 1430.75 366.384L1433.4 361.695C1433.87 360.762 1434.1 359.724 1434.05 358.681C1434 357.637 1433.69 356.623 1433.14 355.736C1432.59 354.848 1431.82 354.116 1430.9 353.611C1429.99 353.105 1428.96 352.843 1427.92 352.848C1374.8 353.792 1321.95 354.558 1269.37 355.148C1212.98 355.944 1156.51 356.829 1100.29 357.271L988.932 358.333C988.932 357.36 988.932 356.387 989.64 355.502L1089.76 352.229C1144.47 350.459 1199.11 348.867 1253.7 347.452C1306.82 345.859 1359.93 344.444 1413.04 343.205C1414.26 343.152 1415.43 342.748 1416.42 342.041C1417.41 341.334 1418.18 340.356 1418.62 339.224L1420.04 335.508C1420.41 334.557 1420.54 333.528 1420.41 332.515C1420.28 331.502 1419.9 330.537 1419.3 329.71C1418.7 328.882 1417.9 328.218 1416.98 327.779C1416.06 327.339 1415.04 327.137 1414.02 327.192C1361.91 330.2 1309.89 333.149 1257.95 336.039C1202.8 338.959 1147.65 341.966 1092.5 344.886L990.437 349.929V347.009L1081 340.551C1134.11 336.747 1187.22 333.297 1240.78 329.669C1292.48 326.131 1344.14 322.739 1395.78 319.496C1397.14 319.421 1398.44 318.892 1399.47 317.994C1400.5 317.097 1401.19 315.881 1401.45 314.541L1401.98 311.622C1402.18 310.685 1402.15 309.715 1401.91 308.789C1401.66 307.864 1401.2 307.009 1400.56 306.294C1399.93 305.579 1399.13 305.024 1398.24 304.674C1397.34 304.324 1396.38 304.189 1395.43 304.279C1344.62 309.233 1293.8 313.952 1242.99 318.434C1189.44 323.388 1135.97 328.431 1082.5 333.031L990.437 341.082V338.251L1070.9 329.404C1122.42 323.742 1173.94 318.434 1225.46 312.949C1275.1 307.641 1324.79 302.451 1374.54 297.379C1376.04 297.206 1377.43 296.49 1378.44 295.365C1379.45 294.241 1380.01 292.786 1380.03 291.274V289.151C1380.02 288.282 1379.83 287.424 1379.47 286.633C1379.11 285.843 1378.59 285.136 1377.93 284.561C1377.28 283.985 1376.52 283.553 1375.69 283.292C1374.86 283.031 1373.98 282.947 1373.12 283.047C1323.9 289.711 1274.68 296.17 1225.46 302.421C1173.94 309.056 1122.42 315.868 1070.9 322.327L989.375 332.589C989.133 331.629 988.837 330.684 988.489 329.758L1058.51 319.407C1108 312.064 1157.48 305.075 1206.88 297.909C1254.09 291.127 1301.45 284.403 1348.95 277.739C1349.78 277.612 1350.58 277.318 1351.29 276.876C1352 276.433 1352.61 275.851 1353.09 275.165C1353.57 274.479 1353.91 273.702 1354.08 272.882C1354.25 272.063 1354.25 271.217 1354.09 270.396V268.803C1353.77 267.258 1352.86 265.897 1351.55 265.006C1350.25 264.116 1348.65 263.764 1347.1 264.026C1299.82 272.254 1252.55 280.127 1205.46 288.089C1155.89 295.698 1106.49 303.63 1057.27 311.887L986.453 323.477C986.453 322.592 985.568 321.619 985.037 320.734L1044.7 309.676C1091.8 300.829 1138.89 291.982 1186.34 283.755C1230.89 275.556 1275.54 267.476 1320.27 259.514C1321.22 259.352 1322.12 258.97 1322.9 258.399C1323.68 257.827 1324.31 257.082 1324.75 256.223C1325.19 255.364 1325.42 254.414 1325.43 253.45C1325.43 252.485 1325.21 251.532 1324.79 250.667L1324.34 249.694C1323.81 248.369 1322.82 247.276 1321.56 246.612C1320.29 245.947 1318.83 245.754 1317.44 246.067C1272.47 255.622 1227.47 264.999 1182.44 274.2C1135.79 283.843 1089.14 293.663 1042.31 303.129L982.027 315.338L979.903 312.772L1029.48 301.537C1073.74 291.451 1118.53 281.631 1163.14 271.723C1204.46 262.463 1246.12 253.263 1288.14 244.121C1289.12 243.914 1290.03 243.471 1290.8 242.83C1291.56 242.188 1292.16 241.369 1292.54 240.443C1292.91 239.517 1293.05 238.513 1292.95 237.52C1292.85 236.526 1292.5 235.572 1291.95 234.743V234.124C1291.22 233.085 1290.2 232.286 1289.02 231.829C1287.83 231.372 1286.54 231.277 1285.31 231.558C1242.99 242.351 1200.41 252.791 1157.92 263.318C1113.66 274.2 1070.11 285.17 1026.11 295.875L975.123 308.349L972.378 305.872L1012.13 295.255C1053.73 284.02 1095.69 273.138 1137.47 262.08C1175.89 251.906 1214.4 241.732 1253.08 231.824C1254.11 231.558 1255.05 231.03 1255.81 230.291C1256.57 229.553 1257.12 228.63 1257.42 227.612C1257.71 226.595 1257.74 225.518 1257.49 224.488C1257.24 223.459 1256.73 222.511 1256.01 221.738C1255.22 220.895 1254.22 220.289 1253.11 219.992C1251.99 219.695 1250.82 219.717 1249.72 220.058C1210.12 231.853 1170.43 243.443 1130.66 254.825C1089.67 266.769 1048.77 278.712 1007.61 290.213C994.066 294.194 980.434 297.998 966.801 301.89L963.438 299.502L994.952 289.682C1033.55 277.562 1072.5 265.707 1111.45 253.764C1146.86 242.912 1182.09 232.148 1217.14 221.473C1218.2 221.147 1219.15 220.543 1219.9 219.724C1220.65 218.906 1221.16 217.902 1221.39 216.818C1221.61 215.734 1221.54 214.609 1221.19 213.56C1220.83 212.512 1220.2 211.578 1219.36 210.857V210.857C1218.54 210.198 1217.56 209.755 1216.53 209.569C1215.49 209.384 1214.42 209.462 1213.43 209.795C1176.87 222.358 1140.04 234.743 1103.21 247.04C1066.39 259.337 1027.53 272.608 989.375 285.17L957.064 295.875L952.992 293.84L976.716 284.993C1012.13 272.165 1048.33 259.514 1084.09 246.863C1115.96 235.539 1147.89 224.275 1179.88 213.069C1180.97 212.695 1181.94 212.018 1182.66 211.116C1183.39 210.215 1183.84 209.126 1183.97 207.976C1184.1 206.826 1183.9 205.663 1183.4 204.623C1182.89 203.582 1182.1 202.707 1181.11 202.099C1180.32 201.565 1179.4 201.23 1178.45 201.123C1177.49 201.015 1176.52 201.137 1175.63 201.479C1142.16 214.631 1108.5 227.695 1074.62 240.671C1039.92 254.118 1005.31 267.211 970.342 280.835L945.379 290.655L940.687 288.797L957.772 281.808C990.171 268.45 1023.01 255.268 1055.68 241.909C1084.18 230.113 1112.75 218.554 1141.37 207.23C1142.47 206.802 1143.42 206.065 1144.12 205.106C1144.81 204.147 1145.2 203.009 1145.26 201.829C1145.32 200.649 1145.03 199.478 1144.43 198.458C1143.84 197.438 1142.96 196.613 1141.9 196.083C1141.07 195.689 1140.16 195.485 1139.24 195.485C1138.33 195.485 1137.42 195.689 1136.59 196.083C1106.31 209.707 1075.77 223.242 1045.23 236.69C1014.69 250.137 982.381 264.557 950.69 278.358L932.455 286.232L927.232 284.728L938.651 279.331C967.864 265.53 997.519 251.906 1027.17 238.193C1052.31 226.516 1077.54 214.749 1102.95 202.806C1104.05 202.321 1104.98 201.527 1105.63 200.522C1106.29 199.517 1106.64 198.343 1106.64 197.144C1106.64 195.945 1106.29 194.772 1105.63 193.767C1104.98 192.762 1104.05 191.968 1102.95 191.482V191.482C1102.14 191.132 1101.27 190.951 1100.38 190.951C1099.5 190.951 1098.63 191.132 1097.81 191.482C1071.26 205.372 1043.46 219.261 1016.11 233.062C988.755 246.863 959.808 261.549 931.392 275.704L918.822 281.985L913.068 280.747L919.884 277.119C945.822 263.053 972.29 249.164 998.581 235.097C1020.53 223.419 1042.84 211.742 1064.71 200.152C1065.77 199.579 1066.64 198.707 1067.22 197.645C1067.79 196.582 1068.04 195.374 1067.94 194.171C1067.84 192.967 1067.38 191.82 1066.64 190.871C1065.89 189.922 1064.88 189.212 1063.73 188.828C1062.9 188.561 1062.02 188.471 1061.15 188.562C1060.29 188.654 1059.45 188.925 1058.69 189.359C1035.08 203.396 1011.06 217.374 986.631 231.293C961.756 245.713 936.969 260.222 911.829 274.554L903.862 279.154L897.754 278.269L900.763 276.412C923.602 262.168 946.795 248.102 969.9 234.035C988.726 222.24 1007.7 210.709 1026.82 199.444C1027.84 198.805 1028.66 197.881 1029.16 196.785C1029.67 195.689 1029.84 194.469 1029.67 193.275C1029.49 192.082 1028.96 190.966 1028.16 190.066C1027.35 189.166 1026.3 188.521 1025.14 188.209V188.209C1024.3 188.002 1023.42 187.973 1022.57 188.125C1021.71 188.278 1020.9 188.608 1020.18 189.094C999.643 203.072 978.752 217.05 958.215 231.028C937.677 245.006 915.104 259.957 893.15 274.288L888.724 277.208H884.387L898.373 265.707C912.891 255.268 927.586 244.917 942.635 234.566C957.684 224.216 974.503 212.007 990.703 200.771C991.553 200.168 992.238 199.36 992.693 198.423C993.148 197.485 993.359 196.447 993.306 195.406C993.253 194.365 992.938 193.354 992.39 192.467C991.842 191.58 991.079 190.846 990.171 190.332L1092.42 104.872C1160.31 47.3679 1229.98 -10.1363 1299.03 -67.1982C1364.36 -121.518 1429.95 -175.925 1496.7 -230.068C1497.7 -230.807 1498.46 -231.833 1498.88 -233.012C1499.29 -234.19 1499.34 -235.465 1499.01 -236.671C1498.69 -237.876 1498 -238.955 1497.05 -239.766C1496.1 -240.577 1494.93 -241.082 1493.69 -241.215V-241.215Z" fill="white"/>
        </g>
    </g>
    <defs>
        <radialGradient id="paint0_radial_2_2" cx="0" cy="0" r="1" gradientUnits="userSpaceOnUse" gradientTransform="translate(720 888) rotate(90) scale(628.5 1650.02)">
            <stop stop-color="#0068FF" stop-opacity="0.58"/>
            <stop offset="1" stop-color="#0510D7" stop-opacity="0"/>
        </radialGradient>
        <clipPath id="clip0_2_2">
            <rect width="1440" height="810" fill="white"/>
        </clipPath>
        <clipPath id="clip1_2_2">
            <rect width="1558" height="1308" fill="white" transform="translate(-59 -249)"/>
        </clipPath>
    </defs>
</svg>