<svg width="83" height="90" viewBox="0 0 83 90" fill="none" xmlns="http://www.w3.org/2000/svg">
<path d="M38.9178 20.3119L43.7211 17.9167C49.7796 14.881 55.8486 11.851 61.928 8.82661C62.1151 8.75854 62.2716 8.61712 62.3663 8.43049C62.4609 8.24387 62.4869 8.02572 62.439 7.81942C62.2713 6.24338 62.6448 4.65574 63.4889 3.35557C64.3331 2.0554 65.5898 1.13247 67.0222 0.760652C68.0255 0.47461 69.0797 0.465661 70.0872 0.734642C71.0946 1.00362 72.0228 1.54184 72.7857 2.29949C73.5487 3.05713 74.1218 4.00973 74.4521 5.06914C74.7824 6.12855 74.8592 7.26054 74.6753 8.36036C74.4914 9.46019 74.0529 10.4923 73.4002 11.3612C72.7475 12.2301 71.9018 12.9078 70.9413 13.3314C69.9808 13.7551 68.9366 13.9111 67.9053 13.7849C66.874 13.6588 65.8888 13.2547 65.0411 12.6099C64.9341 12.5108 64.8017 12.4489 64.6614 12.4323C64.5211 12.4157 64.3794 12.4451 64.255 12.5168C56.4775 16.4327 48.7078 20.3317 40.9461 24.2137L40.6709 24.383C41.6695 27.5717 41.9901 30.9612 41.6091 34.3012C41.2282 37.6412 40.1553 40.8465 38.4697 43.6804L47.6204 51.5855C52.9582 46.8035 55.0572 45.7878 61.4092 44.933C61.472 44.0866 61.5428 43.2402 61.5978 42.3939C61.7551 40.2949 61.8966 38.162 62.0616 36.0884C62.0899 35.9197 62.06 35.7458 61.9775 35.5993C61.8949 35.4527 61.7655 35.3437 61.6135 35.2928C60.3655 34.59 59.3794 33.4472 58.8203 32.0555C58.2611 30.6638 58.1628 29.1076 58.5417 27.6471C58.9206 26.1867 59.7538 24.9106 60.9019 24.0324C62.05 23.1541 63.4434 22.7269 64.8491 22.8222C66.2547 22.9176 67.5873 23.5296 68.624 24.5561C69.6607 25.5825 70.3385 26.9611 70.5442 28.4611C70.7499 29.9612 70.471 31.4919 69.754 32.797C69.0371 34.1022 67.9256 35.1027 66.6055 35.6313C66.4404 35.7075 66.2124 35.9106 66.2046 36.0714C65.9687 39.0761 65.7643 42.0807 65.5442 45.1361C68.5161 45.6443 71.349 46.8454 73.8448 48.6553C76.3406 50.4652 78.439 52.8402 79.9934 55.6143C82.2687 59.5969 83.2965 64.2607 82.9257 68.9193C82.557 73.7928 80.7053 78.3992 77.6577 82.0244C74.6101 85.6497 70.5368 88.0913 66.0693 88.9707C61.6017 89.8502 56.9895 89.1183 52.9476 86.8886C48.9057 84.6589 45.6598 81.0559 43.7133 76.6382L38.3047 78.8303C35.5217 79.956 32.7388 81.0901 29.948 82.2158C29.7838 82.2535 29.6371 82.3521 29.5337 82.4945C29.4302 82.6368 29.3765 82.8138 29.382 82.9945C29.3301 84.4953 28.8026 85.9317 27.8873 87.0649C26.972 88.1982 25.724 88.9601 24.3508 89.2238C23.2105 89.4825 22.0247 89.374 20.9412 88.912C19.8578 88.4499 18.9247 87.6547 18.2582 86.6254C17.5219 85.6374 17.0812 84.4323 16.9942 83.1691C16.9071 81.9058 17.1779 80.6439 17.7708 79.5498C18.2952 78.4305 19.1135 77.5017 20.1239 76.8787C21.1344 76.2558 22.2925 75.9661 23.4546 76.0457C24.9923 76.0915 26.4575 76.7593 27.5582 77.9163C27.6545 78.0053 27.7678 78.0703 27.8901 78.1069C28.0123 78.1435 28.1406 78.1506 28.2657 78.1278C32.9092 76.2827 37.5474 74.4207 42.1803 72.5418C42.2374 72.5067 42.2903 72.464 42.3375 72.4148C41.6719 69.4746 41.5712 66.419 42.0417 63.4354C42.5121 60.4518 43.5437 57.6031 45.0733 55.0641C41.9995 52.4319 38.9571 49.8166 35.8755 47.1589C33.1032 50.2153 29.5621 52.3333 25.6872 53.2529C21.8081 54.1975 17.7584 53.9214 14.021 52.4573C13.9345 52.6604 13.848 52.8381 13.7773 53.0243C12.9911 55.2503 12.205 57.4847 11.4189 59.7022C11.3332 59.8726 11.2985 60.0674 11.3196 60.2598C11.3407 60.4522 11.4166 60.6329 11.5368 60.7771C12.3304 61.8446 12.798 63.1503 12.8753 64.5151C12.9526 65.88 12.6359 67.2371 11.9686 68.4005C11.3013 69.564 10.316 70.4766 9.14798 71.0135C7.97992 71.5503 6.68621 71.6851 5.44424 71.3991C3.93081 71.059 2.59081 70.1203 1.68877 68.7684C0.786733 67.4165 0.388189 65.7497 0.571812 64.097C0.755434 62.4442 1.50788 60.9256 2.68062 59.8409C3.85337 58.7562 5.36119 58.1843 6.90645 58.238C7.09195 58.2592 7.27841 58.2087 7.43251 58.0955C7.5866 57.9823 7.69829 57.8138 7.74761 57.6202C8.53375 55.428 9.31988 53.2528 10.106 51.0777C10.1559 50.9985 10.1888 50.9084 10.2023 50.8138C10.2158 50.7192 10.2095 50.6226 10.1839 50.531C10.1583 50.4393 10.114 50.355 10.0543 50.2841C9.99459 50.2133 9.92094 50.1576 9.83873 50.1213C7.3687 48.4267 5.27451 46.1688 3.70418 43.507C2.13385 40.8453 1.12571 37.8446 0.751018 34.7172C0.067362 29.927 0.882708 25.028 3.06872 20.7913C5.25473 16.5547 8.68727 13.221 12.826 11.315C20.6874 7.76018 27.967 9.02127 34.5705 14.7682C36.0809 16.1169 37.3814 17.717 38.4226 19.5079C38.5798 19.7618 38.7292 19.9818 38.9178 20.3119ZM74.6634 78.8388C77.5823 75.3415 79.0913 70.7391 78.8584 66.0439C78.6254 61.3488 76.6696 56.9456 73.4213 53.803C70.1729 50.6604 65.8981 49.0358 61.5371 49.2866C57.1762 49.5373 53.0864 51.643 50.1674 55.1403C43.6661 62.7577 45.3091 73.4982 50.0731 78.7711C50.3302 76.6875 51.0317 74.6963 52.1228 72.9534C53.2139 71.2105 54.6649 69.7631 56.3622 68.7246C54.8701 67.028 54.0643 64.7632 54.1217 62.4276C54.1244 61.2629 54.3531 60.1118 54.7931 59.0478C55.2331 57.9838 55.8746 57.0306 56.6766 56.249C58.1086 54.7457 60.0048 53.8629 62.0031 53.7692C64.0013 53.6755 65.9616 54.3775 67.5096 55.7412C69.0353 57.0204 70.0729 58.8571 70.4261 60.9041C70.6913 62.2899 70.6441 63.724 70.2885 65.0862C69.9329 66.4484 69.2792 67.6989 68.3822 68.7331C70.0856 69.7774 71.5399 71.2342 72.6301 72.9881C73.7203 74.7421 74.4164 76.7452 74.6634 78.8388ZM15.098 33.2615C13.6768 31.6057 12.892 29.4311 12.9019 27.1766C12.9118 24.9221 13.7157 22.7556 15.1514 21.1143C16.587 19.4731 18.5475 18.4792 20.6372 18.3335C22.7268 18.1877 24.7901 18.9008 26.4104 20.3288C27.2674 21.1116 27.9694 22.0719 28.4746 23.1527C28.9798 24.2335 29.278 25.4126 29.3513 26.62C29.4247 27.8274 29.2717 29.0383 28.9015 30.1807C28.5314 31.3231 27.9515 32.3737 27.1966 33.2699C28.8871 34.3107 30.3302 35.7598 31.412 37.5032C32.4938 39.2465 33.1848 41.2365 33.4306 43.3164C34.8797 41.5556 35.9886 39.5016 36.6924 37.2744C37.3962 35.0472 37.6809 32.6914 37.5299 30.3445C37.3789 27.9975 36.7952 25.7064 35.8129 23.605C34.8306 21.5035 33.4693 19.6338 31.8086 18.1049C30.1478 16.576 28.2208 15.4185 26.1401 14.7001C24.0593 13.9817 21.8665 13.7167 19.6896 13.9206C17.5127 14.1245 15.3953 14.7931 13.461 15.8876C11.5267 16.982 9.81431 18.4803 8.42369 20.295C2.34687 28.1663 4.40654 38.4751 8.84034 43.2572C9.09566 41.184 9.7935 39.2026 10.8792 37.4684C11.9649 35.7342 13.4088 34.2942 15.098 33.2615Z" fill="white"/>
</svg>
