<svg width="1131" height="141" viewBox="0 0 1131 141" fill="none" xmlns="http://www.w3.org/2000/svg">
<path opacity="0.3" d="M31.4854 8.09091L63.1261 107.551H64.3406L96.0451 8.09091H126.727L81.5991 139H45.9315L0.739702 8.09091H31.4854ZM141.972 139V40.8182H169.202V139H141.972ZM155.651 28.1619C151.603 28.1619 148.13 26.8196 145.232 24.1349C142.377 21.4077 140.949 18.1477 140.949 14.3551C140.949 10.6051 142.377 7.38778 145.232 4.70312C148.13 1.97585 151.603 0.612209 155.651 0.612209C159.699 0.612209 163.151 1.97585 166.006 4.70312C168.904 7.38778 170.353 10.6051 170.353 14.3551C170.353 18.1477 168.904 21.4077 166.006 24.1349C163.151 26.8196 159.699 28.1619 155.651 28.1619ZM272.705 68.8153L247.776 70.3494C247.35 68.2187 246.434 66.3011 245.028 64.5966C243.621 62.8494 241.768 61.4645 239.467 60.4418C237.208 59.3764 234.502 58.8438 231.349 58.8438C227.13 58.8438 223.572 59.7386 220.674 61.5284C217.776 63.2756 216.327 65.6193 216.327 68.5597C216.327 70.9034 217.265 72.8849 219.14 74.5043C221.015 76.1236 224.232 77.4233 228.792 78.4034L246.562 81.983C256.107 83.9432 263.224 87.0966 267.911 91.4432C272.599 95.7898 274.942 101.5 274.942 108.574C274.942 115.009 273.046 120.655 269.254 125.513C265.504 130.371 260.347 134.163 253.785 136.891C247.265 139.575 239.744 140.918 231.221 140.918C218.224 140.918 207.869 138.212 200.156 132.8C192.485 127.345 187.989 119.93 186.668 110.555L213.451 109.149C214.261 113.112 216.221 116.138 219.332 118.226C222.442 120.271 226.427 121.294 231.285 121.294C236.058 121.294 239.893 120.378 242.79 118.545C245.731 116.67 247.222 114.263 247.265 111.322C247.222 108.851 246.178 106.827 244.133 105.25C242.087 103.631 238.934 102.395 234.673 101.543L217.67 98.1548C208.082 96.2372 200.944 92.9134 196.256 88.1832C191.612 83.4531 189.289 77.4233 189.289 70.0938C189.289 63.7869 190.994 58.3537 194.403 53.794C197.854 49.2344 202.691 45.7188 208.913 43.2472C215.177 40.7756 222.506 39.5398 230.901 39.5398C243.302 39.5398 253.06 42.1605 260.177 47.402C267.336 52.6435 271.512 59.7812 272.705 68.8153ZM292.089 139V40.8182H319.319V139H292.089ZM305.768 28.1619C301.72 28.1619 298.247 26.8196 295.349 24.1349C292.494 21.4077 291.066 18.1477 291.066 14.3551C291.066 10.6051 292.494 7.38778 295.349 4.70312C298.247 1.97585 301.72 0.612209 305.768 0.612209C309.816 0.612209 313.268 1.97585 316.123 4.70312C319.021 7.38778 320.47 10.6051 320.47 14.3551C320.47 18.1477 319.021 21.4077 316.123 24.1349C313.268 26.8196 309.816 28.1619 305.768 28.1619ZM385.493 140.918C375.564 140.918 366.977 138.808 359.733 134.589C352.531 130.328 346.97 124.405 343.05 116.82C339.129 109.192 337.169 100.349 337.169 90.2926C337.169 80.1506 339.129 71.2869 343.05 63.7017C346.97 56.0739 352.531 50.1506 359.733 45.9318C366.977 41.6705 375.564 39.5398 385.493 39.5398C395.422 39.5398 403.987 41.6705 411.189 45.9318C418.433 50.1506 424.016 56.0739 427.936 63.7017C431.857 71.2869 433.817 80.1506 433.817 90.2926C433.817 100.349 431.857 109.192 427.936 116.82C424.016 124.405 418.433 130.328 411.189 134.589C403.987 138.808 395.422 140.918 385.493 140.918ZM385.621 119.824C390.138 119.824 393.909 118.545 396.935 115.989C399.96 113.389 402.24 109.852 403.774 105.378C405.351 100.903 406.139 95.8111 406.139 90.1009C406.139 84.3906 405.351 79.2983 403.774 74.8239C402.24 70.3494 399.96 66.8125 396.935 64.2131C393.909 61.6136 390.138 60.3139 385.621 60.3139C381.061 60.3139 377.226 61.6136 374.115 64.2131C371.047 66.8125 368.724 70.3494 367.148 74.8239C365.614 79.2983 364.847 84.3906 364.847 90.1009C364.847 95.8111 365.614 100.903 367.148 105.378C368.724 109.852 371.047 113.389 374.115 115.989C377.226 118.545 381.061 119.824 385.621 119.824ZM478.753 82.2386V139H451.523V40.8182H477.474V58.1406H478.625C480.798 52.4304 484.442 47.9133 489.555 44.5895C494.669 41.223 500.869 39.5398 508.156 39.5398C514.974 39.5398 520.919 41.0312 525.99 44.0142C531.061 46.9972 535.003 51.2585 537.815 56.7983C540.628 62.2955 542.034 68.858 542.034 76.4858V139H514.804V81.3438C514.847 75.3352 513.313 70.6477 510.202 67.2812C507.091 63.8722 502.808 62.1676 497.354 62.1676C493.689 62.1676 490.45 62.956 487.638 64.5327C484.868 66.1094 482.695 68.4105 481.118 71.4361C479.584 74.419 478.795 78.0199 478.753 82.2386ZM645.298 140.918C636.263 140.918 628.465 139.298 621.903 136.06C615.34 132.821 610.29 128.432 606.754 122.892C603.259 117.31 601.512 111.088 601.512 104.227C601.512 99.1136 602.535 94.5753 604.58 90.6122C606.626 86.6491 609.481 83.0057 613.146 79.6818C616.81 76.3153 621.072 72.9702 625.93 69.6463L651.306 52.9631C654.587 50.875 656.995 48.6804 658.529 46.3793C660.063 44.0355 660.83 41.5 660.83 38.7727C660.83 36.1733 659.786 33.7656 657.698 31.5497C655.61 29.3338 652.648 28.2472 648.813 28.2898C646.256 28.2898 644.04 28.8651 642.165 30.0156C640.29 31.1236 638.82 32.5937 637.755 34.4261C636.732 36.2159 636.221 38.2188 636.221 40.4347C636.221 43.1619 636.988 45.9318 638.522 48.7443C640.056 51.5568 642.102 54.5398 644.658 57.6932C647.215 60.804 650.006 64.1705 653.032 67.7926L715.099 139H686.718L634.942 81.3438C631.533 77.4659 628.124 73.4176 624.715 69.1989C621.349 64.9375 618.536 60.4205 616.278 55.6477C614.019 50.8324 612.89 45.6122 612.89 39.9872C612.89 33.6378 614.36 27.9276 617.3 22.8565C620.283 17.7855 624.46 13.7798 629.829 10.8395C635.198 7.85653 641.462 6.36505 648.621 6.36505C655.61 6.36505 661.64 7.79261 666.711 10.6477C671.825 13.4602 675.745 17.2102 678.472 21.8977C681.242 26.5426 682.627 31.6562 682.627 37.2386C682.627 43.4176 681.093 49.0213 678.025 54.0497C674.999 59.0355 670.738 63.5099 665.241 67.473L638.522 86.7131C634.9 89.3551 632.215 92.0611 630.468 94.831C628.763 97.5582 627.911 100.179 627.911 102.693C627.911 105.804 628.678 108.595 630.212 111.067C631.746 113.538 633.92 115.499 636.732 116.947C639.545 118.354 642.847 119.057 646.64 119.057C651.242 119.057 655.781 118.013 660.255 115.925C664.772 113.794 668.863 110.79 672.528 106.912C676.235 102.991 679.197 98.3466 681.413 92.9773C683.629 87.608 684.737 81.6633 684.737 75.1435H707.3C707.3 83.1548 706.427 90.3778 704.68 96.8125C702.933 103.205 700.504 108.787 697.393 113.56C694.282 118.29 690.724 122.168 686.718 125.193C685.44 126.003 684.204 126.77 683.011 127.494C681.817 128.219 680.582 128.986 679.303 129.795C674.445 133.716 669.012 136.55 663.004 138.297C657.038 140.044 651.136 140.918 645.298 140.918ZM768.616 8.09091H802.75L838.801 96.0455H840.335L876.386 8.09091H910.52V139H883.673V53.794H882.586L848.708 138.361H830.427L796.549 53.4744H795.463V139H768.616V8.09091ZM932.812 139V40.8182H960.042V139H932.812ZM946.491 28.1619C942.442 28.1619 938.969 26.8196 936.072 24.1349C933.217 21.4077 931.789 18.1477 931.789 14.3551C931.789 10.6051 933.217 7.38778 936.072 4.70312C938.969 1.97585 942.442 0.612209 946.491 0.612209C950.539 0.612209 953.991 1.97585 956.846 4.70312C959.744 7.38778 961.192 10.6051 961.192 14.3551C961.192 18.1477 959.744 21.4077 956.846 24.1349C953.991 26.8196 950.539 28.1619 946.491 28.1619ZM1063.55 68.8153L1038.62 70.3494C1038.19 68.2187 1037.27 66.3011 1035.87 64.5966C1034.46 62.8494 1032.61 61.4645 1030.31 60.4418C1028.05 59.3764 1025.34 58.8438 1022.19 58.8438C1017.97 58.8438 1014.41 59.7386 1011.51 61.5284C1008.62 63.2756 1007.17 65.6193 1007.17 68.5597C1007.17 70.9034 1008.1 72.8849 1009.98 74.5043C1011.85 76.1236 1015.07 77.4233 1019.63 78.4034L1037.4 81.983C1046.95 83.9432 1054.06 87.0966 1058.75 91.4432C1063.44 95.7898 1065.78 101.5 1065.78 108.574C1065.78 115.009 1063.89 120.655 1060.09 125.513C1056.34 130.371 1051.19 134.163 1044.62 136.891C1038.1 139.575 1030.58 140.918 1022.06 140.918C1009.06 140.918 998.708 138.212 990.995 132.8C983.325 127.345 978.829 119.93 977.508 110.555L1004.29 109.149C1005.1 113.112 1007.06 116.138 1010.17 118.226C1013.28 120.271 1017.27 121.294 1022.12 121.294C1026.9 121.294 1030.73 120.378 1033.63 118.545C1036.57 116.67 1038.06 114.263 1038.1 111.322C1038.06 108.851 1037.02 106.827 1034.97 105.25C1032.93 103.631 1029.77 102.395 1025.51 101.543L1008.51 98.1548C998.922 96.2372 991.784 92.9134 987.096 88.1832C982.451 83.4531 980.129 77.4233 980.129 70.0938C980.129 63.7869 981.833 58.3537 985.243 53.794C988.694 49.2344 993.531 45.7188 999.752 43.2472C1006.02 40.7756 1013.35 39.5398 1021.74 39.5398C1034.14 39.5398 1043.9 42.1605 1051.02 47.402C1058.18 52.6435 1062.35 59.7812 1063.55 68.8153ZM1164.62 68.8153L1139.69 70.3494C1139.26 68.2187 1138.35 66.3011 1136.94 64.5966C1135.54 62.8494 1133.68 61.4645 1131.38 60.4418C1129.12 59.3764 1126.42 58.8438 1123.26 58.8438C1119.04 58.8438 1115.49 59.7386 1112.59 61.5284C1109.69 63.2756 1108.24 65.6193 1108.24 68.5597C1108.24 70.9034 1109.18 72.8849 1111.05 74.5043C1112.93 76.1236 1116.15 77.4233 1120.71 78.4034L1138.48 81.983C1148.02 83.9432 1155.14 87.0966 1159.83 91.4432C1164.51 95.7898 1166.86 101.5 1166.86 108.574C1166.86 115.009 1164.96 120.655 1161.17 125.513C1157.42 130.371 1152.26 134.163 1145.7 136.891C1139.18 139.575 1131.66 140.918 1123.13 140.918C1110.14 140.918 1099.78 138.212 1092.07 132.8C1084.4 127.345 1079.9 119.93 1078.58 110.555L1105.37 109.149C1106.17 113.112 1108.13 116.138 1111.25 118.226C1114.36 120.271 1118.34 121.294 1123.2 121.294C1127.97 121.294 1131.81 120.378 1134.7 118.545C1137.64 116.67 1139.14 114.263 1139.18 111.322C1139.14 108.851 1138.09 106.827 1136.05 105.25C1134 103.631 1130.85 102.395 1126.59 101.543L1109.58 98.1548C1100 96.2372 1092.86 92.9134 1088.17 88.1832C1083.53 83.4531 1081.2 77.4233 1081.2 70.0938C1081.2 63.7869 1082.91 58.3537 1086.32 53.794C1089.77 49.2344 1094.61 45.7188 1100.83 43.2472C1107.09 40.7756 1114.42 39.5398 1122.82 39.5398C1135.22 39.5398 1144.97 42.1605 1152.09 47.402C1159.25 52.6435 1163.43 59.7812 1164.62 68.8153ZM1184 139V40.8182H1211.23V139H1184ZM1197.68 28.1619C1193.63 28.1619 1190.16 26.8196 1187.26 24.1349C1184.41 21.4077 1182.98 18.1477 1182.98 14.3551C1182.98 10.6051 1184.41 7.38778 1187.26 4.70312C1190.16 1.97585 1193.63 0.612209 1197.68 0.612209C1201.73 0.612209 1205.18 1.97585 1208.04 4.70312C1210.94 7.38778 1212.38 10.6051 1212.38 14.3551C1212.38 18.1477 1210.94 21.4077 1208.04 24.1349C1205.18 26.8196 1201.73 28.1619 1197.68 28.1619ZM1277.41 140.918C1267.48 140.918 1258.89 138.808 1251.65 134.589C1244.45 130.328 1238.88 124.405 1234.96 116.82C1231.04 109.192 1229.08 100.349 1229.08 90.2926C1229.08 80.1506 1231.04 71.2869 1234.96 63.7017C1238.88 56.0739 1244.45 50.1506 1251.65 45.9318C1258.89 41.6705 1267.48 39.5398 1277.41 39.5398C1287.34 39.5398 1295.9 41.6705 1303.1 45.9318C1310.35 50.1506 1315.93 56.0739 1319.85 63.7017C1323.77 71.2869 1325.73 80.1506 1325.73 90.2926C1325.73 100.349 1323.77 109.192 1319.85 116.82C1315.93 124.405 1310.35 130.328 1303.1 134.589C1295.9 138.808 1287.34 140.918 1277.41 140.918ZM1277.53 119.824C1282.05 119.824 1285.82 118.545 1288.85 115.989C1291.87 113.389 1294.15 109.852 1295.69 105.378C1297.26 100.903 1298.05 95.8111 1298.05 90.1009C1298.05 84.3906 1297.26 79.2983 1295.69 74.8239C1294.15 70.3494 1291.87 66.8125 1288.85 64.2131C1285.82 61.6136 1282.05 60.3139 1277.53 60.3139C1272.98 60.3139 1269.14 61.6136 1266.03 64.2131C1262.96 66.8125 1260.64 70.3494 1259.06 74.8239C1257.53 79.2983 1256.76 84.3906 1256.76 90.1009C1256.76 95.8111 1257.53 100.903 1259.06 105.378C1260.64 109.852 1262.96 113.389 1266.03 115.989C1269.14 118.545 1272.98 119.824 1277.53 119.824ZM1370.67 82.2386V139H1343.44V40.8182H1369.39V58.1406H1370.54C1372.71 52.4304 1376.36 47.9133 1381.47 44.5895C1386.58 41.223 1392.78 39.5398 1400.07 39.5398C1406.89 39.5398 1412.83 41.0312 1417.9 44.0142C1422.98 46.9972 1426.92 51.2585 1429.73 56.7983C1432.54 62.2955 1433.95 68.858 1433.95 76.4858V139H1406.72V81.3438C1406.76 75.3352 1405.23 70.6477 1402.12 67.2812C1399 63.8722 1394.72 62.1676 1389.27 62.1676C1385.6 62.1676 1382.36 62.956 1379.55 64.5327C1376.78 66.1094 1374.61 68.4105 1373.03 71.4361C1371.5 74.419 1370.71 78.0199 1370.67 82.2386Z" fill="#0068FF" fill-opacity="0.58"/>
</svg>
